<?xml version="1.0" standalone="no"?>
<!DOCTYPE svg PUBLIC "-//W3C//DTD SVG 1.1//EN" "http://www.w3.org/Graphics/SVG/1.1/DTD/svg11.dtd" >
<svg>
<metadata>
Created by FontForge 20090914 at Thu Jul  4 06:25:09 2013
 By www-data
Copyright (c) 1992-97 Hewlett-Packard. All rights reserved.
</metadata>
<defs>
<font id="AvantGarde-Demi" horiz-adv-x="0" >
  <font-face 
    font-family="ITC Avant Garde Gothic Demi"
    font-weight="600"
    font-stretch="normal"
    units-per-em="2048"
    panose-1="2 11 8 2 2 2 2 2 2 4"
    ascent="1638"
    descent="-410"
    x-height="1136"
    cap-height="1515"
    bbox="-923 -572.001 2505 2111"
    underline-thickness="102"
    underline-position="-154"
    unicode-range="U+0020-U+FB02"
  />
<missing-glyph horiz-adv-x="669" 
d="M0 1274h569v-1274h-569v1274zM100 1174v-1074h369v1074h-369z" />
    <glyph glyph-name=".notdef" horiz-adv-x="669" 
d="M0 1274h569v-1274h-569v1274zM100 1174v-1074h369v1074h-369z" />
    <glyph glyph-name="space" unicode=" " horiz-adv-x="573" 
 />
    <glyph glyph-name="exclam" unicode="!" horiz-adv-x="573" 
d="M152 389v1126h271v-1126h-271zM150 263h274v-263h-274v263z" />
    <glyph glyph-name="quotedbl" unicode="&#x22;" horiz-adv-x="737" 
d="M94 911l-55 604h273l-55 -604h-163zM480 911l-55 604h273l-55 -604h-163z" />
    <glyph glyph-name="numbersign" unicode="#" horiz-adv-x="1147" 
d="M576 1439l-58 -412h186l58 412h206l-58 -412h165l-9 -194h-184l-33 -234h165l-9 -194h-183l-58 -406h-206l58 406h-186l-58 -406h-206l58 406h-165l9 194h183l33 234h-164l9 194h183l58 412h206zM489 833l-32 -234h187l32 234h-187z" />
    <glyph glyph-name="dollar" unicode="$" horiz-adv-x="1147" 
d="M725 1137c-6.66699 40 -21.6699 70.5 -45.0029 91.5s-53.666 31.5 -90.999 31.5c-41.333 0 -75.166 -12.667 -101.499 -38s-39.5 -58 -39.5 -98c0 -43.333 14 -77 42 -101c27.333 -24 81 -49 161 -75c135.333 -44 232 -99.333 290 -166c57.333 -66.667 86 -156 86 -268
c0 -128 -42.333 -232.667 -127 -314c-51.333 -50 -112.666 -84.667 -183.999 -104v-272h-258v265c-82.667 18 -154.667 55.667 -216 113c-81.333 77.333 -122.333 172 -123 284l1 24v0h269v0c1.33301 -54 18.666 -97 51.999 -129s77.333 -48 132 -48
c54 0 98.167 17.5 132.5 52.5s51.5 80.167 51.5 135.5c0 43.333 -14.667 77.666 -44 102.999c-29.333 24.667 -86.333 50.667 -171 78c-131.333 42.667 -225 95 -281 157c-55.333 62 -83 144.667 -83 248c0 117.333 37.667 213.333 113 288
c48.667 46.667 104.334 79.334 167.001 98.001v265h258v-270c56 -16 105 -43.667 147 -83c74 -68.667 113.667 -158 119 -268v0h-257z" />
    <glyph glyph-name="percent" unicode="%" horiz-adv-x="1761" 
d="M444 810c-107.333 0 -195.833 34.833 -265.5 104.5s-104.5 158.167 -104.5 265.5c0 108 34.833 196.833 104.5 266.5s158.167 104.5 265.5 104.5c108 0 196.833 -34.833 266.5 -104.5s104.5 -158.5 104.5 -266.5c0 -107.333 -34.833 -195.833 -104.5 -265.5
s-158.5 -104.5 -266.5 -104.5v0zM444 1323c-39.333 0 -71.5 -13.333 -96.5 -40s-37.5 -61 -37.5 -103c0 -41.333 12.5 -75.333 37.5 -102s57.167 -40 96.5 -40s71.666 13.333 96.999 40s38 60.667 38 102c0 42 -12.667 76.333 -38 103s-57.666 40 -96.999 40v0zM465 9
l628 1504h204l-628 -1504h-204zM1318 -28c-107.333 0 -195.833 34.833 -265.5 104.5s-104.5 158.167 -104.5 265.5c0 108 34.833 196.833 104.5 266.5s158.167 104.5 265.5 104.5c108 0 196.833 -34.833 266.5 -104.5s104.5 -158.5 104.5 -266.5
c0 -107.333 -34.833 -195.833 -104.5 -265.5s-158.5 -104.5 -266.5 -104.5v0zM1318 485c-39.333 0 -71.5 -13.333 -96.5 -40s-37.5 -61 -37.5 -103c0 -41.333 12.5 -75.333 37.5 -102s57.167 -40 96.5 -40s71.666 13.333 96.999 40s38 60.667 38 102
c0 42 -12.667 76.333 -38 103s-57.666 40 -96.999 40v0z" />
    <glyph glyph-name="ampersand" unicode="&#x26;" horiz-adv-x="1393" 
d="M225 1160c0 106.667 37.834 197.5 113.501 272.5s167.5 112.5 275.5 112.5s199.833 -36.5 275.5 -109.5s113.5 -161.5 113.5 -265.5c0 -100.667 -30 -186 -90 -256c-37.333 -42.667 -86.666 -80.667 -147.999 -114l15 -18l129 -142l84 149
c44.667 78.667 67 113.667 67 105h296c0 4.66699 -31.333 -50.333 -94 -165l-161 -299l261 -286l-197 -174l-201 222c-40.667 -51.333 -86 -95.666 -136 -132.999c-82.667 -59.333 -168.334 -89 -257.001 -89c-138.667 0 -256.834 46.667 -354.501 140
s-146.5 206.666 -146.5 339.999c0 111.333 37 209 111 293c47.333 53.333 106 97 176 131l-60 83c-48 74 -72 141.667 -72 203zM553.001 233c45.333 0 91.667 21.668 139 65.001c28 27.333 56 60.666 84 99.999l-192 212l-52 58c-33.333 -16 -64.333 -36 -93 -60
c-63.333 -52.667 -95 -110 -95 -172c0 -56.667 20.333 -104.667 61 -144c40 -39.333 89.333 -59 148 -59zM483.002 1161c0 -26 13 -55.667 39 -89l74 -86c28 12.667 52.667 26.667 74 42c50.667 36.667 76 80 76 130c0 39.333 -12 71 -36 95s-55.667 36 -95 36
c-36.667 0 -68 -12.333 -94 -37c-25.333 -24.667 -38 -55 -38 -91z" />
    <glyph glyph-name="quotesingle" unicode="'" horiz-adv-x="451" 
d="M145 911l-55 604h273l-55 -604h-163z" />
    <glyph glyph-name="parenleft" unicode="(" horiz-adv-x="778" 
d="M152 613c0 204.667 54.667 397.332 164 577.999s243 299.334 401 356.001v-298c-82.667 -58 -150.167 -146.333 -202.5 -265s-78.5 -242.334 -78.5 -371.001c0 -129.333 26.167 -253.333 78.5 -372s119.833 -207 202.5 -265v-298
c-158.667 56.667 -292.667 175.667 -402 357c-108.667 180.667 -163 373.334 -163 578.001z" />
    <glyph glyph-name="parenright" unicode=")" horiz-adv-x="778" 
d="M641 612c0 -204.667 -54.667 -397.332 -164 -577.999s-243 -299.334 -401 -356.001v298c82.667 58 150.167 146.333 202.5 265s78.5 242.334 78.5 371.001c0 129.333 -26.167 253.333 -78.5 372s-119.833 207 -202.5 265v298c158.667 -56.667 292.667 -175.667 402 -357
c108.667 -180.667 163 -373.334 163 -578.001z" />
    <glyph glyph-name="asterisk" unicode="*" horiz-adv-x="901" 
d="M665 1475l-115 -181v0l213 10l-1 -136l-210 10v0l116 -175l-118 -70l-99 188v0l-97 -190l-119 68l115 181v0l-213 -10l1 136l210 -10v0l-116 175l118 70l99 -188v0l97 190z" />
    <glyph glyph-name="plus" unicode="+" horiz-adv-x="1229" 
d="M491 392h-393v246h393v393h246v-393h393v-246h-393v-393h-246v393z" />
    <glyph glyph-name="comma" unicode="," horiz-adv-x="573" 
d="M150 136v135h136h135v-286c0 -85.333 -23 -151.333 -69 -198s-113 -72 -201 -76v0v138v0c59.333 9.33301 96.333 29.333 111 60c9.33301 20 12.333 50.333 9 91v0h-121v136z" />
    <glyph glyph-name="hyphen" unicode="-" horiz-adv-x="860" 
d="M145 711h570v-241h-570v241z" />
    <glyph glyph-name="period" unicode="." horiz-adv-x="573" 
d="M150 272h274v-272h-274v272z" />
    <glyph glyph-name="slash" unicode="/" horiz-adv-x="942" 
d="M930 1515l-643 -1715h-275l643 1715h275z" />
    <glyph glyph-name="zero" unicode="0" horiz-adv-x="1147" 
d="M575 -30c-148 0 -269.833 48 -365.5 144s-143.5 218.333 -143.5 367v551c0 149.333 48 272.166 144 368.499s217.667 144.5 365 144.5c148 0 269.833 -48.167 365.5 -144.5s143.5 -219.166 143.5 -368.499v-551c0 -148.667 -47.833 -271 -143.5 -367
s-217.5 -144 -365.5 -144v0zM575 224c72.667 0 129.5 22.833 170.5 68.5s61.5 108.834 61.5 189.501v551c0 80.667 -20.5 143.834 -61.5 189.501s-97.833 68.5 -170.5 68.5s-129.5 -22.833 -170.5 -68.5s-61.5 -108.834 -61.5 -189.501v-551
c0 -80.667 20.5 -143.834 61.5 -189.501s97.833 -68.5 170.5 -68.5v0z" />
    <glyph glyph-name="one" unicode="1" horiz-adv-x="1147" 
d="M470 0v1253v0h-189v261h461v0v0v-1514v0h-136h-136v0z" />
    <glyph glyph-name="two" unicode="2" horiz-adv-x="1147" 
d="M1070 1030c0 -117.333 -44.667 -228.666 -134 -333.999c-70 -82 -224.667 -228 -464 -438v0h598v-258h-977v129v129c326 296.667 525.667 486.667 599 570s110 162.333 110 237c0 65.333 -21.333 118.666 -64 159.999s-97.334 62 -164.001 62
c-71.333 0 -127.166 -25.833 -167.499 -77.5s-60.5 -123.167 -60.5 -214.5v0h-272v0c0 167.333 47 300.833 141 400.5s219.333 149.5 376 149.5c140.667 0 255.667 -48 345 -144s134 -219.667 134 -371z" />
    <glyph glyph-name="three" unicode="3" horiz-adv-x="1147" 
d="M710 1143c0 46 -11.668 81.5 -35.001 106.5s-56.333 37.5 -99 37.5c-39.333 0 -71.166 -12.333 -95.499 -37s-37.833 -57.667 -40.5 -99v0h-275v0c3.33301 114.667 43 209 119 283s170.667 111 284 111c122 0 222.333 -38 301 -114s118 -173 118 -291
c0 -108.667 -41 -198 -123 -268l-5 -4v0c31.333 -14.667 59.666 -33.334 84.999 -56.001c97.333 -81.333 146 -185.333 146 -312c0 -154 -48.5 -280.833 -145.5 -380.5s-220.833 -149.5 -371.5 -149.5c-145.333 0 -264.833 44.333 -358.5 133s-146.167 207 -157.5 355v0h275
v0c10.667 -76.667 36.334 -134.5 77.001 -173.5s96 -58.5 166 -58.5c74.667 0 133 22 175 66s63 104.667 63 182c0 72.667 -24.167 132.334 -72.5 179.001s-110.5 70 -186.5 70h-84v258h64c57.333 0 101 14 131 42c30 27.333 45 67.333 45 120z" />
    <glyph glyph-name="four" unicode="4" horiz-adv-x="1147" 
d="M687 227h-656v106v106l691 1076h118h119v-1030v0h157v-258h-157v0v-227h-272v227v0zM687 485v586v0v0l-360 -586v0h360z" />
    <glyph glyph-name="five" unicode="5" horiz-adv-x="1147" 
d="M1096 515c0 -158.667 -49.167 -289.165 -147.5 -391.498s-223.5 -153.5 -375.5 -153.5c-139.333 0 -259 45.833 -359 137.5s-154.333 205.5 -163 341.5v0h275v0c6 -62 31.167 -114.667 75.5 -158s95.166 -65 152.499 -65c82.667 0 147.5 24.667 194.5 74
s70.5 117.666 70.5 204.999c0 80.667 -23.5 144 -70.5 190s-111.833 69 -194.5 69c-35.333 0 -71 -10.167 -107 -30.5s-64 -46.5 -84 -78.5l-245 67l146 793v0h686v-258h-482v0l-50 -270v0c58 22 120 33 186 33c142.667 0 260.334 -47.667 353.001 -143
c92.667 -94.667 139 -215.334 139 -362.001z" />
    <glyph glyph-name="six" unicode="6" horiz-adv-x="1147" 
d="M591 1513h320.002l-335 -511v0c24 4.66699 49.333 6.66699 76 6c123.333 0 228.5 -48.167 315.5 -144.5s130.5 -212.833 130.5 -349.5c0 -152.667 -50.667 -281.5 -152 -386.5s-226 -157.5 -374 -157.5c-152.667 0 -278.334 51 -377.001 153s-148 231.667 -148 389
c0 69.333 13.167 135.5 39.5 198.5s79.166 154.833 158.499 275.5zM319.002 498c0 -76.667 24.333 -141.499 73 -194.499s108 -79.5 178 -79.5c73.333 0 133.5 24.833 180.5 74.5s70.5 113.5 70.5 191.5c0 77.333 -23.5 140.666 -70.5 189.999s-107.167 74 -180.5 74
c-72 0 -132 -24.333 -180 -73c-47.333 -48.667 -71 -109.667 -71 -183z" />
    <glyph glyph-name="seven" unicode="7" horiz-adv-x="1147" 
d="M171 0l566 1250l3 7v0h-613v258h893v-132v-133l-547 -1250h-302z" />
    <glyph glyph-name="eight" unicode="8" horiz-adv-x="1147" 
d="M849 841c29.333 -17.333 57.668 -37.999 85.001 -61.999c96.667 -86 145 -193 145 -321c0 -138.667 -48.5 -254.667 -145.5 -348s-217.167 -140 -360.5 -140s-263.333 46.667 -360 140s-145 209.333 -145 348c0 128 48.333 235.333 145 322
c26 23.333 54 43.666 84 60.999v0l-23 20c-80 72.667 -120 163 -120 271c0 117.333 40.167 215.5 120.5 294.5s179.833 118.5 298.5 118.5c119.333 0 219.166 -39.5 299.499 -118.5s120.5 -177.167 120.5 -294.5c0 -108 -40.333 -198.333 -121 -271zM573.002 960.001
c46.667 0 85.5 15.667 116.5 47s46.5 70.666 46.5 117.999s-15.5 86.833 -46.5 118.5s-69.833 47.5 -116.5 47.5c-46 0 -84.5 -15.833 -115.5 -47.5s-46.5 -71.167 -46.5 -118.5s15.667 -86.666 47 -117.999c30.667 -31.333 69 -47 115 -47zM573.002 696.001
c-65.333 0 -119.667 -22.5 -163 -67.5s-65 -101.5 -65 -169.5c0 -67.333 21.667 -123.333 65 -168s97.666 -67 162.999 -67s119.833 22.333 163.5 67s65.5 100.667 65.5 168c0 68 -22 124.667 -66 170c-43.333 44.667 -97.666 67 -162.999 67z" />
    <glyph glyph-name="nine" unicode="9" horiz-adv-x="1147" 
d="M556 -1h-320l337 513v0c-26 -4 -52 -6 -78 -6c-123.333 0 -228.5 48.167 -315.5 144.5s-130.5 212.833 -130.5 349.5c0 152.667 50.667 281.5 152 386.5s226 157.5 374 157.5c147.333 0 271.666 -50.5 372.999 -151.5s152 -224.833 152 -371.5
c0 -77.333 -13.167 -149 -39.5 -215s-79.166 -159.333 -158.499 -280zM828 1016c0 76.667 -24.333 141.499 -73 194.499s-108 79.5 -178 79.5c-73.333 0 -133.5 -24.833 -180.5 -74.5s-70.5 -113.5 -70.5 -191.5c0 -77.333 23.5 -140.666 70.5 -189.999
s107.167 -74 180.5 -74c72 0 132 24.333 180 73c47.333 48.667 71 109.667 71 183z" />
    <glyph glyph-name="colon" unicode=":" horiz-adv-x="573" 
d="M150 272h274v-272h-274v272zM150 1136h274v-272h-274v272z" />
    <glyph glyph-name="semicolon" unicode=";" horiz-adv-x="573" 
d="M150 136v135h136h135v-286c0 -85.333 -23 -151.333 -69 -198s-113 -72 -201 -76v0v138v0c59.333 9.33301 96.333 29.333 111 60c9.33301 20 12.333 50.333 9 91v0h-121v136zM150 1136h274v-272h-274v272z" />
    <glyph glyph-name="less" unicode="&#x3c;" horiz-adv-x="1229" 
d="M94 419v96v96l1041 434v-232l-717 -297v0l717 -299v-232z" />
    <glyph glyph-name="equal" unicode="=" horiz-adv-x="1229" 
d="M98 410h1032v-246h-1032v246zM98 867h1032v-246h-1032v246z" />
    <glyph glyph-name="greater" unicode="&#x3e;" horiz-adv-x="1229" 
d="M1135 419l-1041 -434v232l717 299v0l-717 297v232l1041 -434v-96v-96z" />
    <glyph glyph-name="question" unicode="?" horiz-adv-x="1147" 
d="M542 1274c-56.667 0 -101.331 -16.832 -133.998 -50.499s-51.334 -82.834 -56.001 -147.501v0h-274v0c6.66699 142.667 52.167 256.5 136.5 341.5s193.5 127.5 327.5 127.5c136 0 247.333 -43.167 334 -129.5s130 -197.5 130 -333.5c0 -72.667 -15.5 -136.667 -46.5 -192
s-85.833 -116.333 -164.5 -183c-52.667 -44.667 -86.834 -87 -102.501 -127s-23.5 -105 -23.5 -195h-274c0 122 12.833 215.667 38.5 281s73.834 127.333 144.501 186c65.333 54 107.666 95.333 126.999 124s29 64 29 106c0 56 -18 102 -54 138s-82 54 -138 54z
M395.003 272.001h274v-272h-274v272z" />
    <glyph glyph-name="at" unicode="@" horiz-adv-x="1516" 
d="M1126 443c68.667 0 127.836 37.834 177.503 113.501s74.5 166.167 74.5 271.5c0 136.667 -49.833 252 -149.5 346s-221.834 141 -366.501 141c-171.333 0 -311.833 -57.5 -421.5 -172.5s-164.5 -262.833 -164.5 -443.5c0 -170 55.667 -309.167 167 -417.5
s254.666 -162.5 429.999 -162.5c85.333 0 168.333 16.833 249 50.5s144.667 78.167 192 133.5h157c-77.333 -106.667 -167.833 -187.667 -271.5 -243s-216.167 -83 -337.5 -83c-213.333 0 -393.333 71.5 -540 214.5s-220 318.167 -220 525.5s72.333 382.5 217 525.5
s321.667 214.5 531 214.5c192 0 354.167 -57.167 486.5 -171.5s198.5 -254.5 198.5 -420.5c0 -152.667 -48.833 -288.834 -146.5 -408.501s-208.834 -179.5 -333.501 -179.5c-50 0 -86.667 20 -110 60c-8.66699 17.333 -15.334 35.333 -20.001 54v0
c-69.333 -76 -140.333 -114 -213 -114c-92 0 -166.333 30.5 -223 91.5s-85 141.5 -85 241.5c0.666992 142 43.5 263 128.5 363s188.167 150 309.5 150c98.667 0 169.334 -42.333 212.001 -127l5 -10v0l29 107v0h177l-131 -481c-14 -47.333 -21.667 -87.333 -23 -120
s3.66699 -49 15 -49zM850.002 946.001c-76 0 -139.665 -30 -190.998 -90s-77 -134.333 -77 -223c-0.666992 -56.667 14.5 -101.834 45.5 -135.501s72.167 -50.5 123.5 -50.5c50 0 98.167 24 144.5 72s79.166 107.333 98.499 178s15.166 129.834 -12.501 177.501
s-71.5 71.5 -131.5 71.5z" />
    <glyph glyph-name="A" unicode="A" horiz-adv-x="1516" 
d="M14 0l634 1515h109h109l634 -1515v0h-153h-154v0l-151 391v0h-572v0l-147 -391v0h-154h-155v0zM754 1136l-184 -484v0h372v0l-188 484v0v0z" />
    <glyph glyph-name="B" unicode="B" horiz-adv-x="1188" 
d="M143 0l-0.00195312 1515v0h140v0h240c157.333 0 282.833 -35.667 376.5 -107s140.5 -167 140.5 -287c0 -114.667 -47 -206.334 -141 -275.001l-28 -19v0c36.667 -16 70.334 -35.333 101.001 -58c104.667 -76.667 157 -179.667 157 -309
c0 -140 -50.667 -251.667 -152 -335s-236.666 -125 -405.999 -125h-288v0h-140v0zM422.998 1254v-329.001v0h100c78.667 0 137.667 13.667 177 41s59 68.333 59 123s-19.667 95.834 -59 123.501s-98.333 41.5 -177 41.5h-100v0zM422.998 664v-403.001v0h148
c92 0 161.167 16.833 207.5 50.5s69.5 83.834 69.5 150.501c0 67.333 -24.833 117.833 -74.5 151.5s-124.167 50.5 -223.5 50.5h-127v0z" />
    <glyph glyph-name="C" unicode="C" horiz-adv-x="1597" 
d="M1561 424c-57.333 -138 -150.334 -248.164 -279.001 -330.497s-272 -123.5 -430 -123.5c-216.667 0 -401.167 76.667 -553.5 230s-228.5 339 -228.5 557c0 218.667 76.167 404.667 228.5 558s336.833 230 553.5 230c159.333 0 303.833 -41.833 433.5 -125.5
s223.834 -195.834 282.501 -336.501v0h-319v0c-47.333 61.333 -107.833 110.166 -181.5 146.499s-148.834 54.5 -225.501 54.5c-133.333 0 -248.5 -50.833 -345.5 -152.5s-145.5 -222.834 -145.5 -363.501c0 -150 49.5 -277 148.5 -381s219.833 -156 362.5 -156
c70.667 0 140.334 17.5 209.001 52.5s125.667 81.833 171 140.5v0h319z" />
    <glyph glyph-name="D" unicode="D" horiz-adv-x="1434" 
d="M129 0v1515v0h140v0h205c271.333 0 484.5 -66.167 639.5 -198.5s232.5 -313.833 232.5 -544.5c0 -240 -74.667 -428.667 -224 -566s-354.333 -206 -615 -206h-238v0h-140v0zM409 261h98.001c178 0 315.5 43.167 412.5 129.5s145.5 208.5 145.5 366.5
c0 158.667 -51.333 281.167 -154 367.5s-248.334 129.5 -437.001 129.5h-65v0v-993z" />
    <glyph glyph-name="E" unicode="E" horiz-adv-x="1065" 
d="M125 0v1515v0h815v0v-130v-131v0h-535v0v-373v0h510v-130v-131v0h-510v0v-359v0h535v0v-130v-131v0h-815z" />
    <glyph glyph-name="F" unicode="F" horiz-adv-x="983" 
d="M125 0v1515v0h772v0v-130v-131v0h-492v0v-373v0h468v-130v-131v0h-468v0v-620h-140h-140z" />
    <glyph glyph-name="G" unicode="G" horiz-adv-x="1720" 
d="M870 -30c-225.333 0 -417.5 76.667 -576.5 230s-238.5 339 -238.5 557c0 218.667 78.333 404.667 235 558s346 230 568 230c165.333 0 315.333 -43 450 -129s232 -201.333 292 -346v0h-338v0c-41.333 65.333 -98.333 117.333 -171 156s-149.667 58 -231 58
c-146 0 -269.833 -51 -371.5 -153s-152.5 -226.667 -152.5 -374c0 -146.667 51.167 -271 153.5 -373s226.833 -153 373.5 -153c145.333 0 266.333 50.333 363 151c38 40.667 69 84 93 130v0h-632v261h986v-16c0 -218 -78 -403.667 -234 -557s-345.333 -230 -568 -230h-1z
" />
    <glyph glyph-name="H" unicode="H" horiz-adv-x="1393" 
d="M145 0v1515v0h140h140v0v-617v0h545v0v617v0h140h140v0v-1515v0h-140h-140v0v637v0h-545v0v-637v0h-140h-140v0z" />
    <glyph glyph-name="I" unicode="I" horiz-adv-x="573" 
d="M147 0v1515v0h140h140v0v-1515v0h-140h-140v0z" />
    <glyph glyph-name="J" unicode="J" horiz-adv-x="983" 
d="M558 1515l140.002 -0.000976562h140v0v-1062c0 -154 -36.333 -273 -109 -357s-175.334 -126 -308.001 -126c-112 0 -205.833 35 -281.5 105s-120.834 163.667 -135.501 281v0h284v0c4 -38 18.333 -68.333 43 -91s55.667 -34 93 -34c47.333 0 81.5 17.333 102.5 52
s31.5 91.334 31.5 170.001v0v1062z" />
    <glyph glyph-name="K" unicode="K" horiz-adv-x="1270" 
d="M462 0h-140h-140v0v1515v0h140h140v0v-669v0l480 669v0h164h164v0l-575 -745v0l575 -770v0h-164h-165v0l-479 668v0v-668z" />
    <glyph glyph-name="L" unicode="L" horiz-adv-x="901" 
d="M147 0v1515v0h140h140v0v-1254v0h464v0v-130v-131v0h-744z" />
    <glyph glyph-name="M" unicode="M" horiz-adv-x="1843" 
d="M409 0h-140h-140v0v1515v0h195h196v0l403 -1151v0v0l400 1151v0h195h196v0v-1515v0h-140h-140v0v1150v0l-400 -1150h-112h-112l-401 1147v0v-1147z" />
    <glyph glyph-name="N" unicode="N" horiz-adv-x="1516" 
d="M423 0h-140h-140v0v1515v0h161h161v0l630 -1107v0v0v1107v0h140h140v0v-1515h-154h-155l-643 1116v0v0v-1116z" />
    <glyph glyph-name="O" unicode="O" horiz-adv-x="1720" 
d="M860 -30c-219.333 0 -406.166 76.667 -560.499 230s-231.5 339 -231.5 557c0 218.667 77.167 404.667 231.5 558s341.166 230 560.499 230c220 0 407 -76.667 561 -230s231 -339.333 231 -558c0 -218 -77 -403.667 -231 -557s-341 -230 -561 -230v0zM860 231
c142.667 0 263.5 51 362.5 153s148.5 226.333 148.5 373c0 147.333 -49.5 272 -148.5 374s-219.833 153 -362.5 153s-263.5 -51 -362.5 -153s-148.5 -226.667 -148.5 -374c0 -146.667 49.5 -271 148.5 -373s219.833 -153 362.5 -153v0z" />
    <glyph glyph-name="P" unicode="P" horiz-adv-x="1147" 
d="M147 0l-0.000976562 1515v0h140v0h262c180 0 319.5 -39.333 418.5 -118s148.5 -189.667 148.5 -333c0 -161.333 -47.667 -283 -143 -365s-236.666 -123 -423.999 -123h-122v0v-576v0h-140h-140v0zM426.999 837h122c95.333 0 166.833 17.333 214.5 52
s71.5 86.667 71.5 156s-23.833 121.5 -71.5 156.5s-119.167 52.5 -214.5 52.5h-122v0v-417z" />
    <glyph glyph-name="Q" unicode="Q" horiz-adv-x="1720" 
d="M1684 -35l-59 4c-67.333 0 -145 24 -233 72c-30 16 -62 35.333 -96 58v0c-127.333 -86 -273.333 -129 -438 -129c-219.333 0 -406.166 76.667 -560.499 230s-231.5 339 -231.5 557c0 218.667 77.167 404.667 231.5 558s341.166 230 560.499 230
c220 0 407 -76.667 561 -230s231 -339.333 231 -558c0 -182.667 -54.333 -343 -163 -481v0c62.667 -31.333 121.667 -47 177 -47l20 -5v-259zM1369 757c0 147.333 -49.498 272 -148.498 374s-219.833 153 -362.5 153s-263.5 -51 -362.5 -153s-148.5 -226.667 -148.5 -374
l1 -38v0c62 17.333 130 26 204 26c125.333 0 241.666 -22.5 348.999 -67.5s218 -117.833 332 -218.5l30 -26v0c71.333 92 106.666 200 105.999 324zM559.002 485c-43.333 0 -80.001 -4 -110.001 -12l-19 -6v0c18 -28.667 40 -56.334 66 -83.001
c98.667 -102 219.334 -153 362.001 -153c75.333 0 144.666 14.333 207.999 43v0c-91.333 72.667 -176.666 126.334 -255.999 161.001c-80 33.333 -163.667 50 -251 50z" />
    <glyph glyph-name="R" unicode="R" horiz-adv-x="1188" 
d="M131 0v1515v0h140v0h304c180 0 319.5 -40.833 418.5 -122.5s148.5 -196.5 148.5 -344.5c0 -166.667 -50.333 -292.667 -151 -378c-62.667 -52 -144 -89 -244 -111v0l410 -559v0h-165h-166v0l-415 605v0v-605v0h-140h-140v0zM411 788h143c102 0 178.667 19.333 230 58
s77 96.667 77 174c0 78 -25.667 136.5 -77 175.5s-128 58.5 -230 58.5h-143v0v-466z" />
    <glyph glyph-name="S" unicode="S" horiz-adv-x="1065" 
d="M688 1114c-6 56.667 -23.166 99.167 -51.499 127.5s-67.166 42.5 -116.499 42.5c-46.667 0 -84.834 -14.667 -114.501 -44s-44.5 -67 -44.5 -113c0 -48 15 -85.333 45 -112c29.333 -26 86.666 -53.667 171.999 -83c156 -53.333 267 -116.333 333 -189
s99 -168.667 99 -288c0 -142 -46 -258.333 -138 -349s-210 -136 -354 -136c-136 0 -249.5 42.667 -340.5 128s-141.833 196.666 -152.5 333.999v0h294v0c7.33301 -65.333 28.5 -115.166 63.5 -149.499s82.167 -51.5 141.5 -51.5c61.333 0 111.5 17.667 150.5 53
s58.5 81 58.5 137c0 61.333 -19 109.333 -57 144c-37.333 34 -110.666 69.667 -219.999 107c-134.667 46 -230.334 102.333 -287.001 169s-85 155.667 -85 267c0 128 41.667 232.833 125 314.5s190.333 122.5 321 122.5c120.667 0 223.667 -41.167 309 -123.5
s131 -184.833 137 -307.5v0h-288z" />
    <glyph glyph-name="T" unicode="T" horiz-adv-x="860" 
d="M294 0v1254v0h-282v0v130v131v0h844v0v-130v-131v0h-282v0v-1254v0h-140h-140v0z" />
    <glyph glyph-name="U" unicode="U" horiz-adv-x="1311" 
d="M1198 567c0 -191.333 -46.834 -338.666 -140.501 -441.999s-227.5 -155 -401.5 -155c-173.333 0 -307.166 51.667 -401.499 155s-141.5 250.666 -141.5 441.999v948v0h140h140v0v-961c0 -108 21.833 -188.833 65.5 -242.5s109.5 -80.5 197.5 -80.5
c87.333 0 152.833 26.833 196.5 80.5s65.5 134.5 65.5 242.5v961v0h140h140v0v-948z" />
    <glyph glyph-name="V" unicode="V" horiz-adv-x="1434" 
d="M16 1515h147h148v0l409 -1157v0v0l409 1157v0h147h148v0l-591 -1515h-112h-113z" />
    <glyph glyph-name="W" unicode="W" horiz-adv-x="1843" 
d="M453 0l-439 1515v0h142h143v0l271 -1068v0v0l253 1068h104h105l254 -1068v0v0l270 1068v0h142h143v0l-438 -1515h-112h-113l-251 1015v0v0l-249 -1015h-112h-113z" />
    <glyph glyph-name="X" unicode="X" horiz-adv-x="1393" 
d="M8 0l529 756v0l-529 759v0h161h162v0l368 -529v0v0l369 529v0h158h159v0l-524 -763v0l524 -752v0h-161h-162v0l-362 520v0v0l-356 -520v0h-168h-168v0z" />
    <glyph glyph-name="Y" unicode="Y" horiz-adv-x="1270" 
d="M495 564l-498 951v0h152h152v0l336 -704v0l332 704v0h152h152v0l-498 -951v0v-564h-140h-140v564z" />
    <glyph glyph-name="Z" unicode="Z" horiz-adv-x="1024" 
d="M39 235l583 1019v0h-550v0v130v131v0h879v-117v-118l-583 -1019v0h617v0v-130v-131v0h-946v117v118z" />
    <glyph glyph-name="bracketleft" unicode="[" horiz-adv-x="655" 
d="M135 921c0 167.333 34.167 298.833 102.5 394.5s182.833 172.167 343.5 229.5v-298c-64 -28.667 -107 -68.5 -129 -119.5s-33 -135.167 -33 -252.5v-546c0 -108 11.333 -186.833 34 -236.5s65.334 -88.5 128.001 -116.5v-298
c-160.667 57.333 -275.334 137.833 -344.001 241.5s-102.667 248.5 -102 434.5v567z" />
    <glyph glyph-name="backslash" unicode="\" horiz-adv-x="1311" 
d="M839 -200l-642 1715h275l642 -1715h-275z" />
    <glyph glyph-name="bracketright" unicode="]" horiz-adv-x="655" 
d="M520 302c0 -168 -36.5 -303.001 -109.5 -405.001s-185.167 -175 -336.5 -219v298c63.333 28.667 107.333 70.334 132 125.001s37 137 37 247v546c0 101.333 -12.667 178.5 -38 231.5s-69 93.5 -131 121.5v298c152 -34 264.5 -106.167 337.5 -216.5
s109.167 -263.5 108.5 -459.5v-567z" />
    <glyph glyph-name="asciicircum" unicode="^" horiz-adv-x="1229" 
d="M723 1514l356 -747h-246l-219 508v0l-218 -508h-246l355 747h109h109z" />
    <glyph glyph-name="underscore" unicode="_" horiz-adv-x="1024" 
d="M0 -258v103h1024v-103h-1024z" />
    <glyph glyph-name="grave" unicode="`" horiz-adv-x="860" 
d="M566 1282l-464 255l119 209l453 -276z" />
    <glyph glyph-name="a" unicode="a" horiz-adv-x="1352" 
d="M619 -38c-156 0 -288.998 58.833 -398.998 176.5s-165 260.5 -165 428.5s55 311.167 165 429.5s243.333 177.5 400 177.5c151.333 0 279.666 -54.333 384.999 -163v0v125v0h251v0v-1136v0h-125h-126v0v124v0c-106.667 -107.333 -235.334 -161.333 -386.001 -162z
M664.002 927c-95.333 0 -174.999 -34.5 -238.999 -103.5s-96 -154.5 -96 -256.5c0 -101.333 32 -186.333 96 -255s143.333 -103 238 -103c95.333 0 175.166 34.333 239.499 103s96.5 154 96.5 256s-32 187.333 -96 256s-143.667 103 -239 103z" />
    <glyph glyph-name="b" unicode="b" horiz-adv-x="1352" 
d="M96 1515l136 -0.000976562h137v0v-478v0c104 91.333 224.333 137 361 137c156.667 0 290 -59.167 400 -177.5s165 -261.5 165 -429.5s-55 -310.833 -165 -428.5s-243.667 -176.5 -401 -176.5c-148 0.666992 -275.333 53.334 -382 158.001v0v-120v0h-251v0v1515z
M686 208.999c95.333 0 175 34.333 239 103s96 153.667 96 255c0 102 -32 187.5 -96 256.5s-143.333 103.5 -238 103.5s-174 -34.333 -238 -103s-96 -154 -96 -256v0v0v0c0 -102 32 -187.333 96 -256c63.333 -68.667 142.333 -103 237 -103z" />
    <glyph glyph-name="c" unicode="c" horiz-adv-x="1311" 
d="M1244 370c-38 -124 -108.502 -223.001 -211.502 -297.001s-221.5 -111 -355.5 -111c-166.667 0 -308.5 58.833 -425.5 176.5s-175.5 260.5 -175.5 428.5s58.5 311.167 175.5 429.5s258.833 177.5 425.5 177.5c135.333 0 255 -37.5 359 -112.5
s175.333 -175.167 214 -300.5v0h-304v0c-26 53.333 -62.167 94 -108.5 122s-100.833 42 -163.5 42c-90 0 -166.5 -34 -229.5 -102s-94.5 -150.667 -94.5 -248c0 -103.333 32.333 -189.833 97 -259.5s144.667 -104.5 240 -104.5c52.667 0 101.834 14.333 147.501 43
s80.834 67.334 105.501 116.001v0h304z" />
    <glyph glyph-name="d" unicode="d" horiz-adv-x="1352" 
d="M632 -38c-155.333 0 -287.833 58.833 -397.5 176.5s-164.5 260.5 -164.5 428.5s57 311.167 171 429.5s252 177.5 414 177.5c130 -1.33301 242.667 -44.333 338 -129v0v470v0h136h137v0v-1515v0h-125h-126v0v123v0c-106 -107.333 -233.667 -161 -383 -161zM676 927
c-94 0 -172.832 -34.5 -236.499 -103.5s-95.5 -154.5 -95.5 -256.5c0 -101.333 31.667 -186.333 95 -255s142 -103 236 -103c94.667 0 174 34.333 238 103s96 154 96 256s-31.833 187.333 -95.5 256s-142.834 103 -237.501 103z" />
    <glyph glyph-name="e" unicode="e" horiz-adv-x="1311" 
d="M656 -38c-164 0 -303.835 58.833 -419.502 176.5s-173.5 260.5 -173.5 428.5s57.833 311.167 173.5 429.5s255.5 177.5 419.5 177.5c164.667 0 304.834 -59.167 420.501 -177.5s173.5 -261.5 173.5 -429.5c0 -40.667 -3.33301 -80.667 -10 -120v0h-886v0
c15.333 -49.333 41 -94 77 -134c62 -68 139.333 -102 232 -102c57.333 0 109.833 13.333 157.5 40s82.834 62.334 105.501 107.001v0h288v0c-36.667 -120.667 -105.667 -216.834 -207 -288.501s-218.333 -107.5 -351 -107.5zM964.998 665
c-13.333 60 -40.334 112.332 -81.001 156.999c-61.333 68.667 -137.333 103 -228 103s-166.667 -34.333 -228 -103c-39.333 -45.333 -66.666 -97.666 -81.999 -156.999v0h619z" />
    <glyph glyph-name="f" unicode="f" horiz-adv-x="573" 
d="M401 896v-896v0h-136h-137v0v896v0h-97v240h97v0c5.33301 122 40 219.333 104 292c68.667 78 164 117 286 117l55 -1v-265h-14c-56 0 -96.333 -11 -121 -33s-37 -57.667 -37 -107v-3v0h161v-240h-161z" />
    <glyph glyph-name="g" unicode="g" horiz-adv-x="1352" 
d="M663 -214c107.333 0 194.67 36.334 262.003 109.001c58.667 63.333 91.667 143.666 99 240.999v0c-112 -116 -244.667 -174 -398 -174c-154.667 0 -286.667 58.833 -396 176.5s-164 260.5 -164 428.5s54.667 311.167 164 429.5s241.666 177.5 396.999 177.5
c151.333 0.666992 279.666 -54.333 384.999 -165v0v127v0h264v-923c0 -204 -56.833 -367.667 -170.5 -491s-264.5 -185 -452.5 -185c-136 0 -255.167 34.167 -357.5 102.5s-170.833 159.5 -205.5 273.5v0h317v0c19.333 -38.667 52.166 -69.5 98.499 -92.5
s98.833 -34.5 157.5 -34.5zM671.004 927.001c-94 0 -172.666 -34.5 -235.999 -103.5s-95 -154.5 -95 -256.5c0 -101.333 31.667 -186.333 95 -255s141.666 -103 234.999 -103c94 0 172.833 34.333 236.5 103s95.5 154 95.5 256s-31.667 187.333 -95 256s-142 103 -236 103z
" />
    <glyph glyph-name="h" unicode="h" horiz-adv-x="1229" 
d="M111 0l-0.000976562 1515v0h136h137v0v-459v0v0c84.667 80 183.334 119.333 296.001 118c134 0 240.5 -45.333 319.5 -136s118.5 -213.334 118.5 -368.001v-670v0h-136h-137v0v610c0 103.333 -19.167 181.833 -57.5 235.5s-94.5 80.5 -168.5 80.5
c-78.667 0 -137.5 -27.333 -176.5 -82s-58.5 -136.667 -58.5 -246v0v-598v0h-136h-137v0z" />
    <glyph glyph-name="i" unicode="i" horiz-adv-x="492" 
d="M109 0v1136v0h136h137v0v-1136v0h-136h-137v0zM109 1515h272v-250h-272v250z" />
    <glyph glyph-name="j" unicode="j" horiz-adv-x="532" 
d="M146 1136l136 -0.00195312h137v0v-1069c0 -149.333 -36.333 -261.666 -109 -336.999c-64 -66.667 -156.333 -104 -277 -112v0v272v0c42.667 0 72.167 12.333 88.5 37s24.5 71.334 24.5 140.001v0v1069zM147 1515h272v-250h-272v250z" />
    <glyph glyph-name="k" unicode="k" horiz-adv-x="1188" 
d="M437 0h-136h-137v0v1515v0h136h137v0v-921v0l366 542v0h158h159v0l-423 -549v0l473 -587v0h-164h-164v0l-405 542v0v-542z" />
    <glyph glyph-name="l" unicode="l" horiz-adv-x="492" 
d="M111 0v1515v0h136h137v0v-1515v0h-136h-137v0z" />
    <glyph glyph-name="m" unicode="m" horiz-adv-x="1925" 
d="M111 0l-0.00195312 1136v0h127h127v0v-94v0v0c83.333 88.667 182 132.667 296 132c126 0 231 -48 315 -144l20 -24v0l22 24c88.667 96 203.334 144 344.001 144c139.333 0 249.833 -43.667 331.5 -131s122.5 -205.666 122.5 -354.999v-688v0h-136h-137v0v643
c0 92.667 -18.5 163 -55.5 211s-90.833 72 -161.5 72c-75.333 0 -131.666 -27.333 -168.999 -82s-56 -136.667 -56 -246v0v-598v0h-136h-137v0v612c0 102.667 -19 180.667 -57 234s-93.667 80 -167 80s-128.333 -27.333 -165 -82s-55 -136.667 -55 -246v0v-598v0h-136h-137
v0z" />
    <glyph glyph-name="n" unicode="n" horiz-adv-x="1229" 
d="M111 0v1136v0h127h127v0v-98v0v0c88 90.667 193.333 136 316 136c134.667 0 241.5 -45.5 320.5 -136.5s118.5 -213.833 118.5 -368.5v-669v0h-136h-137v0v608c0 104 -19.333 183 -58 237s-95 81 -169 81c-78.667 0 -137.667 -27.333 -177 -82s-59 -136.667 -59 -246v0
v-598v0h-136h-137v0z" />
    <glyph glyph-name="o" unicode="o" horiz-adv-x="1311" 
d="M655 -38c-167.333 0 -309.833 58.833 -427.5 176.5s-176.5 260.5 -176.5 428.5s58.833 311.167 176.5 429.5s260.167 177.5 427.5 177.5c168 0 310.833 -59.167 428.5 -177.5s176.5 -261.5 176.5 -429.5s-58.833 -310.833 -176.5 -428.5s-260.5 -176.5 -428.5 -176.5v0z
M655 211c94 0 172.667 34 236 102s95 152.667 95 254s-31.667 186.333 -95 255s-142 103 -236 103c-93.333 0 -171.666 -34.333 -234.999 -103s-95 -153.667 -95 -255s31.667 -186 95 -254s141.666 -102 234.999 -102v0z" />
    <glyph glyph-name="p" unicode="p" horiz-adv-x="1352" 
d="M96 1136h124.999h126v0v-120v0c106.667 106 233.334 158.667 380.001 158c156 0 288.667 -59.167 398 -177.5s164 -261.5 164 -429.5s-54.667 -310.833 -164 -428.5s-242.333 -176.5 -399 -176.5c-135.333 0.666992 -254.333 45.667 -357 135v0v-476v0h-136h-137v0v1515z
M682.999 209c94 0 172.834 34.333 236.501 103s95.5 153.667 95.5 255c0 102 -31.667 187.5 -95 256.5s-142 103.5 -236 103.5s-172.667 -34.333 -236 -103s-95 -154 -95 -256v0v0v0c0 -102 31.667 -187.333 95 -256s141.666 -103 234.999 -103z" />
    <glyph glyph-name="q" unicode="q" horiz-adv-x="1352" 
d="M623 -38c-154.667 0 -286.668 58.833 -396.001 176.5s-164 260.5 -164 428.5s56.833 311.167 170.5 429.5s251.167 177.5 412.5 177.5c138.667 0 258.334 -50.333 359.001 -151v0v113v0h125h126v0v-1515v0h-136h-137v0v480v0c-100.667 -92.667 -220.667 -139 -360 -139z
M667.999 927c-94 0 -172.666 -34.5 -235.999 -103.5s-95 -154.5 -95 -256.5c0 -101.333 31.667 -186.333 95 -255s141.666 -103 234.999 -103c94 0 172.833 34.333 236.5 103s95.5 154 95.5 256s-31.667 187.333 -95 256s-142 103 -236 103z" />
    <glyph glyph-name="r" unicode="r" horiz-adv-x="655" 
d="M129 0l0.000976562 1136v0h127h127v0v-86v0v0l13 18c50.667 70.667 129 106 235 106h18v-260c-76.667 -5.33301 -135.334 -25.333 -176.001 -60c-47.333 -41.333 -71 -106.666 -71 -195.999v0v-658v0h-136h-137v0z" />
    <glyph glyph-name="s" unicode="s" horiz-adv-x="901" 
d="M567 829c-6.66699 32 -19.333 56.002 -38 72.002s-42.667 24 -72 24c-31.333 0 -56.833 -9 -76.5 -27s-29.5 -41.333 -29.5 -70c0 -27.333 12.333 -49.333 37 -66s72 -35.667 142 -57c119.333 -36.667 204.666 -82.334 255.999 -137.001
c50.667 -54.667 76 -127.334 76 -218.001c0 -114 -37.667 -207.167 -113 -279.5s-172 -108.5 -290 -108.5c-119.333 0 -217.833 36.5 -295.5 109.5s-119.167 168.5 -124.5 286.5v0h280v0c8 -48 24.333 -84.5 49 -109.5s56.667 -37.5 96 -37.5c37.333 0 68 10.333 92 31
s36 47.334 36 80.001c0 35.333 -11 62.666 -33 81.999s-64.333 38.666 -127 57.999c-126 38.667 -216.333 85.334 -271 140.001c-54 54 -81 125.333 -81 214c0 105.333 36 191.333 108 258s164.333 100 277 100c98.667 0 183.334 -33 254.001 -99s109 -148 115 -246v0h-267z
" />
    <glyph glyph-name="t" unicode="t" horiz-adv-x="614" 
d="M174 0v896v0h-131v240h131v0v381h273v-381v0h165v-240h-165v0v-896h-273z" />
    <glyph glyph-name="u" unicode="u" horiz-adv-x="1229" 
d="M375 1136l-0.000976562 -607c0 -104 19.333 -183.167 58 -237.5s95.334 -81.5 170.001 -81.5c79.333 0 138.833 27.333 178.5 82s59.5 136.667 59.5 246v0v598v0h136h137v0v-1136v0h-127h-127v0v101v0v0c-86 -92.667 -192 -139 -318 -139
c-134.667 0 -241.667 45.5 -321 136.5s-119 214.167 -119 369.5v668v0h136h137v0z" />
    <glyph glyph-name="v" unicode="v" horiz-adv-x="1147" 
d="M6 1136h144h145v0l278 -784v0v0l277 784v0h144h145v0l-459 -1136h-108h-108z" />
    <glyph glyph-name="w" unicode="w" horiz-adv-x="1638" 
d="M430 0l-407 1136v0h142h142v0l222 -714v0v0l182 714h108h108l182 -714v0v0l222 714v0h142h142v0l-407 -1136h-86h-86l-217 738v0v0l-217 -738h-86h-86z" />
    <glyph glyph-name="x" unicode="x" horiz-adv-x="1147" 
d="M6 0l405 582v0l-362 554v0h158h158v0l205 -353v0v0l206 353v0h157h158v0l-361 -550v0l409 -586v0h-161h-161v0l-244 395v0v0l-246 -395v0h-160h-161v0z" />
    <glyph glyph-name="y" unicode="y" horiz-adv-x="1188" 
d="M1170 1136l-660 -1519v0h-144h-145v0l211 484v0l-416 1035v0h154h154v0l259 -742v0v0l278 742v0h154h155v0z" />
    <glyph glyph-name="z" unicode="z" horiz-adv-x="942" 
d="M41 246l515 640v0h-459v0v125v125v0h777v-123v-123l-518 -640v0h549v0v-125v-125v0h-864v123v123z" />
    <glyph glyph-name="braceleft" unicode="{" horiz-adv-x="696" 
d="M649 -390c-186 0 -309.333 24.3359 -370 73.0029c-56 45.333 -84.333 133.333 -85 264l1 31v306c2 56.667 -15 101.667 -51 135s-85.667 50 -149 50v202c63.333 0 113 16.667 149 50s53 78.333 51 135v306l-1 31c0.666992 130.667 29 218.667 85 264
c60.667 48.667 184 73 370 73v-180c-74.667 0 -122.834 -8.83301 -144.501 -26.5s-31.5 -56.834 -29.5 -117.501v-306l1 -31c0 -126 -27.667 -208.667 -83 -248c-32 -22.667 -86 -39.334 -162 -50.001v0c76 -12.667 130 -30 162 -52c55.333 -39.333 83 -122 83 -248l-1 -31
v-306c-2 -60.667 7.83301 -99.834 29.5 -117.501s69.834 -26.5 144.501 -26.5v-180z" />
    <glyph glyph-name="bar" unicode="|" horiz-adv-x="1229" 
d="M477 -513v2049h273v-2049h-273z" />
    <glyph glyph-name="braceright" unicode="}" horiz-adv-x="696" 
d="M47 -390v179.997c74.667 0 122.834 8.83301 144.501 26.5s31.5 56.834 29.5 117.501v306l-1 31c0 126 27.667 208.667 83 248c32 22 86 39.333 162 52v0c-76 10.667 -130 27.334 -162 50.001c-55.333 39.333 -83 122 -83 248l1 31v306
c2 60.667 -7.83301 99.834 -29.5 117.501s-69.834 26.5 -144.501 26.5v180c186 0 309.333 -24.333 370 -73c56 -45.333 84.333 -133.333 85 -264l-1 -31v-306c-2 -56.667 15 -101.667 51 -135s85.667 -50 149 -50v-202c-63.333 0 -113 -16.667 -149 -50
s-53 -78.333 -51 -135v-306l1 -31c-0.666992 -130.667 -29 -218.667 -85 -264c-60.667 -48.667 -184 -73 -370 -73z" />
    <glyph glyph-name="asciitilde" unicode="~" horiz-adv-x="1229" 
d="M137 521c23.333 52 60.332 95.834 110.999 131.501s100.667 53.5 150 53.5c44 0 86.167 -6.16699 126.5 -18.5s88.166 -33.833 143.499 -64.5c38.667 -21.333 70.834 -36.333 96.501 -45s50.5 -13 74.5 -13c29.333 0 61.166 13.667 95.499 41s61.5 60.666 81.5 99.999
l75 -197c-28 -50.667 -66.667 -93.5 -116 -128.5s-96 -52.5 -140 -52.5c-35.333 0 -73.666 7.5 -114.999 22.5s-94.666 40.5 -159.999 76.5c-28.667 16 -55.834 27.167 -81.501 33.5s-55.5 9.5 -89.5 9.5c-33.333 0 -67.166 -14.167 -101.499 -42.5
s-59.5 -62.833 -75.5 -103.5z" />
    <glyph glyph-name="uni00A0" unicode="&#xa0;" horiz-adv-x="573" 
 />
    <glyph glyph-name="exclamdown" unicode="&#xa1;" horiz-adv-x="573" 
d="M424 747v-1126h-271v1126h271zM426 873h-274v263h274v-263z" />
    <glyph glyph-name="cent" unicode="&#xa2;" horiz-adv-x="1147" 
d="M458 1464l259.002 0.00292969v-209c62 -16 118.667 -43.667 170 -83c86.667 -66 144 -154.333 172 -265v0h-286v0c-10 23.333 -35 45.166 -75 65.499s-78.333 30.5 -115 30.5c-61.333 0 -113.5 -21.5 -156.5 -64.5s-64.5 -95.167 -64.5 -156.5
c0 -64.667 22.167 -118.834 66.5 -162.501s99.166 -65.5 164.499 -65.5c29.333 0 61.5 8.5 96.5 25.5s57.833 35.167 68.5 54.5v0h301v0c-36 -105.333 -97.333 -189.333 -184 -252c-48.667 -35.333 -101.334 -61 -158.001 -77v-225h-259v222
c-84 21.333 -159.333 64.666 -226 129.999c-96 95.333 -144 211 -144 347c0 136.667 48.333 253 145 349c66.667 65.333 141.667 108.333 225 129v207z" />
    <glyph glyph-name="sterling" unicode="&#xa3;" horiz-adv-x="1147" 
d="M1135 564c37.333 -156.667 9.66699 -289.832 -83 -399.499s-223.667 -164.5 -393 -164.5h-582v258h292c20 40.667 30.333 80 31 118c0 47.333 -8.16699 90.5 -24.5 129.5s-41.833 76.5 -76.5 112.5l-19 19h-283v259h107c-18 49.333 -27 97.666 -27 144.999
c0 140 47.5 259 142.5 357s210.167 147 345.5 147c120 0 227.5 -42 322.5 -126s149.833 -185.667 164.5 -305v0h-275v0c-24.667 60 -54.167 103.833 -88.5 131.5s-75.5 41.5 -123.5 41.5c-58.667 0 -108.667 -24.167 -150 -72.5s-62 -106.833 -62 -175.5
c0 -41.333 10 -81.666 30 -120.999l11 -22h439v-259h-228l26 -48c32 -68 48 -140.333 48 -217c0 -36 -10.667 -74 -32 -114h27c78.667 0 135.5 28.667 170.5 86s40.5 130.666 16.5 219.999v0h274z" />
    <glyph glyph-name="currency" unicode="&#xa4;" horiz-adv-x="1147" 
d="M761 663c0 52.667 -18 97 -54 133s-80.333 54 -133 54s-97 -18 -133 -54s-54 -80.333 -54 -133s18 -97 54 -133s80.333 -54 133 -54s97 18 133 54s54 80.333 54 133zM574 223c-88 0.666992 -165.998 21.668 -233.998 63.001v0l-142 -142l-143 143l142 142v0
c-41.333 68.667 -62.333 146.667 -63 234c0.666992 88 22 166 64 234v0l-143 143l143 143l144 -144v0c67.333 42.667 144.666 64 231.999 64c86.667 -0.666992 164.667 -21.667 234 -63v0l143 143l143 -143l-144 -144v0c42.667 -68 64 -145.667 64 -233
c0 -86.667 -21 -164.334 -63 -233.001v0l143 -143l-143 -143l-144 144v0c-66.667 -44 -144.334 -65.667 -233.001 -65z" />
    <glyph glyph-name="yen" unicode="&#xa5;" horiz-adv-x="1147" 
d="M83 786v216h171v0l-273 513v0h138h139v0l317 -604v0l318 604v0h136h137v0l-274 -513v0h174v-216h-289v0l-67 -125v0v-62v0h356v-216h-356v0v-383v0h-135h-136v0v383v0h-356v216h356v0v56v0l-70 131v0h-286z" />
    <glyph glyph-name="brokenbar" unicode="&#xa6;" horiz-adv-x="1229" 
d="M477 -342v683h273v-683h-273zM477 681v683h273v-683h-273z" />
    <glyph glyph-name="section" unicode="&#xa7;" horiz-adv-x="1147" 
d="M597 1545c122.667 0 220.501 -33.3311 293.501 -99.998s114.167 -160.667 123.5 -282v0h-248v0c-8.66699 43.333 -27.834 76.666 -57.501 99.999s-66.834 35 -111.501 35c-47.333 0 -85.666 -10.667 -114.999 -32s-44 -49.333 -44 -84c0 -28 10.833 -51.5 32.5 -70.5
s68.167 -46.167 139.5 -81.5l154 -75c123.333 -60.667 207.833 -117.667 253.5 -171s68.5 -121.666 68.5 -204.999c0 -98.667 -48.333 -183 -145 -253l-21 -14l25 -28c53.333 -65.333 80 -143.333 80 -234c0 -104.667 -41.667 -192.334 -125 -263.001
s-186.666 -106 -309.999 -106c-138.667 0 -249.334 37.667 -332.001 113s-129.334 181.666 -140.001 318.999v0h256v0c4.66699 -58.667 25.667 -104.167 63 -136.5s88.333 -48.5 153 -48.5c52.667 0 95.334 12.667 128.001 38s49 58.333 49 99c0 30 -14.167 57.5 -42.5 82.5
s-80.833 56.167 -157.5 93.5l-165 80c-132 64.667 -222.5 125 -271.5 181s-73.5 127 -73.5 213c0 106 48.333 196.333 145 271l33 24c-36 60 -54.333 128 -55 204c0 96 39.333 175.333 118 238c78 62 177.667 93 299 93zM828.001 570.002
c0 29.333 -12.167 55.332 -36.5 77.999s-69.5 50 -135.5 82l-154 75c-40 19.333 -75.667 39.333 -107 60l-11 -8c-46 -35.333 -69 -78.666 -69 -129.999c0 -29.333 14.167 -56.333 42.5 -81s80.833 -55.667 157.5 -93l165 -80l58 -30l21 13c46 31.333 69 69.333 69 114z" />
    <glyph glyph-name="dieresis" unicode="&#xa8;" horiz-adv-x="1024" 
d="M160 1575h274v-272h-274v272zM590 1575h274v-272h-274v272z" />
    <glyph glyph-name="copyright" unicode="&#xa9;" horiz-adv-x="1516" 
d="M758 1540c218.667 0 403.667 -75.667 555 -227s227 -336.333 227 -555s-75.5 -403.667 -226.5 -555s-336.167 -227 -555.5 -227s-404.5 75.667 -555.5 227s-226.5 336.333 -226.5 555s75.667 403.667 227 555s336.333 227 555 227v0zM1355 758
c0 169.333 -57.6709 312.333 -173.004 429s-256.666 175 -423.999 175s-308.666 -58.333 -423.999 -175s-173 -259.667 -173 -429s57.833 -312.333 173.5 -429s256.834 -175 423.501 -175s307.834 58.333 423.501 175s173.5 259.667 173.5 429v0zM1161 603
c-14 -91.333 -58.5 -166.501 -133.5 -225.501s-163.167 -88.5 -264.5 -88.5c-127.333 0 -232.166 44 -314.499 132s-123.5 200 -123.5 336s41.167 248.167 123.5 336.5s187.166 132.5 314.499 132.5c104.667 0 194.167 -28.667 268.5 -86s118.833 -132 133.5 -224v0h-188v0
c-16.667 52.667 -42 91.667 -76 117s-77.667 38 -131 38c-76 0 -138.167 -28.833 -186.5 -86.5s-72.5 -131.5 -72.5 -221.5c0 -97.333 23.333 -174.833 70 -232.5s109.667 -86.5 189 -86.5c54.667 0 99 12.833 133 38.5s59.667 65.834 77 120.501v0h181z" />
    <glyph glyph-name="ordfeminine" unicode="&#xaa;" horiz-adv-x="737" 
d="M343 897c-84 0 -155.667 31.667 -215 95s-89 140 -89 230c0 86 30.667 161.833 92 227.5s132 98.5 212 98.5c75.333 0 129.333 -25.333 162 -76v0v55v0h179v0v-609v0h-89h-90v0v48v0c-32.667 -44.667 -86.667 -67.667 -162 -69zM365 1372
c-42 0 -76.333 -14.167 -103 -42.5s-40 -64.5 -40 -108.5s13.333 -80 40 -108s61 -42 103 -42s76.5 14.167 103.5 42.5s40.5 64.5 40.5 108.5s-13.5 80 -40.5 108s-61.5 42 -103.5 42z" />
    <glyph glyph-name="guillemotleft" unicode="&#xab;" horiz-adv-x="942" 
d="M413 713l-137 -121v0l137 -121v-248l-288 268v101v101l288 268v-248zM819 713l-137 -121v0l137 -121v-248l-288 268v101v101l288 268v-248z" />
    <glyph glyph-name="logicalnot" unicode="&#xac;" horiz-adv-x="1229" 
d="M884 622h-786v246h1032v-650h-246v404z" />
    <glyph glyph-name="uni00AD" unicode="&#xad;" horiz-adv-x="860" 
d="M145 711h570v-241h-570v241z" />
    <glyph glyph-name="registered" unicode="&#xae;" horiz-adv-x="1516" 
d="M758 1540c218.667 0 403.667 -75.667 555 -227s227 -336.333 227 -555s-75.5 -403.667 -226.5 -555s-336.167 -227 -555.5 -227s-404.5 75.667 -555.5 227s-226.5 336.333 -226.5 555s75.667 403.667 227 555s336.333 227 555 227v0zM1360 758
c0 170 -58.167 313.5 -174.5 430.5s-258.833 175.5 -427.5 175.5s-311.167 -58.5 -427.5 -175.5s-174.5 -260.5 -174.5 -430.5s58.333 -313.5 175 -430.5s259 -175.5 427 -175.5s310.333 58.5 427 175.5s175 260.5 175 430.5v0zM421 301l-0.000976562 898.001v0h89v0h289
c104 0 182.333 -19.333 235 -58s79 -96 79 -172c0 -85.333 -25.333 -148.333 -76 -189c-28.667 -21.333 -65.667 -38 -111 -50v0h7c44 0 81.667 -18 113 -54s48.666 -81 51.999 -135l5 -81c2.66699 -48.667 5.83398 -84.834 9.50098 -108.501s8.5 -40.5 14.5 -50.5h-87h-87
c-8 1.33301 -14.667 16 -20 44s-10.666 75.667 -15.999 143l-4 57c-2.66699 36.667 -20.167 65 -52.5 85s-76.5 30 -132.5 30h-128v0v-359v0h-89h-90v0zM599.999 803.001h199c42.667 0 75.667 10.833 99 32.5s35 52.5 35 92.5s-11.667 71 -35 93s-56.333 33 -99 33h-199v0
v-251z" />
    <glyph glyph-name="macron" unicode="&#xaf;" horiz-adv-x="1024" 
d="M0 1668v103h1024v-103h-1024z" />
    <glyph glyph-name="degree" unicode="&#xb0;" horiz-adv-x="819" 
d="M409 1459c82 0 151.333 -28.333 208 -85s85 -126 85 -208s-28.333 -151.167 -85 -207.5s-126 -84.5 -208 -84.5s-151.167 28.167 -207.5 84.5s-84.5 125.5 -84.5 207.5s28.167 151.333 84.5 208s125.5 85 207.5 85zM553 1166c0 42.667 -14 78.834 -42 108.501
s-62 44.5 -102 44.5s-73.833 -14.833 -101.5 -44.5s-41.5 -65.834 -41.5 -108.501s13.833 -78.667 41.5 -108s61.5 -44 101.5 -44s74 14.667 102 44s42 65.333 42 108z" />
    <glyph glyph-name="plusminus" unicode="&#xb1;" horiz-adv-x="1229" 
d="M491 572h-393v246h393v316h246v-316h393v-246h-393v-316h-246v316zM98 115h1032v-246h-1032v246z" />
    <glyph glyph-name="uni00B2" unicode="&#xb2;" horiz-adv-x="688" 
d="M658 1251c0 -86.667 -27.668 -163.667 -83.001 -231c-40 -48 -124 -127.333 -252 -238v0h335v-176h-619v82v83c196 178.667 316 292.334 360 341.001c44 48 66 90.667 66 128c0 34.667 -11.167 63.167 -33.5 85.5s-51.166 33.5 -86.499 33.5
c-39.333 0 -69 -13.833 -89 -41.5s-30 -68.834 -30 -123.501v0h-199v0c0 103.333 28.5 186 85.5 248s133.5 93 229.5 93c86.667 0 161 -28 223 -84s93 -122.667 93 -200z" />
    <glyph glyph-name="uni00B3" unicode="&#xb3;" horiz-adv-x="688" 
d="M408 1285c0 23.333 -6.00098 41.502 -18.001 54.502s-29.333 19.5 -52 19.5c-18 0 -32 -6.33301 -42 -19s-15.667 -31.334 -17 -56.001v0h-194v0c2 72.667 27.167 132.667 75.5 180s108.5 71 180.5 71c77.333 0 141 -23 191 -69s75 -104.667 75 -176
c0 -63.333 -24.667 -116.333 -74 -159v0c16.667 -8 32.334 -18.333 47.001 -31c61.333 -50 92 -113.667 92 -191c0 -94 -30.833 -171.333 -92.5 -232s-140.167 -91 -235.5 -91c-92.667 0 -168.667 27.5 -228 82.5s-92.666 128.833 -99.999 221.5v0h196v0
c5.33301 -41.333 18.833 -72.333 40.5 -93s51.167 -31 88.5 -31c42 0 74.833 11.667 98.5 35s35.5 55.666 35.5 96.999c0 38.667 -13.5 70.5 -40.5 95.5s-61.833 37.5 -104.5 37.5h-59v172h35c33.333 0 58.666 7 75.999 21s26 34.333 26 61z" />
    <glyph glyph-name="acute" unicode="&#xb4;" horiz-adv-x="860" 
d="M186 1470l458 266l117 -212l-472 -242z" />
    <glyph glyph-name="uni00B5" unicode="&#xb5;" horiz-adv-x="1180" 
d="M351 1136l0.000976562 -582.999c0 -112 19 -197.167 57 -255.5s93.333 -87.5 166 -87.5c72 0 132.833 23 182.5 69s74.5 102.333 74.5 169v0v688h273v-1136h-270v102v0v0c-74.667 -92.667 -165 -139.334 -271 -140.001c-72.667 0 -135.334 26.333 -188.001 79l-24 27v0
l1 -448h-273l-1 721v795h273z" />
    <glyph glyph-name="paragraph" unicode="&#xb6;" horiz-adv-x="1229" 
d="M419 729c-140.667 1.33301 -247.833 34.999 -321.5 100.999s-110.5 163.333 -110.5 292s44.167 226.334 132.5 293.001s217.5 100 387.5 100h735v-209h-158v0v-1518h-231v1518v0h-203v0v-1518h-231v941z" />
    <glyph glyph-name="periodcentered" unicode="&#xb7;" horiz-adv-x="573" 
d="M150 893h274v-272h-274v272z" />
    <glyph glyph-name="cedilla" unicode="&#xb8;" horiz-adv-x="696" 
d="M419 -2l-48.001 -107.998v0l51 2c56 0 101.667 -19.333 137 -58s53 -88.334 53 -149.001c0 -58.667 -19.167 -106.5 -57.5 -143.5s-87.5 -55.5 -147.5 -55.5c-55.333 0 -102.5 17 -141.5 51s-60.5 76.667 -64.5 128h109c6 -24 17.333 -42.667 34 -56
s37.334 -20 62.001 -20c28.667 0 51.667 9 69 27s26 41.667 26 71s-9 53.666 -27 72.999s-40.667 29 -68 29c-21.333 0 -40.333 -4.33301 -57 -13s-27.667 -19.667 -33 -33l-99 39l99 230z" />
    <glyph glyph-name="uni00B9" unicode="&#xb9;" horiz-adv-x="688" 
d="M261 606v735v0h-114v174h311v0v0v-909v0h-98h-99v0z" />
    <glyph glyph-name="ordmasculine" unicode="&#xba;" horiz-adv-x="737" 
d="M369 897c-89.333 0 -165.333 31.5 -228 94.5s-94 139.167 -94 228.5c0 90 31.333 166.667 94 230s138.667 95 228 95s165.5 -31.667 228.5 -95s94.5 -140 94.5 -230c0 -89.333 -31.5 -165.5 -94.5 -228.5s-139.167 -94.5 -228.5 -94.5v0zM370 1070
c39.333 0 72.333 14.333 99 43s40 64.334 40 107.001c0 43.333 -13.333 79.5 -40 108.5s-59.667 43.5 -99 43.5s-72.166 -14.5 -98.499 -43.5s-39.5 -65.167 -39.5 -108.5c0 -42.667 13.167 -78.334 39.5 -107.001s59.166 -43 98.499 -43v0z" />
    <glyph glyph-name="guillemotright" unicode="&#xbb;" horiz-adv-x="942" 
d="M125 471l137 121v0l-137 121v248l288 -268v-101v-101l-288 -268v248zM531 471l137 121v0l-137 121v248l288 -268v-101v-101l-288 -268v248z" />
    <glyph glyph-name="onequarter" unicode="&#xbc;" horiz-adv-x="1720" 
d="M1246 1515l-625 -1515h-203l625 1515h203zM302 606v735v0h-114v174h311v0v0v-909v0h-98h-99v0zM1244 132h-406v76v77l428 624h80h81v-609v0h100v-168h-100v0v-132h-183v132v0zM1244 300v330v0v0l-204 -330v0h204z" />
    <glyph glyph-name="onehalf" unicode="&#xbd;" horiz-adv-x="1720" 
d="M1173 1515l-625 -1515h-203l625 1515h203zM241 606v735v0h-114v174h311v0v0v-909v0h-98h-99v0zM1579 645c0 -86.667 -27.668 -163.667 -83.001 -231c-40 -48 -124 -127.333 -252 -238v0h335v-176h-619v82v83c196 178.667 316 292.334 360 341.001c44 48 66 90.667 66 128
c0 34.667 -11.167 63.167 -33.5 85.5s-51.166 33.5 -86.499 33.5c-39.333 0 -69 -13.833 -89 -41.5s-30 -68.834 -30 -123.501v0h-199v0c0 103.333 28.5 186 85.5 248s133.5 93 229.5 93c86.667 0 161 -28 223 -84s93 -122.667 93 -200z" />
    <glyph glyph-name="threequarters" unicode="&#xbe;" horiz-adv-x="1720" 
d="M1317 1515l-625 -1515h-203l625 1515h203zM429 1285c0 23.333 -6.00098 41.502 -18.001 54.502s-29.333 19.5 -52 19.5c-18 0 -32 -6.33301 -42 -19s-15.667 -31.334 -17 -56.001v0h-194v0c2 72.667 27.167 132.667 75.5 180s108.5 71 180.5 71c77.333 0 141 -23 191 -69
s75 -104.667 75 -176c0 -63.333 -24.667 -116.333 -74 -159v0c16.667 -8 32.334 -18.333 47.001 -31c61.333 -50 92 -113.667 92 -191c0 -94 -30.833 -171.333 -92.5 -232s-140.167 -91 -235.5 -91c-92.667 0 -168.667 27.5 -228 82.5s-92.666 128.833 -99.999 221.5v0h196
v0c5.33301 -41.333 18.833 -72.333 40.5 -93s51.167 -31 88.5 -31c42 0 74.833 11.667 98.5 35s35.5 55.666 35.5 96.999c0 38.667 -13.5 70.5 -40.5 95.5s-61.833 37.5 -104.5 37.5h-59v172h35c33.333 0 58.666 7 75.999 21s26 34.333 26 61zM1361 132.002h-406v76v77
l428 624h80h81v-609v0h100v-168h-100v0v-132h-183v132v0zM1361 300.002v330v0v0l-204 -330v0h204z" />
    <glyph glyph-name="questiondown" unicode="&#xbf;" horiz-adv-x="1147" 
d="M603 -138c56.667 0 101.331 16.832 133.998 50.499s51.334 82.834 56.001 147.501v0h274v0c-6.66699 -142.667 -52.167 -256.5 -136.5 -341.5s-193.5 -127.5 -327.5 -127.5c-136 0 -247.333 43.167 -334 129.5s-130 197.5 -130 333.5c0 72.667 15.5 136.667 46.5 192
s85.833 116.333 164.5 183c52.667 44.667 86.834 87 102.501 127s23.5 105 23.5 195h274c0 -122 -12.833 -215.667 -38.5 -281s-73.834 -127.333 -144.501 -186c-65.333 -54 -107.666 -95.333 -126.999 -124s-29 -64 -29 -106c0 -56 18 -102 54 -138s82 -54 138 -54z
M749.997 863.999h-274v272h274v-272z" />
    <glyph glyph-name="Agrave" unicode="&#xc0;" horiz-adv-x="1516" 
d="M14 0l634 1515h109h109l634 -1515v0h-153h-154v0l-151 391v0h-572v0l-147 -391v0h-154h-155v0zM754 1136l-184 -484v0h372v0l-188 484v0v0zM895 1630l-464 255l119 209l453 -276z" />
    <glyph glyph-name="Aacute" unicode="&#xc1;" horiz-adv-x="1516" 
d="M14 0l634 1515h109h109l634 -1515v0h-153h-154v0l-151 391v0h-572v0l-147 -391v0h-154h-155v0zM754 1136l-184 -484v0h372v0l-188 484v0v0zM516 1818l458 266l117 -212l-472 -242z" />
    <glyph glyph-name="Acircumflex" unicode="&#xc2;" horiz-adv-x="1516" 
d="M14 0l634 1515h109h109l634 -1515v0h-153h-154v0l-151 391v0h-572v0l-147 -391v0h-154h-155v0zM754 1136l-184 -484v0h372v0l-188 484v0v0zM865 1934l301 -283h-296l-113 131v0l-113 -131h-296l301 283h108h108z" />
    <glyph glyph-name="Atilde" unicode="&#xc3;" horiz-adv-x="1516" 
d="M14 0l634 1515h109h109l634 -1515v0h-153h-154v0l-151 391v0h-572v0l-147 -391v0h-154h-155v0zM754 1136l-184 -484v0h372v0l-188 484v0v0zM355 1828c28.667 25.333 66.002 46.832 112.002 64.499s88 26.5 126 26.5c19.333 0 47.666 -4 84.999 -12
s73.666 -17.667 108.999 -29c16 -5.33301 33.833 -9.66602 53.5 -12.999s36.167 -5 49.5 -5c24.667 0 52 5 82 15s54.333 22 73 36l114 -162c-28 -28 -64.5 -51.5 -109.5 -70.5s-86.167 -28.5 -123.5 -28.5c-10 0 -34.333 4 -73 12s-80.667 18 -126 30
c-16 4 -33.667 7.33301 -53 10s-35 4 -47 4c-26 0 -54.833 -4.16699 -86.5 -12.5s-57.167 -18.5 -76.5 -30.5z" />
    <glyph glyph-name="Adieresis" unicode="&#xc4;" horiz-adv-x="1516" 
d="M14 0l634 1515h109h109l634 -1515v0h-153h-154v0l-151 391v0h-572v0l-147 -391v0h-154h-155v0zM754 1136l-184 -484v0h372v0l-188 484v0v0zM405 1923h274v-272h-274v272zM835 1923h274v-272h-274v272z" />
    <glyph glyph-name="Aring" unicode="&#xc5;" horiz-adv-x="1516" 
d="M14 0l634 1515h109h109l634 -1515v0h-153h-154v0l-151 391v0h-572v0l-147 -391v0h-154h-155v0zM754 1136l-184 -484v0h372v0l-188 484v0v0zM757 1546c-61.333 0 -113.333 21.333 -156 64s-64 94.667 -64 156s21.333 113.333 64 156s94.667 64 156 64
s113.333 -21.333 156 -64s64 -94.667 64 -156s-21.333 -113.333 -64 -156s-94.667 -64 -156 -64v0zM757 1683c23.333 0 43 8 59 24s24 35.667 24 59s-8 43 -24 59s-35.667 24 -59 24s-43 -8 -59 -24s-24 -35.667 -24 -59s8 -43 24 -59s35.667 -24 59 -24v0z" />
    <glyph glyph-name="AE" unicode="&#xc6;" horiz-adv-x="1843" 
d="M958 0v391v0h-400v0l-236 -391v0h-165h-166v0l1003 1515v0h246v0h447v0v-130v-131v0h-447v0v-373v0h425v-130v-131v0h-425v0v-359v0h447v0v-130v-131v0h-447v0h-282zM958 1055l-243 -403v0h243v0v403v0z" />
    <glyph glyph-name="Ccedilla" unicode="&#xc7;" horiz-adv-x="1597" 
d="M1561 424c-57.333 -138 -150.334 -248.164 -279.001 -330.497s-272 -123.5 -430 -123.5c-216.667 0 -401.167 76.667 -553.5 230s-228.5 339 -228.5 557c0 218.667 76.167 404.667 228.5 558s336.833 230 553.5 230c159.333 0 303.833 -41.833 433.5 -125.5
s223.834 -195.834 282.501 -336.501v0h-319v0c-47.333 61.333 -107.833 110.166 -181.5 146.499s-148.834 54.5 -225.501 54.5c-133.333 0 -248.5 -50.833 -345.5 -152.5s-145.5 -222.834 -145.5 -363.501c0 -150 49.5 -277 148.5 -381s219.833 -156 362.5 -156
c70.667 0 140.334 17.5 209.001 52.5s125.667 81.833 171 140.5v0h319zM849.999 -1.99707l-48.001 -107.998v0l51 2c56 0 101.667 -19.333 137 -58s53 -88.334 53 -149.001c0 -58.667 -19.167 -106.5 -57.5 -143.5s-87.5 -55.5 -147.5 -55.5c-55.333 0 -102.5 17 -141.5 51
s-60.5 76.667 -64.5 128h109c6 -24 17.333 -42.667 34 -56s37.334 -20 62.001 -20c28.667 0 51.667 9 69 27s26 41.667 26 71s-9 53.666 -27 72.999s-40.667 29 -68 29c-21.333 0 -40.333 -4.33301 -57 -13s-27.667 -19.667 -33 -33l-99 39l99 230z" />
    <glyph glyph-name="Egrave" unicode="&#xc8;" horiz-adv-x="1065" 
d="M125 0v1515v0h815v0v-130v-131v0h-535v0v-373v0h510v-130v-131v0h-510v0v-359v0h535v0v-130v-131v0h-815zM679 1630l-464 255l119 209l453 -276z" />
    <glyph glyph-name="Eacute" unicode="&#xc9;" horiz-adv-x="1065" 
d="M125 0v1515v0h815v0v-130v-131v0h-535v0v-373v0h510v-130v-131v0h-510v0v-359v0h535v0v-130v-131v0h-815zM300 1818l458 266l117 -212l-472 -242z" />
    <glyph glyph-name="Ecircumflex" unicode="&#xca;" horiz-adv-x="1065" 
d="M125 0v1515v0h815v0v-130v-131v0h-535v0v-373v0h510v-130v-131v0h-510v0v-359v0h535v0v-130v-131v0h-815zM649 1934l301 -283h-296l-113 131v0l-113 -131h-296l301 283h108h108z" />
    <glyph glyph-name="Edieresis" unicode="&#xcb;" horiz-adv-x="1065" 
d="M125 0v1515v0h815v0v-130v-131v0h-535v0v-373v0h510v-130v-131v0h-510v0v-359v0h535v0v-130v-131v0h-815zM189 1923h274v-272h-274v272zM619 1923h274v-272h-274v272z" />
    <glyph glyph-name="Igrave" unicode="&#xcc;" horiz-adv-x="573" 
d="M140 0v1515v0h140h140v0v-1515v0h-140h-140v0zM373 1630l-464 255l119 209l453 -276z" />
    <glyph glyph-name="Iacute" unicode="&#xcd;" horiz-adv-x="573" 
d="M150 0v1515v0h140h140v0v-1515v0h-140h-140v0zM94 1818l458 266l117 -212l-472 -242z" />
    <glyph glyph-name="Icircumflex" unicode="&#xce;" horiz-adv-x="573" 
d="M149 0v1515v0h140h140v0v-1515v0h-140h-140v0zM397 1934l301 -283h-296l-113 131v0l-113 -131h-296l301 283h108h108z" />
    <glyph glyph-name="Idieresis" unicode="&#xcf;" horiz-adv-x="573" 
d="M147 0v1515v0h140h140v0v-1515v0h-140h-140v0zM-65 1923h274v-272h-274v272zM365 1923h274v-272h-274v272z" />
    <glyph glyph-name="Eth" unicode="&#xd0;" horiz-adv-x="1520" 
d="M205 0v641v0h-154v263h154v0v611v0h140v0h165c282 0 503.667 -66.167 665 -198.5s242 -313.833 242 -544.5c0 -240 -77.667 -428.667 -233 -566s-369 -206 -641 -206h-198v0h-140zM485 1254v-350v0h273v-263h-273v0v-380v0h58c189.333 0 335.5 43.167 438.5 129.5
s154.5 208.5 154.5 366.5c0 158.667 -54.333 281.167 -163 367.5s-262.667 129.5 -462 129.5h-26z" />
    <glyph glyph-name="Ntilde" unicode="&#xd1;" horiz-adv-x="1516" 
d="M423 0h-140h-140v0v1515v0h161h161v0l630 -1107v0v0v1107v0h140h140v0v-1515h-154h-155l-643 1116v0v0v-1116zM357 1828c28.667 25.333 66.002 46.832 112.002 64.499s88 26.5 126 26.5c19.333 0 47.666 -4 84.999 -12s73.666 -17.667 108.999 -29
c16 -5.33301 33.833 -9.66602 53.5 -12.999s36.167 -5 49.5 -5c24.667 0 52 5 82 15s54.333 22 73 36l114 -162c-28 -28 -64.5 -51.5 -109.5 -70.5s-86.167 -28.5 -123.5 -28.5c-10 0 -34.333 4 -73 12s-80.667 18 -126 30c-16 4 -33.667 7.33301 -53 10s-35 4 -47 4
c-26 0 -54.833 -4.16699 -86.5 -12.5s-57.167 -18.5 -76.5 -30.5z" />
    <glyph glyph-name="Ograve" unicode="&#xd2;" horiz-adv-x="1720" 
d="M860 -30c-219.333 0 -406.166 76.667 -560.499 230s-231.5 339 -231.5 557c0 218.667 77.167 404.667 231.5 558s341.166 230 560.499 230c220 0 407 -76.667 561 -230s231 -339.333 231 -558c0 -218 -77 -403.667 -231 -557s-341 -230 -561 -230v0zM860 231
c142.667 0 263.5 51 362.5 153s148.5 226.333 148.5 373c0 147.333 -49.5 272 -148.5 374s-219.833 153 -362.5 153s-263.5 -51 -362.5 -153s-148.5 -226.667 -148.5 -374c0 -146.667 49.5 -271 148.5 -373s219.833 -153 362.5 -153v0zM998 1630l-464 255l119 209l453 -276z
" />
    <glyph glyph-name="Oacute" unicode="&#xd3;" horiz-adv-x="1720" 
d="M860 -30c-219.333 0 -406.166 76.667 -560.499 230s-231.5 339 -231.5 557c0 218.667 77.167 404.667 231.5 558s341.166 230 560.499 230c220 0 407 -76.667 561 -230s231 -339.333 231 -558c0 -218 -77 -403.667 -231 -557s-341 -230 -561 -230v0zM860 231
c142.667 0 263.5 51 362.5 153s148.5 226.333 148.5 373c0 147.333 -49.5 272 -148.5 374s-219.833 153 -362.5 153s-263.5 -51 -362.5 -153s-148.5 -226.667 -148.5 -374c0 -146.667 49.5 -271 148.5 -373s219.833 -153 362.5 -153v0zM619 1818l458 266l117 -212l-472 -242
z" />
    <glyph glyph-name="Ocircumflex" unicode="&#xd4;" horiz-adv-x="1720" 
d="M860 -30c-219.333 0 -406.166 76.667 -560.499 230s-231.5 339 -231.5 557c0 218.667 77.167 404.667 231.5 558s341.166 230 560.499 230c220 0 407 -76.667 561 -230s231 -339.333 231 -558c0 -218 -77 -403.667 -231 -557s-341 -230 -561 -230v0zM860 231
c142.667 0 263.5 51 362.5 153s148.5 226.333 148.5 373c0 147.333 -49.5 272 -148.5 374s-219.833 153 -362.5 153s-263.5 -51 -362.5 -153s-148.5 -226.667 -148.5 -374c0 -146.667 49.5 -271 148.5 -373s219.833 -153 362.5 -153v0zM968 1934l301 -283h-296l-113 131v0
l-113 -131h-296l301 283h108h108z" />
    <glyph glyph-name="Otilde" unicode="&#xd5;" horiz-adv-x="1720" 
d="M860 -30c-219.333 0 -406.166 76.667 -560.499 230s-231.5 339 -231.5 557c0 218.667 77.167 404.667 231.5 558s341.166 230 560.499 230c220 0 407 -76.667 561 -230s231 -339.333 231 -558c0 -218 -77 -403.667 -231 -557s-341 -230 -561 -230v0zM860 231
c142.667 0 263.5 51 362.5 153s148.5 226.333 148.5 373c0 147.333 -49.5 272 -148.5 374s-219.833 153 -362.5 153s-263.5 -51 -362.5 -153s-148.5 -226.667 -148.5 -374c0 -146.667 49.5 -271 148.5 -373s219.833 -153 362.5 -153v0zM458 1828
c28.667 25.333 66.002 46.832 112.002 64.499s88 26.5 126 26.5c19.333 0 47.666 -4 84.999 -12s73.666 -17.667 108.999 -29c16 -5.33301 33.833 -9.66602 53.5 -12.999s36.167 -5 49.5 -5c24.667 0 52 5 82 15s54.333 22 73 36l114 -162c-28 -28 -64.5 -51.5 -109.5 -70.5
s-86.167 -28.5 -123.5 -28.5c-10 0 -34.333 4 -73 12s-80.667 18 -126 30c-16 4 -33.667 7.33301 -53 10s-35 4 -47 4c-26 0 -54.833 -4.16699 -86.5 -12.5s-57.167 -18.5 -76.5 -30.5z" />
    <glyph glyph-name="Odieresis" unicode="&#xd6;" horiz-adv-x="1720" 
d="M860 -30c-219.333 0 -406.166 76.667 -560.499 230s-231.5 339 -231.5 557c0 218.667 77.167 404.667 231.5 558s341.166 230 560.499 230c220 0 407 -76.667 561 -230s231 -339.333 231 -558c0 -218 -77 -403.667 -231 -557s-341 -230 -561 -230v0zM860 231
c142.667 0 263.5 51 362.5 153s148.5 226.333 148.5 373c0 147.333 -49.5 272 -148.5 374s-219.833 153 -362.5 153s-263.5 -51 -362.5 -153s-148.5 -226.667 -148.5 -374c0 -146.667 49.5 -271 148.5 -373s219.833 -153 362.5 -153v0zM508 1923h274v-272h-274v272z
M938 1923h274v-272h-274v272z" />
    <glyph glyph-name="multiply" unicode="&#xd7;" horiz-adv-x="1229" 
d="M614 342l-319 -320l-174 174l320 319l-320 319l174 174l319 -320l319 320l174 -174l-320 -319l320 -319l-174 -174z" />
    <glyph glyph-name="Oslash" unicode="&#xd8;" horiz-adv-x="1720" 
d="M860 607l-291.999 -283.001c84 -62 181.333 -93 292 -93v0c142.667 0 263.5 51 362.5 153s148.5 226.333 148.5 373c-0.666992 102.667 -24.334 194.334 -71.001 275.001zM860.001 -30.001c-185.333 0 -347.999 54.666 -487.999 163.999l-138 -134l-166 143l152 147
c-101.333 134.667 -152 290.334 -152 467.001c0 218.667 77.167 404.667 231.5 558s341.166 230 560.499 230c186.667 0.666992 349 -54.333 487 -165l139 135l166 -143l-152 -147c101.333 -134.667 152 -290.667 152 -468c0 -218 -77 -403.667 -231 -557
s-341 -230 -561 -230v0zM860.002 1284c-142.667 0 -263.501 -51.001 -362.501 -153.001s-148.5 -226.667 -148.5 -374c0 -101.333 23.667 -192.666 71 -273.999l440 425l292 283c-83.333 62.667 -180.666 93.667 -291.999 93z" />
    <glyph glyph-name="Ugrave" unicode="&#xd9;" horiz-adv-x="1311" 
d="M1198 567c0 -191.333 -46.834 -338.666 -140.501 -441.999s-227.5 -155 -401.5 -155c-173.333 0 -307.166 51.667 -401.499 155s-141.5 250.666 -141.5 441.999v948v0h140h140v0v-961c0 -108 21.833 -188.833 65.5 -242.5s109.5 -80.5 197.5 -80.5
c87.333 0 152.833 26.833 196.5 80.5s65.5 134.5 65.5 242.5v961v0h140h140v0v-948zM792.999 1630l-464 255l119 209l453 -276z" />
    <glyph glyph-name="Uacute" unicode="&#xda;" horiz-adv-x="1311" 
d="M1198 567c0 -191.333 -46.834 -338.666 -140.501 -441.999s-227.5 -155 -401.5 -155c-173.333 0 -307.166 51.667 -401.499 155s-141.5 250.666 -141.5 441.999v948v0h140h140v0v-961c0 -108 21.833 -188.833 65.5 -242.5s109.5 -80.5 197.5 -80.5
c87.333 0 152.833 26.833 196.5 80.5s65.5 134.5 65.5 242.5v961v0h140h140v0v-948zM413.999 1818l458 266l117 -212l-472 -242z" />
    <glyph glyph-name="Ucircumflex" unicode="&#xdb;" horiz-adv-x="1311" 
d="M1198 567c0 -191.333 -46.834 -338.666 -140.501 -441.999s-227.5 -155 -401.5 -155c-173.333 0 -307.166 51.667 -401.499 155s-141.5 250.666 -141.5 441.999v948v0h140h140v0v-961c0 -108 21.833 -188.833 65.5 -242.5s109.5 -80.5 197.5 -80.5
c87.333 0 152.833 26.833 196.5 80.5s65.5 134.5 65.5 242.5v961v0h140h140v0v-948zM762.999 1934l301 -283h-296l-113 131v0l-113 -131h-296l301 283h108h108z" />
    <glyph glyph-name="Udieresis" unicode="&#xdc;" horiz-adv-x="1311" 
d="M1198 567c0 -191.333 -46.834 -338.666 -140.501 -441.999s-227.5 -155 -401.5 -155c-173.333 0 -307.166 51.667 -401.499 155s-141.5 250.666 -141.5 441.999v948v0h140h140v0v-961c0 -108 21.833 -188.833 65.5 -242.5s109.5 -80.5 197.5 -80.5
c87.333 0 152.833 26.833 196.5 80.5s65.5 134.5 65.5 242.5v961v0h140h140v0v-948zM302.999 1923h274v-272h-274v272zM732.999 1923h274v-272h-274v272z" />
    <glyph glyph-name="Yacute" unicode="&#xdd;" horiz-adv-x="1270" 
d="M495 564l-498 951v0h152h152v0l336 -704v0l332 704v0h152h152v0l-498 -951v0v-564h-140h-140v564zM394 1818l458 266l117 -212l-472 -242z" />
    <glyph glyph-name="Thorn" unicode="&#xde;" horiz-adv-x="1147" 
d="M147 0v1515v0h141h141v0v-287v0l122 -1c190.667 0 332.5 -38.667 425.5 -116s139.5 -195.333 139.5 -354c0 -158 -46.5 -275.667 -139.5 -353s-234.833 -116 -425.5 -116l-122 1v0v-289v0h-141h-141v0zM838 761c0 70.667 -23.5 123 -70.5 157s-118.833 51 -215.5 51h-123
v0v-415v0h123c96.667 0 168.667 17 216 51c46.667 34 70 86 70 156z" />
    <glyph glyph-name="germandbls" unicode="&#xdf;" horiz-adv-x="1229" 
d="M378 1062v-1062v0h-137h-137v0v1062v26c19.333 136.667 69.666 247 150.999 331s178.333 126 291 126c126.667 0 234.334 -38.667 323.001 -116s133 -171 133 -281c0 -139.333 -37.667 -241 -113 -305l-9 -8c61.333 -16.667 113 -40.667 155 -72
c108.667 -77.333 163 -196.666 163 -357.999c0 -122.667 -42.5 -227.167 -127.5 -313.5s-188.167 -129.5 -309.5 -129.5c-156.667 0 -273.834 38 -351.501 114s-106.167 180.333 -85.5 313v0h231v0c0 -46 18.833 -87.167 56.5 -123.5s80.5 -54.5 128.5 -54.5
c51.333 0 94.833 19.333 130.5 58s53.5 85.334 53.5 140.001c0 85.333 -30.167 146.333 -90.5 183s-163.166 56 -308.499 58v239c70 1.33301 121.333 20.333 154 57s49 94 49 172c0 49.333 -15.833 91.5 -47.5 126.5s-70.167 52.5 -115.5 52.5c-62 0 -107 -17.667 -135 -53
s-45.333 -96 -52 -182z" />
    <glyph glyph-name="agrave" unicode="&#xe0;" horiz-adv-x="1352" 
d="M619 -38c-156 0 -288.998 58.833 -398.998 176.5s-165 260.5 -165 428.5s55 311.167 165 429.5s243.333 177.5 400 177.5c151.333 0 279.666 -54.333 384.999 -163v0v125v0h251v0v-1136v0h-125h-126v0v124v0c-106.667 -107.333 -235.334 -161.333 -386.001 -162z
M664.002 927c-95.333 0 -174.999 -34.5 -238.999 -103.5s-96 -154.5 -96 -256.5c0 -101.333 32 -186.333 96 -255s143.333 -103 238 -103c95.333 0 175.166 34.333 239.499 103s96.5 154 96.5 256s-32 187.333 -96 256s-143.667 103 -239 103zM813.003 1282l-464 255
l119 209l453 -276z" />
    <glyph glyph-name="aacute" unicode="&#xe1;" horiz-adv-x="1352" 
d="M619 -38c-156 0 -288.998 58.833 -398.998 176.5s-165 260.5 -165 428.5s55 311.167 165 429.5s243.333 177.5 400 177.5c151.333 0 279.666 -54.333 384.999 -163v0v125v0h251v0v-1136v0h-125h-126v0v124v0c-106.667 -107.333 -235.334 -161.333 -386.001 -162z
M664.002 927c-95.333 0 -174.999 -34.5 -238.999 -103.5s-96 -154.5 -96 -256.5c0 -101.333 32 -186.333 96 -255s143.333 -103 238 -103c95.333 0 175.166 34.333 239.499 103s96.5 154 96.5 256s-32 187.333 -96 256s-143.667 103 -239 103zM439.003 1470l458 266
l117 -212l-472 -242z" />
    <glyph glyph-name="acircumflex" unicode="&#xe2;" horiz-adv-x="1352" 
d="M619 -38c-156 0 -288.998 58.833 -398.998 176.5s-165 260.5 -165 428.5s55 311.167 165 429.5s243.333 177.5 400 177.5c151.333 0 279.666 -54.333 384.999 -163v0v125v0h251v0v-1136v0h-125h-126v0v124v0c-106.667 -107.333 -235.334 -161.333 -386.001 -162z
M664.002 927c-95.333 0 -174.999 -34.5 -238.999 -103.5s-96 -154.5 -96 -256.5c0 -101.333 32 -186.333 96 -255s143.333 -103 238 -103c95.333 0 175.166 34.333 239.499 103s96.5 154 96.5 256s-32 187.333 -96 256s-143.667 103 -239 103zM800.003 1586l301 -283h-296
l-113 131v0l-113 -131h-296l301 283h108h108z" />
    <glyph glyph-name="atilde" unicode="&#xe3;" horiz-adv-x="1352" 
d="M619 -38c-156 0 -288.998 58.833 -398.998 176.5s-165 260.5 -165 428.5s55 311.167 165 429.5s243.333 177.5 400 177.5c151.333 0 279.666 -54.333 384.999 -163v0v125v0h251v0v-1136v0h-125h-126v0v124v0c-106.667 -107.333 -235.334 -161.333 -386.001 -162z
M664.002 927c-95.333 0 -174.999 -34.5 -238.999 -103.5s-96 -154.5 -96 -256.5c0 -101.333 32 -186.333 96 -255s143.333 -103 238 -103c95.333 0 175.166 34.333 239.499 103s96.5 154 96.5 256s-32 187.333 -96 256s-143.667 103 -239 103zM290.003 1480
c28.667 25.333 66.002 46.832 112.002 64.499s88 26.5 126 26.5c19.333 0 47.666 -4 84.999 -12s73.666 -17.667 108.999 -29c16 -5.33301 33.833 -9.66602 53.5 -12.999s36.167 -5 49.5 -5c24.667 0 52 5 82 15s54.333 22 73 36l114 -162c-28 -28 -64.5 -51.5 -109.5 -70.5
s-86.167 -28.5 -123.5 -28.5c-10 0 -34.333 4 -73 12s-80.667 18 -126 30c-16 4 -33.667 7.33301 -53 10s-35 4 -47 4c-26 0 -54.833 -4.16699 -86.5 -12.5s-57.167 -18.5 -76.5 -30.5z" />
    <glyph glyph-name="adieresis" unicode="&#xe4;" horiz-adv-x="1352" 
d="M619 -38c-156 0 -288.998 58.833 -398.998 176.5s-165 260.5 -165 428.5s55 311.167 165 429.5s243.333 177.5 400 177.5c151.333 0 279.666 -54.333 384.999 -163v0v125v0h251v0v-1136v0h-125h-126v0v124v0c-106.667 -107.333 -235.334 -161.333 -386.001 -162z
M664.002 927c-95.333 0 -174.999 -34.5 -238.999 -103.5s-96 -154.5 -96 -256.5c0 -101.333 32 -186.333 96 -255s143.333 -103 238 -103c95.333 0 175.166 34.333 239.499 103s96.5 154 96.5 256s-32 187.333 -96 256s-143.667 103 -239 103zM340.003 1575h274v-272h-274
v272zM770.003 1575h274v-272h-274v272z" />
    <glyph glyph-name="aring" unicode="&#xe5;" horiz-adv-x="1352" 
d="M619 -38c-156 0 -288.998 58.833 -398.998 176.5s-165 260.5 -165 428.5s55 311.167 165 429.5s243.333 177.5 400 177.5c151.333 0 279.666 -54.333 384.999 -163v0v125v0h251v0v-1136v0h-125h-126v0v124v0c-106.667 -107.333 -235.334 -161.333 -386.001 -162z
M664.002 927c-95.333 0 -174.999 -34.5 -238.999 -103.5s-96 -154.5 -96 -256.5c0 -101.333 32 -186.333 96 -255s143.333 -103 238 -103c95.333 0 175.166 34.333 239.499 103s96.5 154 96.5 256s-32 187.333 -96 256s-143.667 103 -239 103zM679.003 1268
c-61.333 0 -113.333 21.333 -156 64s-64 94.667 -64 156s21.333 113.333 64 156s94.667 64 156 64s113.333 -21.333 156 -64s64 -94.667 64 -156s-21.333 -113.333 -64 -156s-94.667 -64 -156 -64v0zM679.003 1405c23.333 0 43 8 59 24s24 35.667 24 59s-8 43 -24 59
s-35.667 24 -59 24s-43 -8 -59 -24s-24 -35.667 -24 -59s8 -43 24 -59s35.667 -24 59 -24v0z" />
    <glyph glyph-name="ae" unicode="&#xe6;" horiz-adv-x="2212" 
d="M638 1174c146 -0.666992 263.666 -46.667 352.999 -138v0v100v0h251v0v-104v0c98 94 213.667 141.333 347 142c154.667 0 286.167 -59.167 394.5 -177.5s162.5 -261.5 162.5 -429.5c0 -41.333 -3 -81.333 -9 -120v0h-880v0c15.333 -49.333 41.333 -94 78 -134
c63.333 -68 141.666 -102 234.999 -102c58 0 110.833 13.333 158.5 40s82.834 62.334 105.501 107.001v0h279v0c-34.667 -112.667 -103.167 -206.834 -205.5 -282.501s-212.166 -113.5 -329.499 -113.5c-127.333 0 -239.333 46.333 -336 139v0v-101v0h-125h-126v0v100v0
c-90 -91.333 -207.667 -137.333 -353 -138c-160 0 -296.5 58.833 -409.5 176.5s-169.5 260.5 -169.5 428.5s56.667 311.333 170 430c112.667 118 249 177 409 177zM658.999 927c-92.667 0 -170.168 -34.3311 -232.501 -102.998s-93.5 -153.667 -93.5 -255
s31.167 -186 93.5 -254s139.5 -102 231.5 -102c92.667 0 170.334 34.167 233.001 102.5s94 153.166 94 254.499s-31.167 186.166 -93.5 254.499s-139.833 102.5 -232.5 102.5zM1876 665.002c-12.667 62.667 -39.333 116.332 -80 160.999c-59.333 66 -137 99 -233 99
c-92 0 -169 -34.333 -231 -103c-40 -45.333 -67.333 -97.666 -82 -156.999v0h626z" />
    <glyph glyph-name="ccedilla" unicode="&#xe7;" horiz-adv-x="1311" 
d="M1244 370c-38 -124 -108.502 -223.001 -211.502 -297.001s-221.5 -111 -355.5 -111c-166.667 0 -308.5 58.833 -425.5 176.5s-175.5 260.5 -175.5 428.5s58.5 311.167 175.5 429.5s258.833 177.5 425.5 177.5c135.333 0 255 -37.5 359 -112.5
s175.333 -175.167 214 -300.5v0h-304v0c-26 53.333 -62.167 94 -108.5 122s-100.833 42 -163.5 42c-90 0 -166.5 -34 -229.5 -102s-94.5 -150.667 -94.5 -248c0 -103.333 32.333 -189.833 97 -259.5s144.667 -104.5 240 -104.5c52.667 0 101.834 14.333 147.501 43
s80.834 67.334 105.501 116.001v0h304zM690.998 -2.00098l-48.001 -107.998v0l51 2c56 0 101.667 -19.333 137 -58s53 -88.334 53 -149.001c0 -58.667 -19.167 -106.5 -57.5 -143.5s-87.5 -55.5 -147.5 -55.5c-55.333 0 -102.5 17 -141.5 51s-60.5 76.667 -64.5 128h109
c6 -24 17.333 -42.667 34 -56s37.334 -20 62.001 -20c28.667 0 51.667 9 69 27s26 41.667 26 71s-9 53.666 -27 72.999s-40.667 29 -68 29c-21.333 0 -40.333 -4.33301 -57 -13s-27.667 -19.667 -33 -33l-99 39l99 230z" />
    <glyph glyph-name="egrave" unicode="&#xe8;" horiz-adv-x="1311" 
d="M656 -38c-164 0 -303.835 58.833 -419.502 176.5s-173.5 260.5 -173.5 428.5s57.833 311.167 173.5 429.5s255.5 177.5 419.5 177.5c164.667 0 304.834 -59.167 420.501 -177.5s173.5 -261.5 173.5 -429.5c0 -40.667 -3.33301 -80.667 -10 -120v0h-886v0
c15.333 -49.333 41 -94 77 -134c62 -68 139.333 -102 232 -102c57.333 0 109.833 13.333 157.5 40s82.834 62.334 105.501 107.001v0h288v0c-36.667 -120.667 -105.667 -216.834 -207 -288.501s-218.333 -107.5 -351 -107.5zM964.998 665
c-13.333 60 -40.334 112.332 -81.001 156.999c-61.333 68.667 -137.333 103 -228 103s-166.667 -34.333 -228 -103c-39.333 -45.333 -66.666 -97.666 -81.999 -156.999v0h619zM800.997 1282l-464 255l119 209l453 -276z" />
    <glyph glyph-name="eacute" unicode="&#xe9;" horiz-adv-x="1311" 
d="M656 -38c-164 0 -303.835 58.833 -419.502 176.5s-173.5 260.5 -173.5 428.5s57.833 311.167 173.5 429.5s255.5 177.5 419.5 177.5c164.667 0 304.834 -59.167 420.501 -177.5s173.5 -261.5 173.5 -429.5c0 -40.667 -3.33301 -80.667 -10 -120v0h-886v0
c15.333 -49.333 41 -94 77 -134c62 -68 139.333 -102 232 -102c57.333 0 109.833 13.333 157.5 40s82.834 62.334 105.501 107.001v0h288v0c-36.667 -120.667 -105.667 -216.834 -207 -288.501s-218.333 -107.5 -351 -107.5zM964.998 665
c-13.333 60 -40.334 112.332 -81.001 156.999c-61.333 68.667 -137.333 103 -228 103s-166.667 -34.333 -228 -103c-39.333 -45.333 -66.666 -97.666 -81.999 -156.999v0h619zM426.997 1470l458 266l117 -212l-472 -242z" />
    <glyph glyph-name="ecircumflex" unicode="&#xea;" horiz-adv-x="1311" 
d="M656 -38c-164 0 -303.835 58.833 -419.502 176.5s-173.5 260.5 -173.5 428.5s57.833 311.167 173.5 429.5s255.5 177.5 419.5 177.5c164.667 0 304.834 -59.167 420.501 -177.5s173.5 -261.5 173.5 -429.5c0 -40.667 -3.33301 -80.667 -10 -120v0h-886v0
c15.333 -49.333 41 -94 77 -134c62 -68 139.333 -102 232 -102c57.333 0 109.833 13.333 157.5 40s82.834 62.334 105.501 107.001v0h288v0c-36.667 -120.667 -105.667 -216.834 -207 -288.501s-218.333 -107.5 -351 -107.5zM964.998 665
c-13.333 60 -40.334 112.332 -81.001 156.999c-61.333 68.667 -137.333 103 -228 103s-166.667 -34.333 -228 -103c-39.333 -45.333 -66.666 -97.666 -81.999 -156.999v0h619zM787.997 1586l301 -283h-296l-113 131v0l-113 -131h-296l301 283h108h108z" />
    <glyph glyph-name="edieresis" unicode="&#xeb;" horiz-adv-x="1311" 
d="M656 -38c-164 0 -303.835 58.833 -419.502 176.5s-173.5 260.5 -173.5 428.5s57.833 311.167 173.5 429.5s255.5 177.5 419.5 177.5c164.667 0 304.834 -59.167 420.501 -177.5s173.5 -261.5 173.5 -429.5c0 -40.667 -3.33301 -80.667 -10 -120v0h-886v0
c15.333 -49.333 41 -94 77 -134c62 -68 139.333 -102 232 -102c57.333 0 109.833 13.333 157.5 40s82.834 62.334 105.501 107.001v0h288v0c-36.667 -120.667 -105.667 -216.834 -207 -288.501s-218.333 -107.5 -351 -107.5zM964.998 665
c-13.333 60 -40.334 112.332 -81.001 156.999c-61.333 68.667 -137.333 103 -228 103s-166.667 -34.333 -228 -103c-39.333 -45.333 -66.666 -97.666 -81.999 -156.999v0h619zM327.997 1575h274v-272h-274v272zM757.997 1575h274v-272h-274v272z" />
    <glyph glyph-name="igrave" unicode="&#xec;" horiz-adv-x="492" 
d="M75 0v1136v0h136h137v0v-1136v0h-136h-137v0zM332 1282l-464 255l119 209l453 -276z" />
    <glyph glyph-name="iacute" unicode="&#xed;" horiz-adv-x="492" 
d="M117 0v1136v0h136h137v0v-1136v0h-136h-137v0zM53 1470l458 266l117 -212l-472 -242z" />
    <glyph glyph-name="icircumflex" unicode="&#xee;" horiz-adv-x="492" 
d="M112 0v1136v0h136h137v0v-1136v0h-136h-137v0zM356 1586l301 -283h-296l-113 131v0l-113 -131h-296l301 283h108h108z" />
    <glyph glyph-name="idieresis" unicode="&#xef;" horiz-adv-x="492" 
d="M111 0v1136v0h136h137v0v-1136v0h-136h-137v0zM-105 1575h274v-272h-274v272zM325 1575h274v-272h-274v272z" />
    <glyph glyph-name="eth" unicode="&#xf0;" horiz-adv-x="1311" 
d="M658 -38c-166.667 0 -308.832 59 -426.499 177s-176.5 261 -176.5 429s58.833 311.167 176.5 429.5s259.834 177.5 426.501 177.5c40 0 78.333 -3.33301 115 -10v0c-46.667 32.667 -95 64.667 -145 96l-306 -90l-182 116l284 83c-62 32 -128 62 -198 90l311 85
c65.333 -27.333 126.666 -57 183.999 -89l284 83l160 -121l-269 -79c67.333 -54.667 126.666 -114.667 177.999 -180c125.333 -160.667 188 -341 188 -541c0 -188 -57.333 -344.333 -172 -469s-258.667 -187 -432 -187zM329.002 568
c0 -101.333 31.499 -186.166 94.499 -254.499s141.167 -102.5 234.5 -102.5s171.666 34.167 234.999 102.5s95 153.166 95 254.499s-31.667 186.333 -95 255s-141.666 103 -234.999 103s-171.666 -34.333 -234.999 -103c-62.667 -68.667 -94 -153.667 -94 -255z" />
    <glyph glyph-name="ntilde" unicode="&#xf1;" horiz-adv-x="1229" 
d="M111 0v1136v0h127h127v0v-98v0v0c88 90.667 193.333 136 316 136c134.667 0 241.5 -45.5 320.5 -136.5s118.5 -213.833 118.5 -368.5v-669v0h-136h-137v0v608c0 104 -19.333 183 -58 237s-95 81 -169 81c-78.667 0 -137.667 -27.333 -177 -82s-59 -136.667 -59 -246v0
v-598v0h-136h-137v0zM213 1480c28.667 25.333 66.002 46.832 112.002 64.499s88 26.5 126 26.5c19.333 0 47.666 -4 84.999 -12s73.666 -17.667 108.999 -29c16 -5.33301 33.833 -9.66602 53.5 -12.999s36.167 -5 49.5 -5c24.667 0 52 5 82 15s54.333 22 73 36l114 -162
c-28 -28 -64.5 -51.5 -109.5 -70.5s-86.167 -28.5 -123.5 -28.5c-10 0 -34.333 4 -73 12s-80.667 18 -126 30c-16 4 -33.667 7.33301 -53 10s-35 4 -47 4c-26 0 -54.833 -4.16699 -86.5 -12.5s-57.167 -18.5 -76.5 -30.5z" />
    <glyph glyph-name="ograve" unicode="&#xf2;" horiz-adv-x="1311" 
d="M655 -38c-167.333 0 -309.833 58.833 -427.5 176.5s-176.5 260.5 -176.5 428.5s58.833 311.167 176.5 429.5s260.167 177.5 427.5 177.5c168 0 310.833 -59.167 428.5 -177.5s176.5 -261.5 176.5 -429.5s-58.833 -310.833 -176.5 -428.5s-260.5 -176.5 -428.5 -176.5v0z
M655 211c94 0 172.667 34 236 102s95 152.667 95 254s-31.667 186.333 -95 255s-142 103 -236 103c-93.333 0 -171.666 -34.333 -234.999 -103s-95 -153.667 -95 -255s31.667 -186 95 -254s141.666 -102 234.999 -102v0zM776 1282l-464 255l119 209l453 -276z" />
    <glyph glyph-name="oacute" unicode="&#xf3;" horiz-adv-x="1311" 
d="M655 -38c-167.333 0 -309.833 58.833 -427.5 176.5s-176.5 260.5 -176.5 428.5s58.833 311.167 176.5 429.5s260.167 177.5 427.5 177.5c168 0 310.833 -59.167 428.5 -177.5s176.5 -261.5 176.5 -429.5s-58.833 -310.833 -176.5 -428.5s-260.5 -176.5 -428.5 -176.5v0z
M655 211c94 0 172.667 34 236 102s95 152.667 95 254s-31.667 186.333 -95 255s-142 103 -236 103c-93.333 0 -171.666 -34.333 -234.999 -103s-95 -153.667 -95 -255s31.667 -186 95 -254s141.666 -102 234.999 -102v0zM402 1470l458 266l117 -212l-472 -242z" />
    <glyph glyph-name="ocircumflex" unicode="&#xf4;" horiz-adv-x="1311" 
d="M655 -38c-167.333 0 -309.833 58.833 -427.5 176.5s-176.5 260.5 -176.5 428.5s58.833 311.167 176.5 429.5s260.167 177.5 427.5 177.5c168 0 310.833 -59.167 428.5 -177.5s176.5 -261.5 176.5 -429.5s-58.833 -310.833 -176.5 -428.5s-260.5 -176.5 -428.5 -176.5v0z
M655 211c94 0 172.667 34 236 102s95 152.667 95 254s-31.667 186.333 -95 255s-142 103 -236 103c-93.333 0 -171.666 -34.333 -234.999 -103s-95 -153.667 -95 -255s31.667 -186 95 -254s141.666 -102 234.999 -102v0zM763 1586l301 -283h-296l-113 131v0l-113 -131h-296
l301 283h108h108z" />
    <glyph glyph-name="otilde" unicode="&#xf5;" horiz-adv-x="1311" 
d="M655 -38c-167.333 0 -309.833 58.833 -427.5 176.5s-176.5 260.5 -176.5 428.5s58.833 311.167 176.5 429.5s260.167 177.5 427.5 177.5c168 0 310.833 -59.167 428.5 -177.5s176.5 -261.5 176.5 -429.5s-58.833 -310.833 -176.5 -428.5s-260.5 -176.5 -428.5 -176.5v0z
M655 211c94 0 172.667 34 236 102s95 152.667 95 254s-31.667 186.333 -95 255s-142 103 -236 103c-93.333 0 -171.666 -34.333 -234.999 -103s-95 -153.667 -95 -255s31.667 -186 95 -254s141.666 -102 234.999 -102v0zM253 1480
c28.667 25.333 66.002 46.832 112.002 64.499s88 26.5 126 26.5c19.333 0 47.666 -4 84.999 -12s73.666 -17.667 108.999 -29c16 -5.33301 33.833 -9.66602 53.5 -12.999s36.167 -5 49.5 -5c24.667 0 52 5 82 15s54.333 22 73 36l114 -162c-28 -28 -64.5 -51.5 -109.5 -70.5
s-86.167 -28.5 -123.5 -28.5c-10 0 -34.333 4 -73 12s-80.667 18 -126 30c-16 4 -33.667 7.33301 -53 10s-35 4 -47 4c-26 0 -54.833 -4.16699 -86.5 -12.5s-57.167 -18.5 -76.5 -30.5z" />
    <glyph glyph-name="odieresis" unicode="&#xf6;" horiz-adv-x="1311" 
d="M655 -38c-167.333 0 -309.833 58.833 -427.5 176.5s-176.5 260.5 -176.5 428.5s58.833 311.167 176.5 429.5s260.167 177.5 427.5 177.5c168 0 310.833 -59.167 428.5 -177.5s176.5 -261.5 176.5 -429.5s-58.833 -310.833 -176.5 -428.5s-260.5 -176.5 -428.5 -176.5v0z
M655 211c94 0 172.667 34 236 102s95 152.667 95 254s-31.667 186.333 -95 255s-142 103 -236 103c-93.333 0 -171.666 -34.333 -234.999 -103s-95 -153.667 -95 -255s31.667 -186 95 -254s141.666 -102 234.999 -102v0zM303 1575h274v-272h-274v272zM733 1575h274v-272
h-274v272z" />
    <glyph glyph-name="divide" unicode="&#xf7;" horiz-adv-x="1229" 
d="M490 202h248v-246h-248v246zM98 638h1032v-246h-1032v246zM490 1074h248v-246h-248v246z" />
    <glyph glyph-name="oslash" unicode="&#xf8;" horiz-adv-x="1352" 
d="M676 448l-188 -178c54 -39.333 116.667 -59 188 -59v0c94 0 172.667 34 236 102s95 152.667 95 254c0 60.667 -11.333 115 -34 163zM676 -38c-144 0.666992 -269.333 43.6689 -376 129.002l-97 -91l-131 116l108 102c-72 101.333 -108 217.666 -108 348.999
c0 168 58.833 311.167 176.5 429.5s260.167 177.5 427.5 177.5c144 0 269.333 -43.333 376 -130l97 92l131 -116l-108 -103c72.667 -100.667 109 -217.334 109 -350.001c0 -168 -58.833 -310.833 -176.5 -428.5s-260.5 -176.5 -428.5 -176.5v0zM676 925.002
c-93.333 0 -171.668 -34.333 -235.001 -103s-95 -153.667 -95 -255c0.666992 -60 11.334 -113.667 32.001 -161l298 282l188 178c-53.333 39.333 -116 59 -188 59z" />
    <glyph glyph-name="ugrave" unicode="&#xf9;" horiz-adv-x="1229" 
d="M375 1136l-0.000976562 -607c0 -104 19.333 -183.167 58 -237.5s95.334 -81.5 170.001 -81.5c79.333 0 138.833 27.333 178.5 82s59.5 136.667 59.5 246v0v598v0h136h137v0v-1136v0h-127h-127v0v101v0v0c-86 -92.667 -192 -139 -318 -139
c-134.667 0 -241.667 45.5 -321 136.5s-119 214.167 -119 369.5v668v0h136h137v0zM728.999 1282l-464 255l119 209l453 -276z" />
    <glyph glyph-name="uacute" unicode="&#xfa;" horiz-adv-x="1229" 
d="M375 1136l-0.000976562 -607c0 -104 19.333 -183.167 58 -237.5s95.334 -81.5 170.001 -81.5c79.333 0 138.833 27.333 178.5 82s59.5 136.667 59.5 246v0v598v0h136h137v0v-1136v0h-127h-127v0v101v0v0c-86 -92.667 -192 -139 -318 -139
c-134.667 0 -241.667 45.5 -321 136.5s-119 214.167 -119 369.5v668v0h136h137v0zM354.999 1470l458 266l117 -212l-472 -242z" />
    <glyph glyph-name="ucircumflex" unicode="&#xfb;" horiz-adv-x="1229" 
d="M375 1136l-0.000976562 -607c0 -104 19.333 -183.167 58 -237.5s95.334 -81.5 170.001 -81.5c79.333 0 138.833 27.333 178.5 82s59.5 136.667 59.5 246v0v598v0h136h137v0v-1136v0h-127h-127v0v101v0v0c-86 -92.667 -192 -139 -318 -139
c-134.667 0 -241.667 45.5 -321 136.5s-119 214.167 -119 369.5v668v0h136h137v0zM715.999 1586l301 -283h-296l-113 131v0l-113 -131h-296l301 283h108h108z" />
    <glyph glyph-name="udieresis" unicode="&#xfc;" horiz-adv-x="1229" 
d="M375 1136l-0.000976562 -607c0 -104 19.333 -183.167 58 -237.5s95.334 -81.5 170.001 -81.5c79.333 0 138.833 27.333 178.5 82s59.5 136.667 59.5 246v0v598v0h136h137v0v-1136v0h-127h-127v0v101v0v0c-86 -92.667 -192 -139 -318 -139
c-134.667 0 -241.667 45.5 -321 136.5s-119 214.167 -119 369.5v668v0h136h137v0zM255.999 1575h274v-272h-274v272zM685.999 1575h274v-272h-274v272z" />
    <glyph glyph-name="yacute" unicode="&#xfd;" horiz-adv-x="1188" 
d="M1170 1136l-660 -1519v0h-144h-145v0l211 484v0l-416 1035v0h154h154v0l259 -742v0v0l278 742v0h154h155v0zM340 1470l458 266l117 -212l-472 -242z" />
    <glyph glyph-name="thorn" unicode="&#xfe;" horiz-adv-x="1352" 
d="M96 1515h135.999h137v0v-499v0c102 105.333 227.667 158 377 158c150.667 0 278.834 -59.167 384.501 -177.5s158.5 -261.5 158.5 -429.5s-53.167 -310.833 -159.5 -428.5s-235.5 -176.5 -387.5 -176.5c-150 0 -274.333 48 -373 144v0v-485v0h-136h-137v0v1894z
M682.999 209c94 0 172.834 34.333 236.501 103s95.5 153.667 95.5 255c0 102 -31.667 187.5 -95 256.5s-142 103.5 -236 103.5s-172.667 -34.333 -236 -103s-95 -154 -95 -256v0v0v0c0 -102 31.667 -187.333 95 -256s141.666 -103 234.999 -103z" />
    <glyph glyph-name="ydieresis" unicode="&#xff;" horiz-adv-x="1188" 
d="M1170 1136l-660 -1519v0h-144h-145v0l211 484v0l-416 1035v0h154h154v0l259 -742v0v0l278 742v0h154h155v0zM241 1575h274v-272h-274v272zM671 1575h274v-272h-274v272z" />
    <glyph glyph-name="Amacron" unicode="&#x100;" horiz-adv-x="1516" 
d="M14 0l634 1515h109h109l634 -1515v0h-153h-154v0l-151 391v0h-572v0l-147 -391v0h-154h-155v0zM754 1136l-184 -484v0h372v0l-188 484v0v0zM427 1889h660v-216h-660v216z" />
    <glyph glyph-name="amacron" unicode="&#x101;" horiz-adv-x="1352" 
d="M619 -38c-156 0 -288.998 58.833 -398.998 176.5s-165 260.5 -165 428.5s55 311.167 165 429.5s243.333 177.5 400 177.5c151.333 0 279.666 -54.333 384.999 -163v0v125v0h251v0v-1136v0h-125h-126v0v124v0c-106.667 -107.333 -235.334 -161.333 -386.001 -162z
M664.002 927c-95.333 0 -174.999 -34.5 -238.999 -103.5s-96 -154.5 -96 -256.5c0 -101.333 32 -186.333 96 -255s143.333 -103 238 -103c95.333 0 175.166 34.333 239.499 103s96.5 154 96.5 256s-32 187.333 -96 256s-143.667 103 -239 103zM362.003 1519h660v-216h-660
v216z" />
    <glyph glyph-name="Abreve" unicode="&#x102;" horiz-adv-x="1516" 
d="M14 0l634 1515h109h109l634 -1515v0h-153h-154v0l-151 391v0h-572v0l-147 -391v0h-154h-155v0zM754 1136l-184 -484v0h372v0l-188 484v0v0zM757 1645c-116.667 0 -209.167 23.5 -277.5 70.5s-111.166 116.833 -128.499 209.5h222
c11.333 -23.333 34.666 -42.833 69.999 -58.5s73.333 -23.5 114 -23.5c41.333 0 79.666 7.83301 114.999 23.5s58.666 35.167 69.999 58.5h222c-17.333 -92.667 -60.166 -162.5 -128.499 -209.5s-161.166 -70.5 -278.499 -70.5z" />
    <glyph glyph-name="abreve" unicode="&#x103;" horiz-adv-x="1352" 
d="M619 -38c-156 0 -288.998 58.833 -398.998 176.5s-165 260.5 -165 428.5s55 311.167 165 429.5s243.333 177.5 400 177.5c151.333 0 279.666 -54.333 384.999 -163v0v125v0h251v0v-1136v0h-125h-126v0v124v0c-106.667 -107.333 -235.334 -161.333 -386.001 -162z
M664.002 927c-95.333 0 -174.999 -34.5 -238.999 -103.5s-96 -154.5 -96 -256.5c0 -101.333 32 -186.333 96 -255s143.333 -103 238 -103c95.333 0 175.166 34.333 239.499 103s96.5 154 96.5 256s-32 187.333 -96 256s-143.667 103 -239 103zM692.003 1297
c-116.667 0 -209.167 23.5 -277.5 70.5s-111.166 116.833 -128.499 209.5h222c11.333 -23.333 34.666 -42.833 69.999 -58.5s73.333 -23.5 114 -23.5c41.333 0 79.666 7.83301 114.999 23.5s58.666 35.167 69.999 58.5h222c-17.333 -92.667 -60.166 -162.5 -128.499 -209.5
s-161.166 -70.5 -278.499 -70.5z" />
    <glyph glyph-name="Aogonek" unicode="&#x104;" horiz-adv-x="1516" 
d="M14 0l634 1515h109h109l634 -1515v0h-153h-154v0l-151 391v0h-572v0l-147 -391v0h-154h-155v0zM754 1136l-184 -484v0h372v0l-188 484v0v0zM1051 -198c0 40 16.168 79.833 48.501 119.5s75.166 71.834 128.499 96.501h142c-54.667 -41.333 -90.5 -72 -107.5 -92
s-25.5 -42.333 -25.5 -67c0 -28 9.83301 -50.667 29.5 -68s45.5 -26 77.5 -26c14 0 28 2.16699 42 6.5s26.667 10.166 38 17.499v-160c-18 -8 -39.5 -14.5 -64.5 -19.5s-49.5 -7.5 -73.5 -7.5c-72 0 -129.333 18 -172 54c-42 36 -63 84.667 -63 146z" />
    <glyph glyph-name="aogonek" unicode="&#x105;" horiz-adv-x="1352" 
d="M619 -38c-156 0 -288.998 58.833 -398.998 176.5s-165 260.5 -165 428.5s55 311.167 165 429.5s243.333 177.5 400 177.5c151.333 0 279.666 -54.333 384.999 -163v0v125v0h251v0v-1136v0h-125h-126v0v124v0c-106.667 -107.333 -235.334 -161.333 -386.001 -162z
M664.002 927c-95.333 0 -174.999 -34.5 -238.999 -103.5s-96 -154.5 -96 -256.5c0 -101.333 32 -186.333 96 -255s143.333 -103 238 -103c95.333 0 175.166 34.333 239.499 103s96.5 154 96.5 256s-32 187.333 -96 256s-143.667 103 -239 103zM861.003 -198
c0 40 16.168 79.833 48.501 119.5s75.166 71.834 128.499 96.501h142c-54.667 -41.333 -90.5 -72 -107.5 -92s-25.5 -42.333 -25.5 -67c0 -28 9.83301 -50.667 29.5 -68s45.5 -26 77.5 -26c14 0 28 2.16699 42 6.5s26.667 10.166 38 17.499v-160
c-18 -8 -39.5 -14.5 -64.5 -19.5s-49.5 -7.5 -73.5 -7.5c-72 0 -129.333 18 -172 54c-42 36 -63 84.667 -63 146z" />
    <glyph glyph-name="Cacute" unicode="&#x106;" horiz-adv-x="1597" 
d="M1561 424c-57.333 -138 -150.334 -248.164 -279.001 -330.497s-272 -123.5 -430 -123.5c-216.667 0 -401.167 76.667 -553.5 230s-228.5 339 -228.5 557c0 218.667 76.167 404.667 228.5 558s336.833 230 553.5 230c159.333 0 303.833 -41.833 433.5 -125.5
s223.834 -195.834 282.501 -336.501v0h-319v0c-47.333 61.333 -107.833 110.166 -181.5 146.499s-148.834 54.5 -225.501 54.5c-133.333 0 -248.5 -50.833 -345.5 -152.5s-145.5 -222.834 -145.5 -363.501c0 -150 49.5 -277 148.5 -381s219.833 -156 362.5 -156
c70.667 0 140.334 17.5 209.001 52.5s125.667 81.833 171 140.5v0h319zM610.999 1818l458 266l117 -212l-472 -242z" />
    <glyph glyph-name="cacute" unicode="&#x107;" horiz-adv-x="1311" 
d="M1244 370c-38 -124 -108.502 -223.001 -211.502 -297.001s-221.5 -111 -355.5 -111c-166.667 0 -308.5 58.833 -425.5 176.5s-175.5 260.5 -175.5 428.5s58.5 311.167 175.5 429.5s258.833 177.5 425.5 177.5c135.333 0 255 -37.5 359 -112.5
s175.333 -175.167 214 -300.5v0h-304v0c-26 53.333 -62.167 94 -108.5 122s-100.833 42 -163.5 42c-90 0 -166.5 -34 -229.5 -102s-94.5 -150.667 -94.5 -248c0 -103.333 32.333 -189.833 97 -259.5s144.667 -104.5 240 -104.5c52.667 0 101.834 14.333 147.501 43
s80.834 67.334 105.501 116.001v0h304zM423.998 1470l458 266l117 -212l-472 -242z" />
    <glyph glyph-name="Ccaron" unicode="&#x10c;" horiz-adv-x="1597" 
d="M1561 424c-57.333 -138 -150.334 -248.164 -279.001 -330.497s-272 -123.5 -430 -123.5c-216.667 0 -401.167 76.667 -553.5 230s-228.5 339 -228.5 557c0 218.667 76.167 404.667 228.5 558s336.833 230 553.5 230c159.333 0 303.833 -41.833 433.5 -125.5
s223.834 -195.834 282.501 -336.501v0h-319v0c-47.333 61.333 -107.833 110.166 -181.5 146.499s-148.834 54.5 -225.501 54.5c-133.333 0 -248.5 -50.833 -345.5 -152.5s-145.5 -222.834 -145.5 -363.501c0 -150 49.5 -277 148.5 -381s219.833 -156 362.5 -156
c70.667 0 140.334 17.5 209.001 52.5s125.667 81.833 171 140.5v0h319zM751.999 1652l-301 283h296l113 -131v0l113 131h296l-301 -283h-108h-108z" />
    <glyph glyph-name="ccaron" unicode="&#x10d;" horiz-adv-x="1311" 
d="M1244 370c-38 -124 -108.502 -223.001 -211.502 -297.001s-221.5 -111 -355.5 -111c-166.667 0 -308.5 58.833 -425.5 176.5s-175.5 260.5 -175.5 428.5s58.5 311.167 175.5 429.5s258.833 177.5 425.5 177.5c135.333 0 255 -37.5 359 -112.5
s175.333 -175.167 214 -300.5v0h-304v0c-26 53.333 -62.167 94 -108.5 122s-100.833 42 -163.5 42c-90 0 -166.5 -34 -229.5 -102s-94.5 -150.667 -94.5 -248c0 -103.333 32.333 -189.833 97 -259.5s144.667 -104.5 240 -104.5c52.667 0 101.834 14.333 147.501 43
s80.834 67.334 105.501 116.001v0h304zM560.998 1304l-301 283h296l113 -131v0l113 131h296l-301 -283h-108h-108z" />
    <glyph glyph-name="Dcaron" unicode="&#x10e;" horiz-adv-x="1434" 
d="M129 0v1515v0h140v0h205c271.333 0 484.5 -66.167 639.5 -198.5s232.5 -313.833 232.5 -544.5c0 -240 -74.667 -428.667 -224 -566s-354.333 -206 -615 -206h-238v0h-140v0zM409 261h98.001c178 0 315.5 43.167 412.5 129.5s145.5 208.5 145.5 366.5
c0 158.667 -51.333 281.167 -154 367.5s-248.334 129.5 -437.001 129.5h-65v0v-993zM516.001 1652l-301 283h296l113 -131v0l113 131h296l-301 -283h-108h-108z" />
    <glyph glyph-name="dcaron" unicode="&#x10f;" horiz-adv-x="1820" 
d="M622 -38c-155.333 0 -287.833 58.833 -397.5 176.5s-164.5 260.5 -164.5 428.5s57 311.167 171 429.5s252 177.5 414 177.5c130 -1.33301 242.667 -44.333 338 -129v0v470v0h136h137v0v-1515v0h-125h-126v0v123v0c-106 -107.333 -233.667 -161 -383 -161zM666 927
c-94 0 -172.832 -34.5 -236.499 -103.5s-95.5 -154.5 -95.5 -256.5c0 -101.333 31.667 -186.333 95 -255s142 -103 236 -103c94.667 0 174 34.333 238 103s96 154 96 256s-31.833 187.333 -95.5 256s-142.834 103 -237.501 103zM1423 1110l152 405h196l-154 -405h-194z" />
    <glyph glyph-name="Dcroat" unicode="&#x110;" horiz-adv-x="1520" 
d="M205 0v641v0h-154v263h154v0v611v0h140v0h165c282 0 503.667 -66.167 665 -198.5s242 -313.833 242 -544.5c0 -240 -77.667 -428.667 -233 -566s-369 -206 -641 -206h-198v0h-140zM485 1254v-350v0h273v-263h-273v0v-380v0h58c189.333 0 335.5 43.167 438.5 129.5
s154.5 208.5 154.5 366.5c0 158.667 -54.333 281.167 -163 367.5s-262.667 129.5 -462 129.5h-26z" />
    <glyph glyph-name="dcroat" unicode="&#x111;" horiz-adv-x="1352" 
d="M632 -38c-155.333 0 -287.833 58.833 -397.5 176.5s-164.5 260.5 -164.5 428.5s57 311.167 171 429.5s252 177.5 414 177.5c130 -1.33301 242.667 -44.333 338 -129v0v156h-385v218h385v96v0h136h137v0v-96h179v-218h-179v-1201v0h-125h-126v0v123v0
c-106 -107.333 -233.667 -161 -383 -161zM676 927c-94 0 -172.832 -34.5 -236.499 -103.5s-95.5 -154.5 -95.5 -256.5c0 -101.333 31.667 -186.333 95 -255s142 -103 236 -103c94.667 0 174 34.333 238 103s96 154 96 256s-31.833 187.333 -95.5 256
s-142.834 103 -237.501 103z" />
    <glyph glyph-name="Emacron" unicode="&#x112;" horiz-adv-x="1065" 
d="M125 0v1515v0h815v0v-130v-131v0h-535v0v-373v0h510v-130v-131v0h-510v0v-359v0h535v0v-130v-131v0h-815zM211 1889h660v-216h-660v216z" />
    <glyph glyph-name="emacron" unicode="&#x113;" horiz-adv-x="1311" 
d="M656 -38c-164 0 -303.835 58.833 -419.502 176.5s-173.5 260.5 -173.5 428.5s57.833 311.167 173.5 429.5s255.5 177.5 419.5 177.5c164.667 0 304.834 -59.167 420.501 -177.5s173.5 -261.5 173.5 -429.5c0 -40.667 -3.33301 -80.667 -10 -120v0h-886v0
c15.333 -49.333 41 -94 77 -134c62 -68 139.333 -102 232 -102c57.333 0 109.833 13.333 157.5 40s82.834 62.334 105.501 107.001v0h288v0c-36.667 -120.667 -105.667 -216.834 -207 -288.501s-218.333 -107.5 -351 -107.5zM964.998 665
c-13.333 60 -40.334 112.332 -81.001 156.999c-61.333 68.667 -137.333 103 -228 103s-166.667 -34.333 -228 -103c-39.333 -45.333 -66.666 -97.666 -81.999 -156.999v0h619zM349.997 1519h660v-216h-660v216z" />
    <glyph glyph-name="Edotaccent" unicode="&#x116;" horiz-adv-x="1065" 
d="M125 0v1515v0h815v0v-130v-131v0h-535v0v-373v0h510v-130v-131v0h-510v0v-359v0h535v0v-130v-131v0h-815zM404 1923h274v-273h-274v273z" />
    <glyph glyph-name="edotaccent" unicode="&#x117;" horiz-adv-x="1311" 
d="M656 -38c-164 0 -303.835 58.833 -419.502 176.5s-173.5 260.5 -173.5 428.5s57.833 311.167 173.5 429.5s255.5 177.5 419.5 177.5c164.667 0 304.834 -59.167 420.501 -177.5s173.5 -261.5 173.5 -429.5c0 -40.667 -3.33301 -80.667 -10 -120v0h-886v0
c15.333 -49.333 41 -94 77 -134c62 -68 139.333 -102 232 -102c57.333 0 109.833 13.333 157.5 40s82.834 62.334 105.501 107.001v0h288v0c-36.667 -120.667 -105.667 -216.834 -207 -288.501s-218.333 -107.5 -351 -107.5zM964.998 665
c-13.333 60 -40.334 112.332 -81.001 156.999c-61.333 68.667 -137.333 103 -228 103s-166.667 -34.333 -228 -103c-39.333 -45.333 -66.666 -97.666 -81.999 -156.999v0h619zM542.997 1575h274v-273h-274v273z" />
    <glyph glyph-name="Eogonek" unicode="&#x118;" horiz-adv-x="1065" 
d="M125 0v1515v0h815v0v-130v-131v0h-535v0v-373v0h510v-130v-131v0h-510v0v-359v0h535v0v-130v-131v0h-815zM552 -198c0 40 16.168 79.833 48.501 119.5s75.166 71.834 128.499 96.501h142c-54.667 -41.333 -90.5 -72 -107.5 -92s-25.5 -42.333 -25.5 -67
c0 -28 9.83301 -50.667 29.5 -68s45.5 -26 77.5 -26c14 0 28 2.16699 42 6.5s26.667 10.166 38 17.499v-160c-18 -8 -39.5 -14.5 -64.5 -19.5s-49.5 -7.5 -73.5 -7.5c-72 0 -129.333 18 -172 54c-42 36 -63 84.667 -63 146z" />
    <glyph glyph-name="eogonek" unicode="&#x119;" horiz-adv-x="1311" 
d="M656 -38c-164 0 -303.835 58.833 -419.502 176.5s-173.5 260.5 -173.5 428.5s57.833 311.167 173.5 429.5s255.5 177.5 419.5 177.5c164.667 0 304.834 -59.167 420.501 -177.5s173.5 -261.5 173.5 -429.5c0 -40.667 -3.33301 -80.667 -10 -120v0h-886v0
c15.333 -49.333 41 -94 77 -134c62 -68 139.333 -102 232 -102c57.333 0 109.833 13.333 157.5 40s82.834 62.334 105.501 107.001v0h288v0c-36.667 -120.667 -105.667 -216.834 -207 -288.501s-218.333 -107.5 -351 -107.5zM964.998 665
c-13.333 60 -40.334 112.332 -81.001 156.999c-61.333 68.667 -137.333 103 -228 103s-166.667 -34.333 -228 -103c-39.333 -45.333 -66.666 -97.666 -81.999 -156.999v0h619zM536.997 -198.001c0 40 16.168 79.833 48.501 119.5s75.166 71.834 128.499 96.501h142
c-54.667 -41.333 -90.5 -72 -107.5 -92s-25.5 -42.333 -25.5 -67c0 -28 9.83301 -50.667 29.5 -68s45.5 -26 77.5 -26c14 0 28 2.16699 42 6.5s26.667 10.166 38 17.499v-160c-18 -8 -39.5 -14.5 -64.5 -19.5s-49.5 -7.5 -73.5 -7.5c-72 0 -129.333 18 -172 54
c-42 36 -63 84.667 -63 146z" />
    <glyph glyph-name="Ecaron" unicode="&#x11a;" horiz-adv-x="1065" 
d="M125 0v1515v0h815v0v-130v-131v0h-535v0v-373v0h510v-130v-131v0h-510v0v-359v0h535v0v-130v-131v0h-815zM441 1652l-301 283h296l113 -131v0l113 131h296l-301 -283h-108h-108z" />
    <glyph glyph-name="ecaron" unicode="&#x11b;" horiz-adv-x="1311" 
d="M656 -38c-164 0 -303.835 58.833 -419.502 176.5s-173.5 260.5 -173.5 428.5s57.833 311.167 173.5 429.5s255.5 177.5 419.5 177.5c164.667 0 304.834 -59.167 420.501 -177.5s173.5 -261.5 173.5 -429.5c0 -40.667 -3.33301 -80.667 -10 -120v0h-886v0
c15.333 -49.333 41 -94 77 -134c62 -68 139.333 -102 232 -102c57.333 0 109.833 13.333 157.5 40s82.834 62.334 105.501 107.001v0h288v0c-36.667 -120.667 -105.667 -216.834 -207 -288.501s-218.333 -107.5 -351 -107.5zM964.998 665
c-13.333 60 -40.334 112.332 -81.001 156.999c-61.333 68.667 -137.333 103 -228 103s-166.667 -34.333 -228 -103c-39.333 -45.333 -66.666 -97.666 -81.999 -156.999v0h619zM563.997 1304l-301 283h296l113 -131v0l113 131h296l-301 -283h-108h-108z" />
    <glyph glyph-name="Gbreve" unicode="&#x11e;" horiz-adv-x="1720" 
d="M870 -30c-225.333 0 -417.5 76.667 -576.5 230s-238.5 339 -238.5 557c0 218.667 78.333 404.667 235 558s346 230 568 230c165.333 0 315.333 -43 450 -129s232 -201.333 292 -346v0h-338v0c-41.333 65.333 -98.333 117.333 -171 156s-149.667 58 -231 58
c-146 0 -269.833 -51 -371.5 -153s-152.5 -226.667 -152.5 -374c0 -146.667 51.167 -271 153.5 -373s226.833 -153 373.5 -153c145.333 0 266.333 50.333 363 151c38 40.667 69 84 93 130v0h-632v261h986v-16c0 -218 -78 -403.667 -234 -557s-345.333 -230 -568 -230h-1z
M858 1645c-116.667 0 -209.167 23.5 -277.5 70.5s-111.166 116.833 -128.499 209.5h222c11.333 -23.333 34.666 -42.833 69.999 -58.5s73.333 -23.5 114 -23.5c41.333 0 79.666 7.83301 114.999 23.5s58.666 35.167 69.999 58.5h222
c-17.333 -92.667 -60.166 -162.5 -128.499 -209.5s-161.166 -70.5 -278.499 -70.5z" />
    <glyph glyph-name="gbreve" unicode="&#x11f;" horiz-adv-x="1352" 
d="M663 -214c107.333 0 194.67 36.334 262.003 109.001c58.667 63.333 91.667 143.666 99 240.999v0c-112 -116 -244.667 -174 -398 -174c-154.667 0 -286.667 58.833 -396 176.5s-164 260.5 -164 428.5s54.667 311.167 164 429.5s241.666 177.5 396.999 177.5
c151.333 0.666992 279.666 -54.333 384.999 -165v0v127v0h264v-923c0 -204 -56.833 -367.667 -170.5 -491s-264.5 -185 -452.5 -185c-136 0 -255.167 34.167 -357.5 102.5s-170.833 159.5 -205.5 273.5v0h317v0c19.333 -38.667 52.166 -69.5 98.499 -92.5
s98.833 -34.5 157.5 -34.5zM671.004 927.001c-94 0 -172.666 -34.5 -235.999 -103.5s-95 -154.5 -95 -256.5c0 -101.333 31.667 -186.333 95 -255s141.666 -103 234.999 -103c94 0 172.833 34.333 236.5 103s95.5 154 95.5 256s-31.667 187.333 -95 256s-142 103 -236 103z
M627.005 1297c-116.667 0 -209.167 23.5 -277.5 70.5s-111.166 116.833 -128.499 209.5h222c11.333 -23.333 34.666 -42.833 69.999 -58.5s73.333 -23.5 114 -23.5c41.333 0 79.666 7.83301 114.999 23.5s58.666 35.167 69.999 58.5h222
c-17.333 -92.667 -60.166 -162.5 -128.499 -209.5s-161.166 -70.5 -278.499 -70.5z" />
    <glyph glyph-name="Gcommaaccent" unicode="&#x122;" horiz-adv-x="1720" 
d="M870 -30c-225.333 0 -417.5 76.667 -576.5 230s-238.5 339 -238.5 557c0 218.667 78.333 404.667 235 558s346 230 568 230c165.333 0 315.333 -43 450 -129s232 -201.333 292 -346v0h-338v0c-41.333 65.333 -98.333 117.333 -171 156s-149.667 58 -231 58
c-146 0 -269.833 -51 -371.5 -153s-152.5 -226.667 -152.5 -374c0 -146.667 51.167 -271 153.5 -373s226.833 -153 373.5 -153c145.333 0 266.333 50.333 363 151c38 40.667 69 84 93 130v0h-632v261h986v-16c0 -218 -78 -403.667 -234 -557s-345.333 -230 -568 -230h-1z
M600 -572l152 405h235l-154 -405h-233z" />
    <glyph glyph-name="gcommaaccent" unicode="&#x123;" horiz-adv-x="1352" 
d="M663 -214c107.333 0 194.67 36.334 262.003 109.001c58.667 63.333 91.667 143.666 99 240.999v0c-112 -116 -244.667 -174 -398 -174c-154.667 0 -286.667 58.833 -396 176.5s-164 260.5 -164 428.5s54.667 311.167 164 429.5s241.666 177.5 396.999 177.5
c151.333 0.666992 279.666 -54.333 384.999 -165v0v127v0h264v-923c0 -204 -56.833 -367.667 -170.5 -491s-264.5 -185 -452.5 -185c-136 0 -255.167 34.167 -357.5 102.5s-170.833 159.5 -205.5 273.5v0h317v0c19.333 -38.667 52.166 -69.5 98.499 -92.5
s98.833 -34.5 157.5 -34.5zM671.004 927.001c-94 0 -172.666 -34.5 -235.999 -103.5s-95 -154.5 -95 -256.5c0 -101.333 31.667 -186.333 95 -255s141.666 -103 234.999 -103c94 0 172.833 34.333 236.5 103s95.5 154 95.5 256s-31.667 187.333 -95 256s-142 103 -236 103z
M836.005 1708l-152 -405h-196l154 405h194z" />
    <glyph glyph-name="Imacron" unicode="&#x12a;" horiz-adv-x="573" 
d="M145 0v1515v0h140h140v0v-1515v0h-140h-140v0zM-45 1889h660v-216h-660v216z" />
    <glyph glyph-name="imacron" unicode="&#x12b;" horiz-adv-x="491" 
d="M114 0v1136v0h136h137v0v-1136v0h-136h-137v0zM-80 1519h660v-216h-660v216z" />
    <glyph glyph-name="Iogonek" unicode="&#x12e;" horiz-adv-x="573" 
d="M143 0v1515v0h140h140v0v-1515v0h-140h-140v0zM58 -198c0 40 16.168 79.833 48.501 119.5s75.166 71.834 128.499 96.501h142c-54.667 -41.333 -90.5 -72 -107.5 -92s-25.5 -42.333 -25.5 -67c0 -28 9.83301 -50.667 29.5 -68s45.5 -26 77.5 -26c14 0 28 2.16699 42 6.5
s26.667 10.166 38 17.499v-160c-18 -8 -39.5 -14.5 -64.5 -19.5s-49.5 -7.5 -73.5 -7.5c-72 0 -129.333 18 -172 54c-42 36 -63 84.667 -63 146z" />
    <glyph glyph-name="iogonek" unicode="&#x12f;" horiz-adv-x="491" 
d="M114 0v1136v0h136h137v0v-1136v0h-136h-137v0zM114 1515h272v-250h-272v250zM35 -198c0 40 16.168 79.833 48.501 119.5s75.166 71.834 128.499 96.501h142c-54.667 -41.333 -90.5 -72 -107.5 -92s-25.5 -42.333 -25.5 -67c0 -28 9.83301 -50.667 29.5 -68
s45.5 -26 77.5 -26c14 0 28 2.16699 42 6.5s26.667 10.166 38 17.499v-160c-18 -8 -39.5 -14.5 -64.5 -19.5s-49.5 -7.5 -73.5 -7.5c-72 0 -129.333 18 -172 54c-42 36 -63 84.667 -63 146z" />
    <glyph glyph-name="Idotaccent" unicode="&#x130;" horiz-adv-x="573" 
d="M147 0v1515v0h140h140v0v-1515v0h-140h-140v0zM150 1923h274v-273h-274v273z" />
    <glyph glyph-name="dotlessi" unicode="&#x131;" horiz-adv-x="492" 
d="M109 0v1136v0h136h137v0v-1136v0h-136h-137v0z" />
    <glyph glyph-name="Kcommaaccent" unicode="&#x136;" horiz-adv-x="1270" 
d="M462 0h-140h-140v0v1515v0h140h140v0v-669v0l480 669v0h164h164v0l-575 -745v0l575 -770v0h-164h-165v0l-479 668v0v-668zM431 -572l152 405h235l-154 -405h-233z" />
    <glyph glyph-name="kcommaaccent" unicode="&#x137;" horiz-adv-x="1188" 
d="M437 0h-136h-137v0v1515v0h136h137v0v-921v0l366 542v0h158h159v0l-423 -549v0l473 -587v0h-164h-164v0l-405 542v0v-542zM369 -572l152 405h235l-154 -405h-233z" />
    <glyph glyph-name="Lacute" unicode="&#x139;" horiz-adv-x="901" 
d="M159 0v1515v0h140h140v0v-1254v0h464v0v-130v-131v0h-744zM58 1818l458 266l117 -212l-472 -242z" />
    <glyph glyph-name="lacute" unicode="&#x13a;" horiz-adv-x="491" 
d="M114 0v1515v0h136h137v0v-1515v0h-136h-137v0zM9 1818l458 266l117 -212l-472 -242z" />
    <glyph glyph-name="Lcommaaccent" unicode="&#x13b;" horiz-adv-x="901" 
d="M147 0v1515v0h140h140v0v-1254v0h464v0v-130v-131v0h-744zM249 -572l152 405h235l-154 -405h-233z" />
    <glyph glyph-name="lcommaaccent" unicode="&#x13c;" horiz-adv-x="491" 
d="M143 0v1515v0h136h137v0v-1515v0h-136h-137v0zM9 -572l152 405h235l-154 -405h-233z" />
    <glyph glyph-name="Lcaron" unicode="&#x13d;" horiz-adv-x="941" 
d="M148 0v1515v0h140h140v0v-1254v0h464v0v-130v-131v0h-744zM595 1110l152 405h196l-154 -405h-194z" />
    <glyph glyph-name="lcaron" unicode="&#x13e;" horiz-adv-x="950" 
d="M109 0v1515v0h136h137v0v-1515v0h-136h-137v0zM548 1110l152 405h196l-154 -405h-194z" />
    <glyph glyph-name="Lslash" unicode="&#x141;" horiz-adv-x="983" 
d="M199 0v564l-146 -97v281l146 98v669v0h140h140v0v-482l264 176v-281l-264 -176v-491v0h464v0v-130v-131v0h-744z" />
    <glyph glyph-name="lslash" unicode="&#x142;" horiz-adv-x="655" 
d="M200 0v527l-130 -85v289l130 85v699v0h136h137v0v-520l152 100v-289l-152 -100v-706v0h-136h-137v0z" />
    <glyph glyph-name="Nacute" unicode="&#x143;" horiz-adv-x="1516" 
d="M423 0h-140h-140v0v1515v0h161h161v0l630 -1107v0v0v1107v0h140h140v0v-1515h-154h-155l-643 1116v0v0v-1116zM518 1818l458 266l117 -212l-472 -242z" />
    <glyph glyph-name="nacute" unicode="&#x144;" horiz-adv-x="1229" 
d="M111 0v1136v0h127h127v0v-98v0v0c88 90.667 193.333 136 316 136c134.667 0 241.5 -45.5 320.5 -136.5s118.5 -213.833 118.5 -368.5v-669v0h-136h-137v0v608c0 104 -19.333 183 -58 237s-95 81 -169 81c-78.667 0 -137.667 -27.333 -177 -82s-59 -136.667 -59 -246v0
v-598v0h-136h-137v0zM362 1470l458 266l117 -212l-472 -242z" />
    <glyph glyph-name="Ncommaaccent" unicode="&#x145;" horiz-adv-x="1516" 
d="M423 0h-140h-140v0v1515v0h161h161v0l630 -1107v0v0v1107v0h140h140v0v-1515h-154h-155l-643 1116v0v0v-1116zM489 -572l152 405h235l-154 -405h-233z" />
    <glyph glyph-name="ncommaaccent" unicode="&#x146;" horiz-adv-x="1229" 
d="M111 0v1136v0h127h127v0v-98v0v0c88 90.667 193.333 136 316 136c134.667 0 241.5 -45.5 320.5 -136.5s118.5 -213.833 118.5 -368.5v-669v0h-136h-137v0v608c0 104 -19.333 183 -58 237s-95 81 -169 81c-78.667 0 -137.667 -27.333 -177 -82s-59 -136.667 -59 -246v0
v-598v0h-136h-137v0zM345 -572l152 405h235l-154 -405h-233z" />
    <glyph glyph-name="Ncaron" unicode="&#x147;" horiz-adv-x="1516" 
d="M423 0h-140h-140v0v1515v0h161h161v0l630 -1107v0v0v1107v0h140h140v0v-1515h-154h-155l-643 1116v0v0v-1116zM659 1652l-301 283h296l113 -131v0l113 131h296l-301 -283h-108h-108z" />
    <glyph glyph-name="ncaron" unicode="&#x148;" horiz-adv-x="1229" 
d="M111 0v1136v0h127h127v0v-98v0v0c88 90.667 193.333 136 316 136c134.667 0 241.5 -45.5 320.5 -136.5s118.5 -213.833 118.5 -368.5v-669v0h-136h-137v0v608c0 104 -19.333 183 -58 237s-95 81 -169 81c-78.667 0 -137.667 -27.333 -177 -82s-59 -136.667 -59 -246v0
v-598v0h-136h-137v0zM499 1304l-301 283h296l113 -131v0l113 131h296l-301 -283h-108h-108z" />
    <glyph glyph-name="Omacron" unicode="&#x14c;" horiz-adv-x="1720" 
d="M860 -30c-219.333 0 -406.166 76.667 -560.499 230s-231.5 339 -231.5 557c0 218.667 77.167 404.667 231.5 558s341.166 230 560.499 230c220 0 407 -76.667 561 -230s231 -339.333 231 -558c0 -218 -77 -403.667 -231 -557s-341 -230 -561 -230v0zM860 231
c142.667 0 263.5 51 362.5 153s148.5 226.333 148.5 373c0 147.333 -49.5 272 -148.5 374s-219.833 153 -362.5 153s-263.5 -51 -362.5 -153s-148.5 -226.667 -148.5 -374c0 -146.667 49.5 -271 148.5 -373s219.833 -153 362.5 -153v0zM530 1889h660v-216h-660v216z" />
    <glyph glyph-name="omacron" unicode="&#x14d;" horiz-adv-x="1311" 
d="M655 -38c-167.333 0 -309.833 58.833 -427.5 176.5s-176.5 260.5 -176.5 428.5s58.833 311.167 176.5 429.5s260.167 177.5 427.5 177.5c168 0 310.833 -59.167 428.5 -177.5s176.5 -261.5 176.5 -429.5s-58.833 -310.833 -176.5 -428.5s-260.5 -176.5 -428.5 -176.5v0z
M655 211c94 0 172.667 34 236 102s95 152.667 95 254s-31.667 186.333 -95 255s-142 103 -236 103c-93.333 0 -171.666 -34.333 -234.999 -103s-95 -153.667 -95 -255s31.667 -186 95 -254s141.666 -102 234.999 -102v0zM325 1519h660v-216h-660v216z" />
    <glyph glyph-name="Ohungarumlaut" unicode="&#x150;" horiz-adv-x="1720" 
d="M860 -30c-219.333 0 -406.166 76.667 -560.499 230s-231.5 339 -231.5 557c0 218.667 77.167 404.667 231.5 558s341.166 230 560.499 230c220 0 407 -76.667 561 -230s231 -339.333 231 -558c0 -218 -77 -403.667 -231 -557s-341 -230 -561 -230v0zM860 231
c142.667 0 263.5 51 362.5 153s148.5 226.333 148.5 373c0 147.333 -49.5 272 -148.5 374s-219.833 153 -362.5 153s-263.5 -51 -362.5 -153s-148.5 -226.667 -148.5 -374c0 -146.667 49.5 -271 148.5 -373s219.833 -153 362.5 -153v0zM510 1738l370 373l153 -158l-387 -355
zM967 1738l370 373l153 -158l-387 -355z" />
    <glyph glyph-name="ohungarumlaut" unicode="&#x151;" horiz-adv-x="1311" 
d="M655 -38c-167.333 0 -309.833 58.833 -427.5 176.5s-176.5 260.5 -176.5 428.5s58.833 311.167 176.5 429.5s260.167 177.5 427.5 177.5c168 0 310.833 -59.167 428.5 -177.5s176.5 -261.5 176.5 -429.5s-58.833 -310.833 -176.5 -428.5s-260.5 -176.5 -428.5 -176.5v0z
M655 211c94 0 172.667 34 236 102s95 152.667 95 254s-31.667 186.333 -95 255s-142 103 -236 103c-93.333 0 -171.666 -34.333 -234.999 -103s-95 -153.667 -95 -255s31.667 -186 95 -254s141.666 -102 234.999 -102v0zM298 1390l370 373l153 -158l-387 -355zM755 1390
l370 373l153 -158l-387 -355z" />
    <glyph glyph-name="OE" unicode="&#x152;" horiz-adv-x="2171" 
d="M845 1545c184.667 0 347.334 -61.333 488.001 -184v0v154h282v0h447v0v-130v-131v0h-447v0v-373v0h425v-130v-131v0h-425v0v-359v0h447v0v-130v-131v0h-447v0h-282v152v0c-138.667 -122 -301.334 -182.667 -488.001 -182c-212.667 0 -394 76.667 -544 230
s-225 339 -225 557c0 218.667 75 404.667 225 558s331.333 230 544 230zM851 1284c-137.333 0 -254 -51 -350 -153s-144 -226.667 -144 -374c0 -146.667 48 -271 144 -373s212.667 -153 350 -153c134.667 0 250.667 51.833 348 155.5s146 227.167 146 370.5
s-48.667 267 -146 371s-213.333 156 -348 156z" />
    <glyph glyph-name="oe" unicode="&#x153;" horiz-adv-x="2212" 
d="M650 1174c163.333 0 302.332 -59.334 416.999 -178.001c15.333 -15.333 29.666 -31.666 42.999 -48.999v0l37 41c121.333 124 258 186 410 186c164.667 0 304.834 -59.167 420.501 -177.5s173.5 -261.5 173.5 -429.5c0 -40.667 -3.33301 -80.667 -10 -120v0h-890v0
c15.333 -52 41 -98 77 -138c60.667 -65.333 140.334 -98 239.001 -98c56.667 0 108.5 13.333 155.5 40s81.833 62.334 104.5 107.001v0h288v0c-36.667 -120.667 -105.667 -216.834 -207 -288.501s-218.333 -107.5 -351 -107.5c-148 0 -284 63 -408 189l-36 39v0l-46 -52
c-114.667 -117.333 -253.667 -176 -417 -176s-302.333 58.833 -417 176.5s-172 260.5 -172 428.5s57.333 311.333 172 430c114.667 118 253.667 177 417 177zM663.999 924.999c-93.333 0 -171.5 -34.333 -234.5 -103s-94.5 -153.667 -94.5 -255s31.5 -186 94.5 -254
s141.167 -102 234.5 -102s171.5 34 234.5 102s94.5 152.667 94.5 254s-31.667 186.333 -95 255c-62.667 68.667 -140.667 103 -234 103zM1875 664.999c-14 60 -41.667 112.333 -83 157c-62 68.667 -139 103 -231 103s-169.333 -34.333 -232 -103
c-40.667 -44 -68 -96.333 -82 -157v0h628z" />
    <glyph glyph-name="Racute" unicode="&#x154;" horiz-adv-x="1188" 
d="M131 0v1515v0h140v0h304c180 0 319.5 -40.833 418.5 -122.5s148.5 -196.5 148.5 -344.5c0 -166.667 -50.333 -292.667 -151 -378c-62.667 -52 -144 -89 -244 -111v0l410 -559v0h-165h-166v0l-415 605v0v-605v0h-140h-140v0zM411 788h143c102 0 178.667 19.333 230 58
s77 96.667 77 174c0 78 -25.667 136.5 -77 175.5s-128 58.5 -230 58.5h-143v0v-466zM345 1818l458 266l117 -212l-472 -242z" />
    <glyph glyph-name="racute" unicode="&#x155;" horiz-adv-x="655" 
d="M129 0l0.000976562 1136v0h127h127v0v-86v0v0l13 18c50.667 70.667 129 106 235 106h18v-260c-76.667 -5.33301 -135.334 -25.333 -176.001 -60c-47.333 -41.333 -71 -106.666 -71 -195.999v0v-658v0h-136h-137v0zM136.001 1470l458 266l117 -212l-472 -242z" />
    <glyph glyph-name="Rcommaaccent" unicode="&#x156;" horiz-adv-x="1188" 
d="M131 0v1515v0h140v0h304c180 0 319.5 -40.833 418.5 -122.5s148.5 -196.5 148.5 -344.5c0 -166.667 -50.333 -292.667 -151 -378c-62.667 -52 -144 -89 -244 -111v0l410 -559v0h-165h-166v0l-415 605v0v-605v0h-140h-140v0zM411 788h143c102 0 178.667 19.333 230 58
s77 96.667 77 174c0 78 -25.667 136.5 -77 175.5s-128 58.5 -230 58.5h-143v0v-466zM381 -572l152 405h235l-154 -405h-233z" />
    <glyph glyph-name="rcommaaccent" unicode="&#x157;" horiz-adv-x="655" 
d="M138 0l0.000976562 1136v0h127h127v0v-86v0v0l13 18c50.667 70.667 129 106 235 106h18v-260c-76.667 -5.33301 -135.334 -25.333 -176.001 -60c-47.333 -41.333 -71 -106.666 -71 -195.999v0v-658v0h-136h-137v0zM4.00098 -572.001l152 405h235l-154 -405h-233z" />
    <glyph glyph-name="Rcaron" unicode="&#x158;" horiz-adv-x="1188" 
d="M131 0v1515v0h140v0h304c180 0 319.5 -40.833 418.5 -122.5s148.5 -196.5 148.5 -344.5c0 -166.667 -50.333 -292.667 -151 -378c-62.667 -52 -144 -89 -244 -111v0l410 -559v0h-165h-166v0l-415 605v0v-605v0h-140h-140v0zM411 788h143c102 0 178.667 19.333 230 58
s77 96.667 77 174c0 78 -25.667 136.5 -77 175.5s-128 58.5 -230 58.5h-143v0v-466zM486 1652l-301 283h296l113 -131v0l113 131h296l-301 -283h-108h-108z" />
    <glyph glyph-name="rcaron" unicode="&#x159;" horiz-adv-x="655" 
d="M123 0l0.000976562 1136v0h127h127v0v-86v0v0l13 18c50.667 70.667 129 106 235 106h18v-260c-76.667 -5.33301 -135.334 -25.333 -176.001 -60c-47.333 -41.333 -71 -106.666 -71 -195.999v0v-658v0h-136h-137v0zM267.001 1304l-301 283h296l113 -131v0l113 131h296
l-301 -283h-108h-108z" />
    <glyph glyph-name="Sacute" unicode="&#x15a;" horiz-adv-x="1065" 
d="M688 1114c-6 56.667 -23.166 99.167 -51.499 127.5s-67.166 42.5 -116.499 42.5c-46.667 0 -84.834 -14.667 -114.501 -44s-44.5 -67 -44.5 -113c0 -48 15 -85.333 45 -112c29.333 -26 86.666 -53.667 171.999 -83c156 -53.333 267 -116.333 333 -189
s99 -168.667 99 -288c0 -142 -46 -258.333 -138 -349s-210 -136 -354 -136c-136 0 -249.5 42.667 -340.5 128s-141.833 196.666 -152.5 333.999v0h294v0c7.33301 -65.333 28.5 -115.166 63.5 -149.499s82.167 -51.5 141.5 -51.5c61.333 0 111.5 17.667 150.5 53
s58.5 81 58.5 137c0 61.333 -19 109.333 -57 144c-37.333 34 -110.666 69.667 -219.999 107c-134.667 46 -230.334 102.333 -287.001 169s-85 155.667 -85 267c0 128 41.667 232.833 125 314.5s190.333 122.5 321 122.5c120.667 0 223.667 -41.167 309 -123.5
s131 -184.833 137 -307.5v0h-288zM289.001 1818l458 266l117 -212l-472 -242z" />
    <glyph glyph-name="sacute" unicode="&#x15b;" horiz-adv-x="901" 
d="M567 829c-6.66699 32 -19.333 56.002 -38 72.002s-42.667 24 -72 24c-31.333 0 -56.833 -9 -76.5 -27s-29.5 -41.333 -29.5 -70c0 -27.333 12.333 -49.333 37 -66s72 -35.667 142 -57c119.333 -36.667 204.666 -82.334 255.999 -137.001
c50.667 -54.667 76 -127.334 76 -218.001c0 -114 -37.667 -207.167 -113 -279.5s-172 -108.5 -290 -108.5c-119.333 0 -217.833 36.5 -295.5 109.5s-119.167 168.5 -124.5 286.5v0h280v0c8 -48 24.333 -84.5 49 -109.5s56.667 -37.5 96 -37.5c37.333 0 68 10.333 92 31
s36 47.334 36 80.001c0 35.333 -11 62.666 -33 81.999s-64.333 38.666 -127 57.999c-126 38.667 -216.333 85.334 -271 140.001c-54 54 -81 125.333 -81 214c0 105.333 36 191.333 108 258s164.333 100 277 100c98.667 0 183.334 -33 254.001 -99s109 -148 115 -246v0h-267z
M212.001 1470l458 266l117 -212l-472 -242z" />
    <glyph glyph-name="Scedilla" unicode="&#x15e;" horiz-adv-x="1065" 
d="M688 1114c-6 56.667 -23.166 99.167 -51.499 127.5s-67.166 42.5 -116.499 42.5c-46.667 0 -84.834 -14.667 -114.501 -44s-44.5 -67 -44.5 -113c0 -48 15 -85.333 45 -112c29.333 -26 86.666 -53.667 171.999 -83c156 -53.333 267 -116.333 333 -189
s99 -168.667 99 -288c0 -142 -46 -258.333 -138 -349s-210 -136 -354 -136c-136 0 -249.5 42.667 -340.5 128s-141.833 196.666 -152.5 333.999v0h294v0c7.33301 -65.333 28.5 -115.166 63.5 -149.499s82.167 -51.5 141.5 -51.5c61.333 0 111.5 17.667 150.5 53
s58.5 81 58.5 137c0 61.333 -19 109.333 -57 144c-37.333 34 -110.666 69.667 -219.999 107c-134.667 46 -230.334 102.333 -287.001 169s-85 155.667 -85 267c0 128 41.667 232.833 125 314.5s190.333 122.5 321 122.5c120.667 0 223.667 -41.167 309 -123.5
s131 -184.833 137 -307.5v0h-288zM516.001 -2l-48.001 -107.998v0l51 2c56 0 101.667 -19.333 137 -58s53 -88.334 53 -149.001c0 -58.667 -19.167 -106.5 -57.5 -143.5s-87.5 -55.5 -147.5 -55.5c-55.333 0 -102.5 17 -141.5 51s-60.5 76.667 -64.5 128h109
c6 -24 17.333 -42.667 34 -56s37.334 -20 62.001 -20c28.667 0 51.667 9 69 27s26 41.667 26 71s-9 53.666 -27 72.999s-40.667 29 -68 29c-21.333 0 -40.333 -4.33301 -57 -13s-27.667 -19.667 -33 -33l-99 39l99 230z" />
    <glyph glyph-name="scedilla" unicode="&#x15f;" horiz-adv-x="901" 
d="M567 829c-6.66699 32 -19.333 56.002 -38 72.002s-42.667 24 -72 24c-31.333 0 -56.833 -9 -76.5 -27s-29.5 -41.333 -29.5 -70c0 -27.333 12.333 -49.333 37 -66s72 -35.667 142 -57c119.333 -36.667 204.666 -82.334 255.999 -137.001
c50.667 -54.667 76 -127.334 76 -218.001c0 -114 -37.667 -207.167 -113 -279.5s-172 -108.5 -290 -108.5c-119.333 0 -217.833 36.5 -295.5 109.5s-119.167 168.5 -124.5 286.5v0h280v0c8 -48 24.333 -84.5 49 -109.5s56.667 -37.5 96 -37.5c37.333 0 68 10.333 92 31
s36 47.334 36 80.001c0 35.333 -11 62.666 -33 81.999s-64.333 38.666 -127 57.999c-126 38.667 -216.333 85.334 -271 140.001c-54 54 -81 125.333 -81 214c0 105.333 36 191.333 108 258s164.333 100 277 100c98.667 0 183.334 -33 254.001 -99s109 -148 115 -246v0h-267z
M503.001 -1.99805l-48.001 -107.998v0l51 2c56 0 101.667 -19.333 137 -58s53 -88.334 53 -149.001c0 -58.667 -19.167 -106.5 -57.5 -143.5s-87.5 -55.5 -147.5 -55.5c-55.333 0 -102.5 17 -141.5 51s-60.5 76.667 -64.5 128h109c6 -24 17.333 -42.667 34 -56
s37.334 -20 62.001 -20c28.667 0 51.667 9 69 27s26 41.667 26 71s-9 53.666 -27 72.999s-40.667 29 -68 29c-21.333 0 -40.333 -4.33301 -57 -13s-27.667 -19.667 -33 -33l-99 39l99 230z" />
    <glyph glyph-name="Scaron" unicode="&#x160;" horiz-adv-x="1065" 
d="M688 1114c-6 56.667 -23.166 99.167 -51.499 127.5s-67.166 42.5 -116.499 42.5c-46.667 0 -84.834 -14.667 -114.501 -44s-44.5 -67 -44.5 -113c0 -48 15 -85.333 45 -112c29.333 -26 86.666 -53.667 171.999 -83c156 -53.333 267 -116.333 333 -189
s99 -168.667 99 -288c0 -142 -46 -258.333 -138 -349s-210 -136 -354 -136c-136 0 -249.5 42.667 -340.5 128s-141.833 196.666 -152.5 333.999v0h294v0c7.33301 -65.333 28.5 -115.166 63.5 -149.499s82.167 -51.5 141.5 -51.5c61.333 0 111.5 17.667 150.5 53
s58.5 81 58.5 137c0 61.333 -19 109.333 -57 144c-37.333 34 -110.666 69.667 -219.999 107c-134.667 46 -230.334 102.333 -287.001 169s-85 155.667 -85 267c0 128 41.667 232.833 125 314.5s190.333 122.5 321 122.5c120.667 0 223.667 -41.167 309 -123.5
s131 -184.833 137 -307.5v0h-288zM430.001 1652l-301 283h296l113 -131v0l113 131h296l-301 -283h-108h-108z" />
    <glyph glyph-name="scaron" unicode="&#x161;" horiz-adv-x="901" 
d="M567 829c-6.66699 32 -19.333 56.002 -38 72.002s-42.667 24 -72 24c-31.333 0 -56.833 -9 -76.5 -27s-29.5 -41.333 -29.5 -70c0 -27.333 12.333 -49.333 37 -66s72 -35.667 142 -57c119.333 -36.667 204.666 -82.334 255.999 -137.001
c50.667 -54.667 76 -127.334 76 -218.001c0 -114 -37.667 -207.167 -113 -279.5s-172 -108.5 -290 -108.5c-119.333 0 -217.833 36.5 -295.5 109.5s-119.167 168.5 -124.5 286.5v0h280v0c8 -48 24.333 -84.5 49 -109.5s56.667 -37.5 96 -37.5c37.333 0 68 10.333 92 31
s36 47.334 36 80.001c0 35.333 -11 62.666 -33 81.999s-64.333 38.666 -127 57.999c-126 38.667 -216.333 85.334 -271 140.001c-54 54 -81 125.333 -81 214c0 105.333 36 191.333 108 258s164.333 100 277 100c98.667 0 183.334 -33 254.001 -99s109 -148 115 -246v0h-267z
M349.001 1304l-301 283h296l113 -131v0l113 131h296l-301 -283h-108h-108z" />
    <glyph glyph-name="Tcommaaccent" unicode="&#x162;" horiz-adv-x="860" 
d="M294 0v1254v0h-282v0v130v131v0h844v0v-130v-131v0h-282v0v-1254v0h-140h-140v0zM493 28l-48.001 -107.998v0l51 2c56 0 101.667 -19.333 137 -58s53 -88.334 53 -149.001c0 -58.667 -19.167 -106.5 -57.5 -143.5s-87.5 -55.5 -147.5 -55.5
c-55.333 0 -102.5 17 -141.5 51s-60.5 76.667 -64.5 128h109c6 -24 17.333 -42.667 34 -56s37.334 -20 62.001 -20c28.667 0 51.667 9 69 27s26 41.667 26 71s-9 53.666 -27 72.999s-40.667 29 -68 29c-21.333 0 -40.333 -4.33301 -57 -13s-27.667 -19.667 -33 -33l-99 39
l99 230z" />
    <glyph glyph-name="tcommaaccent" unicode="&#x163;" horiz-adv-x="614" 
d="M174 0v896v0h-131v240h131v0v381h273v-381v0h165v-240h-165v0v-896h-273zM379 -2l-48.001 -107.998v0l51 2c56 0 101.667 -19.333 137 -58s53 -88.334 53 -149.001c0 -58.667 -19.167 -106.5 -57.5 -143.5s-87.5 -55.5 -147.5 -55.5c-55.333 0 -102.5 17 -141.5 51
s-60.5 76.667 -64.5 128h109c6 -24 17.333 -42.667 34 -56s37.334 -20 62.001 -20c28.667 0 51.667 9 69 27s26 41.667 26 71s-9 53.666 -27 72.999s-40.667 29 -68 29c-21.333 0 -40.333 -4.33301 -57 -13s-27.667 -19.667 -33 -33l-99 39l99 230z" />
    <glyph glyph-name="Tcaron" unicode="&#x164;" horiz-adv-x="860" 
d="M294 0v1254v0h-282v0v130v131v0h844v0v-130v-131v0h-282v0v-1254v0h-140h-140v0zM334 1652l-301 283h296l113 -131v0l113 131h296l-301 -283h-108h-108z" />
    <glyph glyph-name="tcaron" unicode="&#x165;" horiz-adv-x="1120" 
d="M182 0v896v0h-131v240h131v0v381h273v-381v0h165v-240h-165v0v-896h-273zM712 1110l152 405h196l-154 -405h-194z" />
    <glyph glyph-name="Umacron" unicode="&#x16a;" horiz-adv-x="1311" 
d="M1198 567c0 -191.333 -46.834 -338.666 -140.501 -441.999s-227.5 -155 -401.5 -155c-173.333 0 -307.166 51.667 -401.499 155s-141.5 250.666 -141.5 441.999v948v0h140h140v0v-961c0 -108 21.833 -188.833 65.5 -242.5s109.5 -80.5 197.5 -80.5
c87.333 0 152.833 26.833 196.5 80.5s65.5 134.5 65.5 242.5v961v0h140h140v0v-948zM324.999 1889h660v-216h-660v216z" />
    <glyph glyph-name="umacron" unicode="&#x16b;" horiz-adv-x="1229" 
d="M375 1136l-0.000976562 -607c0 -104 19.333 -183.167 58 -237.5s95.334 -81.5 170.001 -81.5c79.333 0 138.833 27.333 178.5 82s59.5 136.667 59.5 246v0v598v0h136h137v0v-1136v0h-127h-127v0v101v0v0c-86 -92.667 -192 -139 -318 -139
c-134.667 0 -241.667 45.5 -321 136.5s-119 214.167 -119 369.5v668v0h136h137v0zM277.999 1519h660v-216h-660v216z" />
    <glyph glyph-name="Uring" unicode="&#x16e;" horiz-adv-x="1311" 
d="M1198 567c0 -191.333 -46.834 -338.666 -140.501 -441.999s-227.5 -155 -401.5 -155c-173.333 0 -307.166 51.667 -401.499 155s-141.5 250.666 -141.5 441.999v948v0h140h140v0v-961c0 -108 21.833 -188.833 65.5 -242.5s109.5 -80.5 197.5 -80.5
c87.333 0 152.833 26.833 196.5 80.5s65.5 134.5 65.5 242.5v961v0h140h140v0v-948zM654.999 1546c-61.333 0 -113.333 21.333 -156 64s-64 94.667 -64 156s21.333 113.333 64 156s94.667 64 156 64s113.333 -21.333 156 -64s64 -94.667 64 -156s-21.333 -113.333 -64 -156
s-94.667 -64 -156 -64v0zM654.999 1683c23.333 0 43 8 59 24s24 35.667 24 59s-8 43 -24 59s-35.667 24 -59 24s-43 -8 -59 -24s-24 -35.667 -24 -59s8 -43 24 -59s35.667 -24 59 -24v0z" />
    <glyph glyph-name="uring" unicode="&#x16f;" horiz-adv-x="1229" 
d="M375 1136l-0.000976562 -607c0 -104 19.333 -183.167 58 -237.5s95.334 -81.5 170.001 -81.5c79.333 0 138.833 27.333 178.5 82s59.5 136.667 59.5 246v0v598v0h136h137v0v-1136v0h-127h-127v0v101v0v0c-86 -92.667 -192 -139 -318 -139
c-134.667 0 -241.667 45.5 -321 136.5s-119 214.167 -119 369.5v668v0h136h137v0zM594.999 1268c-61.333 0 -113.333 21.333 -156 64s-64 94.667 -64 156s21.333 113.333 64 156s94.667 64 156 64s113.333 -21.333 156 -64s64 -94.667 64 -156s-21.333 -113.333 -64 -156
s-94.667 -64 -156 -64v0zM594.999 1405c23.333 0 43 8 59 24s24 35.667 24 59s-8 43 -24 59s-35.667 24 -59 24s-43 -8 -59 -24s-24 -35.667 -24 -59s8 -43 24 -59s35.667 -24 59 -24v0z" />
    <glyph glyph-name="Uhungarumlaut" unicode="&#x170;" horiz-adv-x="1311" 
d="M1198 567c0 -191.333 -46.834 -338.666 -140.501 -441.999s-227.5 -155 -401.5 -155c-173.333 0 -307.166 51.667 -401.499 155s-141.5 250.666 -141.5 441.999v948v0h140h140v0v-961c0 -108 21.833 -188.833 65.5 -242.5s109.5 -80.5 197.5 -80.5
c87.333 0 152.833 26.833 196.5 80.5s65.5 134.5 65.5 242.5v961v0h140h140v0v-948zM304.999 1738l370 373l153 -158l-387 -355zM761.999 1738l370 373l153 -158l-387 -355z" />
    <glyph glyph-name="uhungarumlaut" unicode="&#x171;" horiz-adv-x="1229" 
d="M375 1136l-0.000976562 -607c0 -104 19.333 -183.167 58 -237.5s95.334 -81.5 170.001 -81.5c79.333 0 138.833 27.333 178.5 82s59.5 136.667 59.5 246v0v598v0h136h137v0v-1136v0h-127h-127v0v101v0v0c-86 -92.667 -192 -139 -318 -139
c-134.667 0 -241.667 45.5 -321 136.5s-119 214.167 -119 369.5v668v0h136h137v0zM250.999 1390l370 373l153 -158l-387 -355zM707.999 1390l370 373l153 -158l-387 -355z" />
    <glyph glyph-name="Uogonek" unicode="&#x172;" horiz-adv-x="1311" 
d="M1198 567c0 -191.333 -46.834 -338.666 -140.501 -441.999s-227.5 -155 -401.5 -155c-173.333 0 -307.166 51.667 -401.499 155s-141.5 250.666 -141.5 441.999v948v0h140h140v0v-961c0 -108 21.833 -188.833 65.5 -242.5s109.5 -80.5 197.5 -80.5
c87.333 0 152.833 26.833 196.5 80.5s65.5 134.5 65.5 242.5v961v0h140h140v0v-948zM494.999 -198c0 40 16.168 79.833 48.501 119.5s75.166 71.834 128.499 96.501h142c-54.667 -41.333 -90.5 -72 -107.5 -92s-25.5 -42.333 -25.5 -67c0 -28 9.83301 -50.667 29.5 -68
s45.5 -26 77.5 -26c14 0 28 2.16699 42 6.5s26.667 10.166 38 17.499v-160c-18 -8 -39.5 -14.5 -64.5 -19.5s-49.5 -7.5 -73.5 -7.5c-72 0 -129.333 18 -172 54c-42 36 -63 84.667 -63 146z" />
    <glyph glyph-name="uogonek" unicode="&#x173;" horiz-adv-x="1229" 
d="M375 1136l-0.000976562 -607c0 -104 19.333 -183.167 58 -237.5s95.334 -81.5 170.001 -81.5c79.333 0 138.833 27.333 178.5 82s59.5 136.667 59.5 246v0v598v0h136h137v0v-1136v0h-127h-127v0v101v0v0c-86 -92.667 -192 -139 -318 -139
c-134.667 0 -241.667 45.5 -321 136.5s-119 214.167 -119 369.5v668v0h136h137v0zM718.999 -198c0 40 16.168 79.833 48.501 119.5s75.166 71.834 128.499 96.501h142c-54.667 -41.333 -90.5 -72 -107.5 -92s-25.5 -42.333 -25.5 -67c0 -28 9.83301 -50.667 29.5 -68
s45.5 -26 77.5 -26c14 0 28 2.16699 42 6.5s26.667 10.166 38 17.499v-160c-18 -8 -39.5 -14.5 -64.5 -19.5s-49.5 -7.5 -73.5 -7.5c-72 0 -129.333 18 -172 54c-42 36 -63 84.667 -63 146z" />
    <glyph glyph-name="Ydieresis" unicode="&#x178;" horiz-adv-x="1270" 
d="M495 564l-498 951v0h152h152v0l336 -704v0l332 704v0h152h152v0l-498 -951v0v-564h-140h-140v564zM283 1923h274v-272h-274v272zM713 1923h274v-272h-274v272z" />
    <glyph glyph-name="Zacute" unicode="&#x179;" horiz-adv-x="1024" 
d="M39 235l583 1019v0h-550v0v130v131v0h879v-117v-118l-583 -1019v0h617v0v-130v-131v0h-946v117v118zM270 1818l458 266l117 -212l-472 -242z" />
    <glyph glyph-name="zacute" unicode="&#x17a;" horiz-adv-x="942" 
d="M41 246l515 640v0h-459v0v125v125v0h777v-123v-123l-518 -640v0h549v0v-125v-125v0h-864v123v123zM232 1470l458 266l117 -212l-472 -242z" />
    <glyph glyph-name="Zdotaccent" unicode="&#x17b;" horiz-adv-x="1024" 
d="M39 235l583 1019v0h-550v0v130v131v0h879v-117v-118l-583 -1019v0h617v0v-130v-131v0h-946v117v118zM374 1923h274v-273h-274v273z" />
    <glyph glyph-name="zdotaccent" unicode="&#x17c;" horiz-adv-x="942" 
d="M41 246l515 640v0h-459v0v125v125v0h777v-123v-123l-518 -640v0h549v0v-125v-125v0h-864v123v123zM348 1575h274v-273h-274v273z" />
    <glyph glyph-name="Zcaron" unicode="&#x17d;" horiz-adv-x="1024" 
d="M39 235l583 1019v0h-550v0v130v131v0h879v-117v-118l-583 -1019v0h617v0v-130v-131v0h-946v117v118zM411 1652l-301 283h296l113 -131v0l113 131h296l-301 -283h-108h-108z" />
    <glyph glyph-name="zcaron" unicode="&#x17e;" horiz-adv-x="942" 
d="M41 246l515 640v0h-459v0v125v125v0h777v-123v-123l-518 -640v0h549v0v-125v-125v0h-864v123v123zM369 1304l-301 283h296l113 -131v0l113 131h296l-301 -283h-108h-108z" />
    <glyph glyph-name="florin" unicode="&#x192;" horiz-adv-x="1147" 
d="M741 962l-141 -811.998c-28 -164.667 -80.667 -282.334 -158 -353.001c-76 -70.667 -189.333 -106 -340 -106c-36.667 0 -70.667 2.66699 -102 8l42 241l47 -2c82 0 142.333 23 181 69s68.667 130.333 90 253l122 702v0h-189l38 240h193v0l9 48
c24.667 142 75.167 250.333 151.5 325s174.833 112 295.5 112c23.333 0 45.333 -1.66699 66 -5l-41 -234v0c-69.333 -2.66699 -120 -23.334 -152 -62.001c-25.333 -32 -48.333 -93.333 -69 -184v0h187l-38 -240h-192z" />
    <glyph glyph-name="circumflex" unicode="&#x2c6;" horiz-adv-x="1106" 
d="M662 1586l301 -283h-296l-113 131v0l-113 -131h-296l301 283h108h108z" />
    <glyph glyph-name="caron" unicode="&#x2c7;" horiz-adv-x="1106" 
d="M446 1304l-301 283h296l113 -131v0l113 131h296l-301 -283h-108h-108z" />
    <glyph glyph-name="uni02C9" unicode="&#x2c9;" horiz-adv-x="860" 
d="M100 1519h660v-216h-660v216z" />
    <glyph glyph-name="breve" unicode="&#x2d8;" horiz-adv-x="983" 
d="M492 1297c-116.667 0 -209.167 23.5 -277.5 70.5s-111.166 116.833 -128.499 209.5h222c11.333 -23.333 34.666 -42.833 69.999 -58.5s73.333 -23.5 114 -23.5c41.333 0 79.666 7.83301 114.999 23.5s58.666 35.167 69.999 58.5h222
c-17.333 -92.667 -60.166 -162.5 -128.499 -209.5s-161.166 -70.5 -278.499 -70.5z" />
    <glyph glyph-name="dotaccent" unicode="&#x2d9;" horiz-adv-x="573" 
d="M151 1575h274v-273h-274v273z" />
    <glyph glyph-name="ring" unicode="&#x2da;" horiz-adv-x="737" 
d="M370 1268c-61.333 0 -113.333 21.333 -156 64s-64 94.667 -64 156s21.333 113.333 64 156s94.667 64 156 64s113.333 -21.333 156 -64s64 -94.667 64 -156s-21.333 -113.333 -64 -156s-94.667 -64 -156 -64v0zM370 1405c23.333 0 43 8 59 24s24 35.667 24 59
s-8 43 -24 59s-35.667 24 -59 24s-43 -8 -59 -24s-24 -35.667 -24 -59s8 -43 24 -59s35.667 -24 59 -24v0z" />
    <glyph glyph-name="ogonek" unicode="&#x2db;" horiz-adv-x="696" 
d="M104 -198c0 40 16.168 79.833 48.501 119.5s75.166 71.834 128.499 96.501h142c-54.667 -41.333 -90.5 -72 -107.5 -92s-25.5 -42.333 -25.5 -67c0 -28 9.83301 -50.667 29.5 -68s45.5 -26 77.5 -26c14 0 28 2.16699 42 6.5s26.667 10.166 38 17.499v-160
c-18 -8 -39.5 -14.5 -64.5 -19.5s-49.5 -7.5 -73.5 -7.5c-72 0 -129.333 18 -172 54c-42 36 -63 84.667 -63 146z" />
    <glyph glyph-name="tilde" unicode="&#x2dc;" horiz-adv-x="983" 
d="M90 1480c28.667 25.333 66.002 46.832 112.002 64.499s88 26.5 126 26.5c19.333 0 47.666 -4 84.999 -12s73.666 -17.667 108.999 -29c16 -5.33301 33.833 -9.66602 53.5 -12.999s36.167 -5 49.5 -5c24.667 0 52 5 82 15s54.333 22 73 36l114 -162
c-28 -28 -64.5 -51.5 -109.5 -70.5s-86.167 -28.5 -123.5 -28.5c-10 0 -34.333 4 -73 12s-80.667 18 -126 30c-16 4 -33.667 7.33301 -53 10s-35 4 -47 4c-26 0 -54.833 -4.16699 -86.5 -12.5s-57.167 -18.5 -76.5 -30.5z" />
    <glyph glyph-name="hungarumlaut" unicode="&#x2dd;" horiz-adv-x="1434" 
d="M270 1390l370 373l153 -158l-387 -355zM727 1390l370 373l153 -158l-387 -355z" />
    <glyph glyph-name="pi" unicode="&#x3c0;" horiz-adv-x="1246" 
d="M112 692c60.667 106.667 117.833 177.832 171.5 213.499s130.167 53.5 229.5 53.5l338 1c60 0 123.667 0.833008 191 2.5s116 3.83398 146 6.50098l-30 -164h-301c-21.333 -114 -31 -222.667 -29 -326s16.333 -214.666 43 -333.999c14.667 -66 17 -110.833 7 -134.5
s-36 -35.5 -78 -35.5c-42.667 0 -75.167 19.667 -97.5 59s-33.5 96.666 -33.5 171.999c0 63.333 7.66699 141 23 233s41.333 214 78 366h-148l-116 -652c-12 -70 -27 -117.167 -45 -141.5s-46.667 -36.5 -86 -36.5c-44 0 -69.5 15 -76.5 45s2.5 85 28.5 165l211 620h-94
c-50 0 -93.5 -10.5 -130.5 -31.5s-83.833 -61.5 -140.5 -121.5z" />
    <glyph glyph-name="endash" unicode="&#x2013;" horiz-adv-x="1024" 
d="M72 711h880v-241h-880v241z" />
    <glyph glyph-name="emdash" unicode="&#x2014;" horiz-adv-x="2048" 
d="M72 711h1904v-241h-1904v241z" />
    <glyph glyph-name="quoteleft" unicode="&#x2018;" horiz-adv-x="573" 
d="M419 1088v-136h-136h-136v287c0 86 23 152.5 69 199.5s113.333 72.5 202 76.5v0v-138v0c-60 -9.33301 -97.333 -29.333 -112 -60c-10 -20 -13 -50.667 -9 -92v0h122v-137z" />
    <glyph glyph-name="quoteright" unicode="&#x2019;" horiz-adv-x="573" 
d="M147 1379v136h136h136v-287c0 -86 -23 -152.5 -69 -199.5s-113.333 -72.5 -202 -76.5v0v138v0c60 9.33301 97.333 29.333 112 60c10 20 13 50.667 9 92v0h-122v137z" />
    <glyph glyph-name="quotesinglbase" unicode="&#x201a;" horiz-adv-x="573" 
d="M147 137v136h136h136v-287c0 -86 -23 -152.5 -69 -199.5s-113.333 -72.5 -202 -76.5v0v138v0c60 9.33301 97.333 29.333 112 60c10 19.333 13 50 9 92v0h-122v137z" />
    <glyph glyph-name="quotedblleft" unicode="&#x201c;" horiz-adv-x="983" 
d="M415 1088v-136h-136h-136v287c0 86 23 152.5 69 199.5s113.333 72.5 202 76.5v0v-138v0c-60 -9.33301 -97.333 -29.333 -112 -60c-10 -20 -13 -50.667 -9 -92v0h122v-137zM840 1088v-136h-136h-136v287c0 86 23 152.5 69 199.5s113.333 72.5 202 76.5v0v-138v0
c-60 -9.33301 -97.333 -29.333 -112 -60c-10 -20 -13 -50.667 -9 -92v0h122v-137z" />
    <glyph glyph-name="quotedblright" unicode="&#x201d;" horiz-adv-x="983" 
d="M143 1379v136h136h136v-287c0 -86 -23 -152.5 -69 -199.5s-113.333 -72.5 -202 -76.5v0v138v0c60 9.33301 97.333 29.333 112 60c10 20 13 50.667 9 92v0h-122v137zM568 1379v136h136h136v-287c0 -86 -23 -152.5 -69 -199.5s-113.333 -72.5 -202 -76.5v0v138v0
c60 9.33301 97.333 29.333 112 60c10 20 13 50.667 9 92v0h-122v137z" />
    <glyph glyph-name="quotedblbase" unicode="&#x201e;" horiz-adv-x="983" 
d="M143 137v136h136h136v-287c0 -86 -23 -152.5 -69 -199.5s-113.333 -72.5 -202 -76.5v0v138v0c60 9.33301 97.333 29.333 112 60c10 19.333 13 50 9 92v0h-122v137zM568 137v136h136h136v-287c0 -86 -23 -152.5 -69 -199.5s-113.333 -72.5 -202 -76.5v0v138v0
c60 9.33301 97.333 29.333 112 60c10 19.333 13 50 9 92v0h-122v137z" />
    <glyph glyph-name="dagger" unicode="&#x2020;" horiz-adv-x="1147" 
d="M104 1137h333v0v378h271v-378v0h335v-230h-335v0v-1195h-271v1195v0h-333v230z" />
    <glyph glyph-name="daggerdbl" unicode="&#x2021;" horiz-adv-x="1147" 
d="M104 1196h336v0v319h266v-319v0h337v-228h-337v0v-605v0h337v-223h-337v0v-428h-266v428v0h-336v223h336v0v605v0h-336v228z" />
    <glyph glyph-name="bullet" unicode="&#x2022;" horiz-adv-x="1229" 
d="M615 1090c87.333 0 161.166 -30.833 221.499 -92.5s90.5 -137.167 90.5 -226.5s-30.167 -164.666 -90.5 -225.999s-134.166 -92 -221.499 -92s-161.166 30.667 -221.499 92s-90.5 136.666 -90.5 225.999s30.167 164.833 90.5 226.5s134.166 92.5 221.499 92.5z" />
    <glyph glyph-name="ellipsis" unicode="&#x2026;" horiz-adv-x="2048" 
d="M205 272h274v-272h-274v272zM886 272h274v-272h-274v272zM1567 272h274v-272h-274v272z" />
    <glyph glyph-name="perthousand" unicode="&#x2030;" horiz-adv-x="2621" 
d="M442 810c-106.667 0 -194.667 34.833 -264 104.5s-104 158.167 -104 265.5c0 108 34.667 196.833 104 266.5s157.333 104.5 264 104.5c107.333 0 195.666 -34.833 264.999 -104.5s104 -158.5 104 -266.5c0 -107.333 -34.667 -195.833 -104 -265.5
s-157.666 -104.5 -264.999 -104.5v0zM442 1323c-38.667 0 -70.334 -13.333 -95.001 -40s-37 -61 -37 -103c0 -41.333 12.333 -75.333 37 -102s56.334 -40 95.001 -40s70.5 13.333 95.5 40s37.5 60.667 37.5 102c0 42 -12.5 76.333 -37.5 103s-56.833 40 -95.5 40v0zM462 9
l628 1504h204l-628 -1504h-204zM1313 -28c-106.667 0 -194.667 34.833 -264 104.5s-104 158.167 -104 265.5c0 108 34.667 196.833 104 266.5s157.333 104.5 264 104.5c107.333 0 195.666 -34.833 264.999 -104.5s104 -158.5 104 -266.5
c0 -107.333 -34.667 -195.833 -104 -265.5s-157.666 -104.5 -264.999 -104.5v0zM1313 485c-38.667 0 -70.334 -13.333 -95.001 -40s-37 -61 -37 -103c0 -41.333 12.333 -75.333 37 -102s56.334 -40 95.001 -40s70.5 13.333 95.5 40s37.5 60.667 37.5 102
c0 42 -12.5 76.333 -37.5 103s-56.833 40 -95.5 40v0zM2136 -28c-106.667 0 -194.667 34.833 -264 104.5s-104 158.167 -104 265.5c0 108 34.667 196.833 104 266.5s157.333 104.5 264 104.5c107.333 0 195.666 -34.833 265 -104.5c69.333 -69.667 104 -158.5 104 -266.5
c0 -107.333 -34.667 -195.833 -104 -265.5s-157.666 -104.5 -265 -104.5v0zM2136 485c-38.667 0 -70.334 -13.333 -95 -40c-24.667 -26.667 -37 -61 -37 -103c0 -41.333 12.333 -75.333 37 -102s56.334 -40 95 -40c38.667 0 70.5 13.333 95.5 40s37.5 60.667 37.5 102
c0 42 -12.5 76.333 -37.5 103s-56.833 40 -95.5 40v0z" />
    <glyph glyph-name="guilsinglleft" unicode="&#x2039;" horiz-adv-x="492" 
d="M390 713l-137 -121v0l137 -121v-248l-288 268v101v101l288 268v-248z" />
    <glyph glyph-name="guilsinglright" unicode="&#x203a;" horiz-adv-x="492" 
d="M102 471l137 121v0l-137 121v248l288 -268v-101v-101l-288 -268v248z" />
    <glyph glyph-name="fraction" unicode="&#x2044;" horiz-adv-x="328" 
d="M577 1515l-625 -1515h-203l625 1515h203z" />
    <glyph glyph-name="uni2074" unicode="&#x2074;" horiz-adv-x="688" 
d="M425 738h-406v76v77l428 624h80h81v-609v0h100v-168h-100v0v-132h-183v132v0zM425 906v330v0v0l-204 -330v0h204z" />
    <glyph glyph-name="Euro" unicode="&#x20ac;" horiz-adv-x="1147" 
d="M1122 424c-15.333 -138 -65.667 -248.166 -151 -330.499s-192 -123.5 -320 -123.5c-152.667 0 -273 70 -361 210c-49.333 79.333 -85 175.666 -107 288.999h-166l34 222h108v66v50h-142l34 222h130c22.667 117.333 60 218 112 302
c89.333 142.667 208.666 214 357.999 214c127.333 0 234.333 -41.833 321 -125.5s138.667 -195.834 156 -336.501v0h-291v0c-9.33301 68.667 -29.333 120.334 -60 155.001s-71.667 52 -123 52c-68.667 0 -122.667 -46.333 -162 -139
c-14.667 -34.667 -26.667 -75.334 -36 -122.001h326l-34 -222h-314v-39l1 -77h294l-34 -222h-233c8.66699 -35.333 19.334 -68.666 32.001 -99.999c39.333 -96 94 -144 164 -144c49.333 0 88.5 16.667 117.5 50s47.5 83 55.5 149v0h291z" />
    <glyph glyph-name="trademark" unicode="&#x2122;" horiz-adv-x="2048" 
d="M201 606v737v0h-183v0v86v86v0h551v0v-86v-86v0h-184v0v-737v0h-92h-92v0zM877 606h-96h-97v0v909v0h127h128v0l244 -656v0v0l243 656v0h127h128v0v-909v0h-96h-97v0v623v0l-231 -623h-74h-74l-232 624v0v-624z" />
    <glyph glyph-name="uni2126" unicode="&#x2126;" horiz-adv-x="1246" 
d="M599 0l-413.002 -0.00195312l-74 410l74 12c22 -92 42.5 -149 61.5 -171s57.167 -34 114.5 -36h79c-21.333 40.667 -51.166 94.334 -89.499 161.001l-109.5 184c-43.333 70.667 -77.666 141.167 -102.999 211.5s-38 130.5 -38 180.5
c0 139.333 49.833 250.833 149.5 334.5s234.167 126.834 403.5 129.501c160.667 0 293.167 -43 397.5 -129s156.5 -195.333 156.5 -328c0 -52.667 -12.5 -114.334 -37.5 -185.001s-59.5 -142 -103.5 -214l-95.5 -162l-103.5 -183h79c50 -0.666992 87.333 13.5 112 42.5
s46 83.833 64 164.5l73 -12l-74 -410h-412c81.333 225.333 124.5 345.666 129.5 360.999l30.5 97c30.667 98.667 54.167 190.834 70.5 276.501s24.5 158.167 24.5 217.5c0 108 -28.833 196.833 -86.5 266.5s-132.5 105.834 -224.5 108.501
c-92 -2.66699 -166.667 -38.334 -224 -107.001s-86 -157 -86 -265c0 -52 9.16699 -126 27.5 -222s40.833 -187.667 67.5 -275c16 -51.333 39.333 -121.166 70 -209.499z" />
    <glyph glyph-name="partialdiff" unicode="&#x2202;" horiz-adv-x="1020" 
d="M81 385c0 156 46.5078 294.833 139.508 416.5s198.833 182.5 317.5 182.5c32 0 64.167 -5.33301 96.5 -16s67.166 -27.334 104.499 -50.001c14 126.667 8.5 227.334 -16.5 302.001s-65.833 112 -122.5 112c-18.667 0 -38.834 -9.5 -60.501 -28.5
s-38.834 -42.5 -51.501 -70.5c-19.333 -42 -35.833 -69.5 -49.5 -82.5s-33.834 -19.5 -60.501 -19.5c-40 0 -68.833 16.333 -86.5 49s-16.834 68 2.49902 106c21.333 41.333 56.166 76.333 104.499 105s97.166 43 146.499 43c130.667 0 228.667 -51.667 294 -155
s97.666 -258.333 96.999 -465c0 -248 -48.5 -451 -145.5 -609s-221.167 -237 -372.5 -237c-98.667 0 -179.5 39 -242.5 117s-94.5 178 -94.5 300zM271.008 324c0 -76 14.667 -140.334 44 -193.001s65.333 -79 108 -79c72 0 133.333 59.333 184 178s76 262.334 76 431.001
c0 80 -13 140 -39 180s-65 60 -117 60c-71.333 0 -131.833 -55.833 -181.5 -167.5s-74.5 -248.167 -74.5 -409.5z" />
    <glyph glyph-name="uni2206" unicode="&#x2206;" horiz-adv-x="1360" 
d="M740 1391l582 -1391h-1285zM667 1077l-446 -883h799z" />
    <glyph glyph-name="product" unicode="&#x220f;" horiz-adv-x="2039" 
d="M197 -315v65c100.667 11.333 166.5 40.833 197.5 88.5s46.5 144.167 46.5 289.5v901c2 144.667 -12.5 240.834 -43.5 288.501s-97.833 77.167 -200.5 88.5v65h1645v-65c-100.667 -11.333 -166.5 -40.833 -197.5 -88.5s-46.5 -143.834 -46.5 -288.501v-901
c0 -145.333 15.5 -241.833 46.5 -289.5s96.833 -77.167 197.5 -88.5v-65h-704v65c104.667 11.333 172 40.333 202 87s44 143.667 42 291v1262h-725v-1262c0 -145.333 15.5 -241.833 46.5 -289.5s96.833 -77.167 197.5 -88.5v-65h-704z" />
    <glyph glyph-name="summation" unicode="&#x2211;" horiz-adv-x="2039" 
d="M416 -315l491 838l-482 948h1119l46 -366l-70 -14l-17 39c-36 94.667 -83.5 161.5 -142.5 200.5s-142.5 58.5 -250.5 58.5h-403l370 -740l-451 -756h524c92 0 165 17 219 51s103.667 94 149 180l22 41l70 -21l-117 -459h-1077z" />
    <glyph glyph-name="minus" unicode="&#x2212;" horiz-adv-x="1229" 
d="M115 638h1032v-246h-1032v246z" />
    <glyph glyph-name="uni2215" unicode="&#x2215;" horiz-adv-x="328" 
d="M577 1515l-625 -1515h-203l625 1515h203z" />
    <glyph glyph-name="uni2219" unicode="&#x2219;" horiz-adv-x="573" 
d="M150 893h274v-272h-274v272z" />
    <glyph glyph-name="radical" unicode="&#x221a;" horiz-adv-x="1473" 
d="M56 438l298 194l506 -750l480 1647h382v-86h-281l-553 -1817h-74l-570 821l-145 -105z" />
    <glyph glyph-name="infinity" unicode="&#x221e;" horiz-adv-x="2039" 
d="M283 569c0 119.333 38.832 220.001 116.499 302.001s172.834 123 285.501 123c81.333 0 151.5 -20.167 210.5 -60.5s117.5 -107.833 175.5 -202.5c49.333 72.667 101.833 127 157.5 163s114.834 54 177.501 54c102 0 185.5 -35.167 250.5 -105.5
s97.5 -160.833 97.5 -271.5c0 -108 -32.333 -197.667 -97 -269s-145.667 -107 -243 -107c-70 0 -133 18.833 -189 56.5s-101 91.5 -135 161.5c-70.667 -104 -132.834 -174 -186.501 -210s-122.5 -54 -206.5 -54c-116 0 -214 40.667 -294 122s-120 180.666 -120 297.999z
M393.999 567.001c0 -71.333 23.002 -131.667 69.002 -181s102.333 -74 169 -74c72.667 0 137.167 24.333 193.5 73s109.5 126 159.5 232c-42 75.333 -87.833 129.833 -137.5 163.5s-109.834 50.5 -180.501 50.5c-76.667 0 -141.334 -25.5 -194.001 -76.5
s-79 -113.5 -79 -187.5zM1643 569c0 64.667 -19.833 116.834 -59.5 156.501s-92.167 59.5 -157.5 59.5c-56 0 -104.667 -16.833 -146 -50.5s-82 -89.834 -122 -168.501c27.333 -66.667 64.5 -118 111.5 -154s100.167 -54 159.5 -54c65.333 0 117.333 19 156 57
s58 89.333 58 154z" />
    <glyph glyph-name="integral" unicode="&#x222b;" horiz-adv-x="2039" 
d="M752 -319c0 28 9.16504 52.166 27.498 72.499s40.166 30.5 65.499 30.5c23.333 0 43.333 -8.5 60 -25.5s25 -37.5 25 -61.5l-9 -60c-0.666992 -6 1.33301 -11.167 6 -15.5s11 -6.5 19 -6.5c34.667 -0.666992 57.834 28.333 69.501 87s9.16699 132.667 -7.5 222
c-24 127.333 -47 269 -69 425s-37 283.667 -45 383c-22 284.667 -14.333 495.334 23 632.001s106 205 206 205c44 0 81.333 -14 112 -42s46 -62 46 -102c0 -34.667 -7.83301 -60.667 -23.5 -78s-39.167 -26 -70.5 -26c-28 0 -49 6.33301 -63 19s-21 32 -21 58
c0 6.66699 5.33301 30.667 16 72c1.33301 5.33301 -0.5 10 -5.5 14s-11.833 6 -20.5 6c-51.333 0 -78 -43.5 -80 -130.5s19.667 -250.833 65 -491.5c36 -189.333 58.667 -389.5 68 -600.5s3 -374.833 -19 -491.5c-15.333 -80 -40.166 -140 -74.499 -180
s-78.166 -60 -131.499 -60c-47.333 0 -87.333 14 -120 42s-49 62.333 -49 103z" />
    <glyph glyph-name="approxequal" unicode="&#x2248;" horiz-adv-x="2039" 
d="M414 275c38 66.667 90.333 123.167 157 169.5s129.334 69.5 188.001 69.5c36.667 0 86.667 -7.16699 150 -21.5s135.333 -34.5 216 -60.5c45.333 -14.667 94.166 -27 146.499 -37s93.5 -15 123.5 -15c40 0 84 11.833 132 35.5s86.667 52.5 116 86.5l37 -22
c-32 -76.667 -77.333 -137.5 -136 -182.5s-122 -67.5 -190 -67.5c-20.667 0 -55.667 4.66699 -105 14s-99.333 21 -150 35c-108 29.333 -192.833 50.833 -254.5 64.5s-105.167 20.5 -130.5 20.5c-42.667 0 -90 -11.667 -142 -35s-94.333 -52 -127 -86zM414 626
c38 66.667 90.333 123.167 157 169.5s129.334 69.5 188.001 69.5c36.667 0 86.667 -7.16699 150 -21.5s135.333 -34.5 216 -60.5c45.333 -14.667 94.166 -27 146.499 -37s93.5 -15 123.5 -15c40 0 84 11.833 132 35.5s86.667 52.5 116 86.5l37 -22
c-32 -76.667 -77.333 -137.5 -136 -182.5s-122 -67.5 -190 -67.5c-20.667 0 -55.667 4.66699 -105 14s-99.333 21 -150 35c-108 29.333 -192.833 50.833 -254.5 64.5s-105.167 20.5 -130.5 20.5c-42.667 0 -90 -11.667 -142 -35s-94.333 -52 -127 -86z" />
    <glyph glyph-name="notequal" unicode="&#x2260;" horiz-adv-x="2039" 
d="M410 -93l318 372h-321v135h437l236 276h-673v135h788l317 367h164l-315 -367h312v-135h-427l-236 -276h663v-135h-779l-318 -372h-166z" />
    <glyph glyph-name="lessequal" unicode="&#x2264;" horiz-adv-x="2039" 
d="M1683 1235v-135l-1063 -410l1063 -309v-135l-1266 377v135zM417 135h1266v-135h-1266v135z" />
    <glyph glyph-name="greaterequal" unicode="&#x2265;" horiz-adv-x="2039" 
d="M417 1235l1266 -477v-135l-1266 -377v135l1063 309l-1063 410v135zM417 135h1266v-135h-1266v135z" />
    <glyph glyph-name="lozenge" unicode="&#x25ca;" horiz-adv-x="1171" 
d="M530 1423h110l404 -712l-404 -711h-110l-404 711zM585 1324l-349 -613l349 -615l349 615z" />
    <glyph glyph-name="uniEFED" unicode="&#xefed;" horiz-adv-x="1106" 
d="M415 1923h274v-273h-274v273z" />
    <glyph glyph-name="uniEFEE" unicode="&#xefee;" horiz-adv-x="983" 
d="M492 1645c-116.667 0 -209.167 23.5 -277.5 70.5s-111.166 116.833 -128.499 209.5h222c11.333 -23.333 34.666 -42.833 69.999 -58.5s73.333 -23.5 114 -23.5c41.333 0 79.666 7.83301 114.999 23.5s58.666 35.167 69.999 58.5h222
c-17.333 -92.667 -60.166 -162.5 -128.499 -209.5s-161.166 -70.5 -278.499 -70.5z" />
    <glyph glyph-name="uniEFEF" unicode="&#xefef;" horiz-adv-x="860" 
d="M100 1889h660v-216h-660v216z" />
    <glyph glyph-name="uniEFF0" unicode="&#xeff0;" horiz-adv-x="1434" 
d="M270 1738l370 373l153 -158l-387 -355zM727 1738l370 373l153 -158l-387 -355z" />
    <glyph glyph-name="uniEFF1" unicode="&#xeff1;" horiz-adv-x="696" 
d="M104 -198c0 40 16.168 79.833 48.501 119.5s75.166 71.834 128.499 96.501h142c-54.667 -41.333 -90.5 -72 -107.5 -92s-25.5 -42.333 -25.5 -67c0 -28 9.83301 -50.667 29.5 -68s45.5 -26 77.5 -26c14 0 28 2.16699 42 6.5s26.667 10.166 38 17.499v-160
c-18 -8 -39.5 -14.5 -64.5 -19.5s-49.5 -7.5 -73.5 -7.5c-72 0 -129.333 18 -172 54c-42 36 -63 84.667 -63 146z" />
    <glyph glyph-name="uniEFF2" unicode="&#xeff2;" horiz-adv-x="696" 
d="M419 -2l-48.001 -107.998v0l51 2c56 0 101.667 -19.333 137 -58s53 -88.334 53 -149.001c0 -58.667 -19.167 -106.5 -57.5 -143.5s-87.5 -55.5 -147.5 -55.5c-55.333 0 -102.5 17 -141.5 51s-60.5 76.667 -64.5 128h109c6 -24 17.333 -42.667 34 -56
s37.334 -20 62.001 -20c28.667 0 51.667 9 69 27s26 41.667 26 71s-9 53.666 -27 72.999s-40.667 29 -68 29c-21.333 0 -40.333 -4.33301 -57 -13s-27.667 -19.667 -33 -33l-99 39l99 230z" />
    <glyph glyph-name="uniEFF3" unicode="&#xeff3;" horiz-adv-x="737" 
d="M370 1546c-61.333 0 -113.333 21.333 -156 64s-64 94.667 -64 156s21.333 113.333 64 156s94.667 64 156 64s113.333 -21.333 156 -64s64 -94.667 64 -156s-21.333 -113.333 -64 -156s-94.667 -64 -156 -64v0zM370 1683c23.333 0 43 8 59 24s24 35.667 24 59
s-8 43 -24 59s-35.667 24 -59 24s-43 -8 -59 -24s-24 -35.667 -24 -59s8 -43 24 -59s35.667 -24 59 -24v0z" />
    <glyph glyph-name="uniEFF4" unicode="&#xeff4;" horiz-adv-x="1106" 
d="M446 1652l-301 283h296l113 -131v0l113 131h296l-301 -283h-108h-108z" />
    <glyph glyph-name="uniEFF5" unicode="&#xeff5;" horiz-adv-x="983" 
d="M90 1828c28.667 25.333 66.002 46.832 112.002 64.499s88 26.5 126 26.5c19.333 0 47.666 -4 84.999 -12s73.666 -17.667 108.999 -29c16 -5.33301 33.833 -9.66602 53.5 -12.999s36.167 -5 49.5 -5c24.667 0 52 5 82 15s54.333 22 73 36l114 -162
c-28 -28 -64.5 -51.5 -109.5 -70.5s-86.167 -28.5 -123.5 -28.5c-10 0 -34.333 4 -73 12s-80.667 18 -126 30c-16 4 -33.667 7.33301 -53 10s-35 4 -47 4c-26 0 -54.833 -4.16699 -86.5 -12.5s-57.167 -18.5 -76.5 -30.5z" />
    <glyph glyph-name="uniEFF6" unicode="&#xeff6;" horiz-adv-x="1024" 
d="M160 1923h274v-272h-274v272zM590 1923h274v-272h-274v272z" />
    <glyph glyph-name="uniEFF7" unicode="&#xeff7;" horiz-adv-x="1106" 
d="M662 1934l301 -283h-296l-113 131v0l-113 -131h-296l301 283h108h108z" />
    <glyph glyph-name="uniEFF8" unicode="&#xeff8;" horiz-adv-x="860" 
d="M566 1630l-464 255l119 209l453 -276z" />
    <glyph glyph-name="uniEFF9" unicode="&#xeff9;" horiz-adv-x="860" 
d="M186 1818l458 266l117 -212l-472 -242z" />
    <glyph glyph-name="uniF001" unicode="&#xf001;" horiz-adv-x="1065" 
d="M421 896v-896v0h-136h-137v0v896v0h-97v240h97v0c5.33301 122 40 219.333 104 292c68.667 78 164 117 286 117l55 -1v-265h-14c-56 0 -96.333 -11 -121 -33s-37 -57.667 -37 -107v-3v0h525v0v-1136v0h-136h-137v0v896v0h-252zM673 1515h272v-250h-272v250z" />
    <glyph glyph-name="uniF002" unicode="&#xf002;" horiz-adv-x="1065" 
d="M422 896v-896v0h-136h-137v0v896v0h-98v240h98v0c5.33301 122 40 219.333 104 292c68.667 78 164 117 286 117l54 -1v-265h-13c-56 0 -96.333 -11 -121 -33s-37 -57.667 -37 -107v-3v0h279v-240h-279zM672 0v1515v0h136h137v0v-1515v0h-136h-137v0z" />
    <glyph glyph-name="uniFB01" unicode="&#xfb01;" horiz-adv-x="1065" 
d="M421 896v-896v0h-136h-137v0v896v0h-97v240h97v0c5.33301 122 40 219.333 104 292c68.667 78 164 117 286 117l55 -1v-265h-14c-56 0 -96.333 -11 -121 -33s-37 -57.667 -37 -107v-3v0h525v0v-1136v0h-136h-137v0v896v0h-252zM673 1515h272v-250h-272v250z" />
    <glyph glyph-name="uniFB02" unicode="&#xfb02;" horiz-adv-x="1065" 
d="M422 896v-896v0h-136h-137v0v896v0h-98v240h98v0c5.33301 122 40 219.333 104 292c68.667 78 164 117 286 117l54 -1v-265h-13c-56 0 -96.333 -11 -121 -33s-37 -57.667 -37 -107v-3v0h279v-240h-279zM672 0v1515v0h136h137v0v-1515v0h-136h-137v0z" />
    <glyph glyph-name="glyph1" 
 />
    <glyph glyph-name="glyph106" 
d="M0 1540c218.667 0 403.667 -75.667 555 -227s227 -336.333 227 -555s-75.5 -403.667 -226.5 -555s-336.167 -227 -555.5 -227s-404.5 75.667 -555.5 227s-226.5 336.333 -226.5 555s75.667 403.667 227 555s336.333 227 555 227v0zM597 758
c0 169.333 -57.6709 312.333 -173.004 429s-256.666 175 -423.999 175s-308.666 -58.333 -423.999 -175s-173 -259.667 -173 -429s57.833 -312.333 173.5 -429s256.834 -175 423.501 -175s307.834 58.333 423.501 175s173.5 259.667 173.5 429v0z" />
    <glyph glyph-name="glyph107" 
d="M402 603c-14 -91.333 -58.5 -166.501 -133.5 -225.501s-163.167 -88.5 -264.5 -88.5c-127.333 0 -232.166 44 -314.499 132s-123.5 200 -123.5 336s41.167 248.167 123.5 336.5s187.166 132.5 314.499 132.5c104.667 0 194.167 -28.667 268.5 -86
s118.833 -132 133.5 -224v0h-188v0c-16.667 52.667 -42 91.667 -76 117s-77.667 38 -131 38c-76 0 -138.167 -28.833 -186.5 -86.5s-72.5 -131.5 -72.5 -221.5c0 -97.333 23.333 -174.833 70 -232.5s109.667 -86.5 189 -86.5c54.667 0 99 12.833 133 38.5
s59.667 65.834 77 120.501v0h181z" />
    <glyph glyph-name="glyph113" 
d="M0 1540c218.667 0 403.667 -75.667 555 -227s227 -336.333 227 -555s-75.5 -403.667 -226.5 -555s-336.167 -227 -555.5 -227s-404.5 75.667 -555.5 227s-226.5 336.333 -226.5 555s75.667 403.667 227 555s336.333 227 555 227v0zM602 758
c0 170 -58.167 313.5 -174.5 430.5s-258.833 175.5 -427.5 175.5s-311.167 -58.5 -427.5 -175.5s-174.5 -260.5 -174.5 -430.5s58.333 -313.5 175 -430.5s259 -175.5 427 -175.5s310.333 58.5 427 175.5s175 260.5 175 430.5v0z" />
    <glyph glyph-name="glyph114" 
d="M-332 301l-0.000976562 898.001v0h89v0h289c104 0 182.333 -19.333 235 -58s79 -96 79 -172c0 -85.333 -25.333 -148.333 -76 -189c-28.667 -21.333 -65.667 -38 -111 -50v0h7c44 0 81.667 -18 113 -54s48.666 -81 51.999 -135l5 -81
c2.66699 -48.667 5.83398 -84.834 9.50098 -108.501s8.5 -40.5 14.5 -50.5h-87h-87c-8 1.33301 -14.667 16 -20 44s-10.666 75.667 -15.999 143l-4 57c-2.66699 36.667 -20.167 65 -52.5 85s-76.5 30 -132.5 30h-128v0v-359v0h-89h-90v0zM-153.001 803.001h199
c42.667 0 75.667 10.833 99 32.5s35 52.5 35 92.5s-11.667 71 -35 93s-56.333 33 -99 33h-199v0v-251z" />
    <glyph glyph-name="glyph130" horiz-adv-x="688" 
d="M261 606v735v0h-114v174h311v0v0v-909v0h-98h-99v0z" />
    <glyph glyph-name="glyph131" horiz-adv-x="688" 
d="M425 738h-406v76v77l428 624h80h81v-609v0h100v-168h-100v0v-132h-183v132v0zM425 906v330v0v0l-204 -330v0h204z" />
    <glyph glyph-name="glyph133" horiz-adv-x="688" 
d="M261 606v735v0h-114v174h311v0v0v-909v0h-98h-99v0z" />
    <glyph glyph-name="glyph134" horiz-adv-x="688" 
d="M658 1251c0 -86.667 -27.668 -163.667 -83.001 -231c-40 -48 -124 -127.333 -252 -238v0h335v-176h-619v82v83c196 178.667 316 292.334 360 341.001c44 48 66 90.667 66 128c0 34.667 -11.167 63.167 -33.5 85.5s-51.166 33.5 -86.499 33.5
c-39.333 0 -69 -13.833 -89 -41.5s-30 -68.834 -30 -123.501v0h-199v0c0 103.333 28.5 186 85.5 248s133.5 93 229.5 93c86.667 0 161 -28 223 -84s93 -122.667 93 -200z" />
    <glyph glyph-name="glyph136" horiz-adv-x="688" 
d="M408 1285c0 23.333 -6.00098 41.502 -18.001 54.502s-29.333 19.5 -52 19.5c-18 0 -32 -6.33301 -42 -19s-15.667 -31.334 -17 -56.001v0h-194v0c2 72.667 27.167 132.667 75.5 180s108.5 71 180.5 71c77.333 0 141 -23 191 -69s75 -104.667 75 -176
c0 -63.333 -24.667 -116.333 -74 -159v0c16.667 -8 32.334 -18.333 47.001 -31c61.333 -50 92 -113.667 92 -191c0 -94 -30.833 -171.333 -92.5 -232s-140.167 -91 -235.5 -91c-92.667 0 -168.667 27.5 -228 82.5s-92.666 128.833 -99.999 221.5v0h196v0
c5.33301 -41.333 18.833 -72.333 40.5 -93s51.167 -31 88.5 -31c42 0 74.833 11.667 98.5 35s35.5 55.666 35.5 96.999c0 38.667 -13.5 70.5 -40.5 95.5s-61.833 37.5 -104.5 37.5h-59v172h35c33.333 0 58.666 7 75.999 21s26 34.333 26 61z" />
    <glyph glyph-name="glyph137" horiz-adv-x="688" 
d="M425 738h-406v76v77l428 624h80h81v-609v0h100v-168h-100v0v-132h-183v132v0zM425 906v330v0v0l-204 -330v0h204z" />
    <glyph glyph-name="glyph140" 
d="M138 -21l-464 255l119 209l453 -276z" />
    <glyph glyph-name="glyph142" 
d="M-241 167l458 266l117 -212l-472 -242z" />
    <glyph glyph-name="glyph144" 
d="M108 283l301 -283h-296l-113 131v0l-113 -131h-296l301 283h108h108z" />
    <glyph glyph-name="glyph146" 
d="M-402 177c28.667 25.333 66.002 46.832 112.002 64.499s88 26.5 126 26.5c19.333 0 47.666 -4 84.999 -12s73.666 -17.667 108.999 -29c16 -5.33301 33.833 -9.66602 53.5 -12.999s36.167 -5 49.5 -5c24.667 0 52 5 82 15s54.333 22 73 36l114 -162
c-28 -28 -64.5 -51.5 -109.5 -70.5s-86.167 -28.5 -123.5 -28.5c-10 0 -34.333 4 -73 12s-80.667 18 -126 30c-16 4 -33.667 7.33301 -53 10s-35 4 -47 4c-26 0 -54.833 -4.16699 -86.5 -12.5s-57.167 -18.5 -76.5 -30.5z" />
    <glyph glyph-name="glyph148" 
d="M-352 272h274v-272h-274v272zM78 272h274v-272h-274v272z" />
    <glyph glyph-name="glyph150" 
d="M0 -105c-61.333 0 -113.333 21.333 -156 64s-64 94.667 -64 156s21.333 113.333 64 156s94.667 64 156 64s113.333 -21.333 156 -64s64 -94.667 64 -156s-21.333 -113.333 -64 -156s-94.667 -64 -156 -64v0zM0 32c23.333 0 43 8 59 24s24 35.667 24 59s-8 43 -24 59
s-35.667 24 -59 24s-43 -8 -59 -24s-24 -35.667 -24 -59s8 -43 24 -59s35.667 -24 59 -24v0z" />
    <glyph glyph-name="glyph153" 
d="M-2 -2l-48.001 -107.998v0l51 2c56 0 101.667 -19.333 137 -58s53 -88.334 53 -149.001c0 -58.667 -19.167 -106.5 -57.5 -143.5s-87.5 -55.5 -147.5 -55.5c-55.333 0 -102.5 17 -141.5 51s-60.5 76.667 -64.5 128h109c6 -24 17.333 -42.667 34 -56
s37.334 -20 62.001 -20c28.667 0 51.667 9 69 27s26 41.667 26 71s-9 53.666 -27 72.999s-40.667 29 -68 29c-21.333 0 -40.333 -4.33301 -57 -13s-27.667 -19.667 -33 -33l-99 39l99 230z" />
    <glyph glyph-name="glyph179" 
d="M121 -21l-464 255l119 209l453 -276z" />
    <glyph glyph-name="glyph181" 
d="M-253 167l458 266l117 -212l-472 -242z" />
    <glyph glyph-name="glyph183" 
d="M108 283l301 -283h-296l-113 131v0l-113 -131h-296l301 283h108h108z" />
    <glyph glyph-name="glyph185" 
d="M-402 177c28.667 25.333 66.002 46.832 112.002 64.499s88 26.5 126 26.5c19.333 0 47.666 -4 84.999 -12s73.666 -17.667 108.999 -29c16 -5.33301 33.833 -9.66602 53.5 -12.999s36.167 -5 49.5 -5c24.667 0 52 5 82 15s54.333 22 73 36l114 -162
c-28 -28 -64.5 -51.5 -109.5 -70.5s-86.167 -28.5 -123.5 -28.5c-10 0 -34.333 4 -73 12s-80.667 18 -126 30c-16 4 -33.667 7.33301 -53 10s-35 4 -47 4c-26 0 -54.833 -4.16699 -86.5 -12.5s-57.167 -18.5 -76.5 -30.5z" />
    <glyph glyph-name="glyph187" 
d="M-352 272h274v-272h-274v272zM78 272h274v-272h-274v272z" />
    <glyph glyph-name="glyph189" 
d="M-13 -35c-61.333 0 -113.333 21.333 -156 64s-64 94.667 -64 156s21.333 113.333 64 156s94.667 64 156 64s113.333 -21.333 156 -64s64 -94.667 64 -156s-21.333 -113.333 -64 -156s-94.667 -64 -156 -64v0zM-13 102c23.333 0 43 8 59 24s24 35.667 24 59s-8 43 -24 59
s-35.667 24 -59 24s-43 -8 -59 -24s-24 -35.667 -24 -59s8 -43 24 -59s35.667 -24 59 -24v0z" />
    <glyph glyph-name="glyph192" 
d="M14 -2l-48.001 -107.998v0l51 2c56 0 101.667 -19.333 137 -58s53 -88.334 53 -149.001c0 -58.667 -19.167 -106.5 -57.5 -143.5s-87.5 -55.5 -147.5 -55.5c-55.333 0 -102.5 17 -141.5 51s-60.5 76.667 -64.5 128h109c6 -24 17.333 -42.667 34 -56
s37.334 -20 62.001 -20c28.667 0 51.667 9 69 27s26 41.667 26 71s-9 53.666 -27 72.999s-40.667 29 -68 29c-21.333 0 -40.333 -4.33301 -57 -13s-27.667 -19.667 -33 -33l-99 39l99 230z" />
    <glyph glyph-name="glyph219" 
d="M-330 238h660v-216h-660v216z" />
    <glyph glyph-name="glyph221" 
d="M-330 216h660v-216h-660v216z" />
    <glyph glyph-name="glyph223" 
d="M0 -6c-116.667 0 -209.167 23.5 -277.5 70.5s-111.166 116.833 -128.499 209.5h222c11.333 -23.333 34.666 -42.833 69.999 -58.5s73.333 -23.5 114 -23.5c41.333 0 79.666 7.83301 114.999 23.5s58.666 35.167 69.999 58.5h222
c-17.333 -92.667 -60.166 -162.5 -128.499 -209.5s-161.166 -70.5 -278.499 -70.5z" />
    <glyph glyph-name="glyph225" 
d="M0 -6c-116.667 0 -209.167 23.5 -277.5 70.5s-111.166 116.833 -128.499 209.5h222c11.333 -23.333 34.666 -42.833 69.999 -58.5s73.333 -23.5 114 -23.5c41.333 0 79.666 7.83301 114.999 23.5s58.666 35.167 69.999 58.5h222
c-17.333 -92.667 -60.166 -162.5 -128.499 -209.5s-161.166 -70.5 -278.499 -70.5z" />
    <glyph glyph-name="glyph227" 
d="M-225 -198c0 40 16.168 79.833 48.501 119.5s75.166 71.834 128.499 96.501h142c-54.667 -41.333 -90.5 -72 -107.5 -92s-25.5 -42.333 -25.5 -67c0 -28 9.83301 -50.667 29.5 -68s45.5 -26 77.5 -26c14 0 28 2.16699 42 6.5s26.667 10.166 38 17.499v-160
c-18 -8 -39.5 -14.5 -64.5 -19.5s-49.5 -7.5 -73.5 -7.5c-72 0 -129.333 18 -172 54c-42 36 -63 84.667 -63 146z" />
    <glyph glyph-name="glyph229" 
d="M-177 -198c0 40 16.168 79.833 48.501 119.5s75.166 71.834 128.499 96.501h142c-54.667 -41.333 -90.5 -72 -107.5 -92s-25.5 -42.333 -25.5 -67c0 -28 9.83301 -50.667 29.5 -68s45.5 -26 77.5 -26c14 0 28 2.16699 42 6.5s26.667 10.166 38 17.499v-160
c-18 -8 -39.5 -14.5 -64.5 -19.5s-49.5 -7.5 -73.5 -7.5c-72 0 -129.333 18 -172 54c-42 36 -63 84.667 -63 146z" />
    <glyph glyph-name="glyph233" 
d="M-100 1l-301 283h296l113 -131v0l113 131h296l-301 -283h-108h-108z" />
    <glyph glyph-name="glyph235" 
d="M-116 1l-301 283h296l113 -131v0l113 131h296l-301 -283h-108h-108z" />
    <glyph glyph-name="glyph238" 
d="M-361 -38c-155.333 0 -287.833 58.833 -397.5 176.5s-164.5 260.5 -164.5 428.5s57 311.167 171 429.5s252 177.5 414 177.5c130 -1.33301 242.667 -44.333 338 -129v0v470v0h136h137v0v-1515v0h-125h-126v0v123v0c-106 -107.333 -233.667 -161 -383 -161zM-317 927
c-94 0 -172.832 -34.5 -236.499 -103.5s-95.5 -154.5 -95.5 -256.5c0 -101.333 31.667 -186.333 95 -255s142 -103 236 -103c94.667 0 174 34.333 238 103s96 154 96 256s-31.833 187.333 -95.5 256s-142.834 103 -237.501 103z" />
    <glyph glyph-name="glyph239" 
d="M0 0l152 405h196l-154 -405h-194z" />
    <glyph glyph-name="glyph245" 
d="M-137 272h274v-273h-274v273z" />
    <glyph glyph-name="glyph247" 
d="M-137 272h274v-273h-274v273z" />
    <glyph glyph-name="glyph255" 
d="M0 0l152 405h235l-154 -405h-233z" />
    <glyph glyph-name="glyph257" 
d="M209 405l-152 -405h-196l154 405h194z" />
    <glyph glyph-name="glyph282" 
d="M-350 87l370 373l153 -158l-387 -355zM107 87l370 373l153 -158l-387 -355z" />
    <glyph glyph-name="glyph284" 
d="M-357 87l370 373l153 -158l-387 -355zM100 87l370 373l153 -158l-387 -355z" />
    <glyph glyph-name="glyph300" 
d="M-2 -2l-48.001 -107.998v0l51 2c56 0 101.667 -19.333 137 -58s53 -88.334 53 -149.001c0 -58.667 -19.167 -106.5 -57.5 -143.5s-87.5 -55.5 -147.5 -55.5c-55.333 0 -102.5 17 -141.5 51s-60.5 76.667 -64.5 128h109c6 -24 17.333 -42.667 34 -56
s37.334 -20 62.001 -20c28.667 0 51.667 9 69 27s26 41.667 26 71s-9 53.666 -27 72.999s-40.667 29 -68 29c-21.333 0 -40.333 -4.33301 -57 -13s-27.667 -19.667 -33 -33l-99 39l99 230z" />
    <glyph glyph-name="glyph302" 
d="M14 -2l-48.001 -107.998v0l51 2c56 0 101.667 -19.333 137 -58s53 -88.334 53 -149.001c0 -58.667 -19.167 -106.5 -57.5 -143.5s-87.5 -55.5 -147.5 -55.5c-55.333 0 -102.5 17 -141.5 51s-60.5 76.667 -64.5 128h109c6 -24 17.333 -42.667 34 -56
s37.334 -20 62.001 -20c28.667 0 51.667 9 69 27s26 41.667 26 71s-9 53.666 -27 72.999s-40.667 29 -68 29c-21.333 0 -40.333 -4.33301 -57 -13s-27.667 -19.667 -33 -33l-99 39l99 230z" />
    <glyph glyph-name="glyph350" 
d="M-92 606v737v0h-183v0v86v86v0h551v0v-86v-86v0h-184v0v-737v0h-92h-92v0z" />
    <glyph glyph-name="glyph351" 
d="M-306 606h-96h-97v0v909v0h127h128v0l244 -656v0v0l243 656v0h127h128v0v-909v0h-96h-97v0v623v0l-231 -623h-74h-74l-232 624v0v-624z" />
  </font>
</defs>
</svg>
